{
copyright = "Copyright (c) 2015, Cadson Demak (info@cadsondemak.com)";
customParameters = (
{
name = vendorID;
value = CDK;
},
{
name = description;
value = "Copyright (c) 2015, Cadson Demak (info@cadsondemak.com)";
},
{
name = license;

glyphs = (
{
glyphname = A;
lastChange = "2015-11-25 11:50:16 +0000";
layers = (
{
layerId = "D9861EBB-D268-4716-B046-FAB51EB1D86F";
name = "Bold Italic";
paths = (
{
closed = 1;
nodes = (
"165 0 LINE",
"247 137 LINE",
"443 137 LINE",
"466 0 LINE",
"662 0 LINE",
"551 644 LINE",
"352 644 LINE",
"-31 0 LINE"
);
},
{
closed = 1;
nodes = (
"412 461 LINE",
"444 272 LINE",
"300 272 LINE"
);
}
);
width = 743;
}
);
leftKerningGroup = A;
note = A;
rightKerningGroup = A;
unicode = 0041;
},
{
glyphname = Aacute;
lastChange = "2015-11-25 11:50:15 +0000";
layers = (
{
layerId = "D9861EBB-D268-4716-B046-FAB51EB1D86F";
name = "Bold Italic";
paths = (
{
closed = 1;
nodes = (
"165 0 LINE",
"247 137 LINE",
"443 137 LINE",
"466 0 LINE",
"662 0 LINE",
"551 644 LINE",
"352 644 LINE",
"-31 0 LINE"
);
},
{
closed = 1;
nodes = (
"412 461 LINE",
"444 272 LINE",
"300 272 LINE"
);
},
{
closed = 1;
nodes = (
"527 688 LINE",
"667 894 LINE",
"521 894 LINE",
"389 688 LINE"
);
}
);
width = 743;
}
);
leftKerningGroup = A;
note = Aacute;
rightKerningGroup = A;
unicode = 00C1;
},
{
glyphname = Abreve;
lastChange = "2015-11-25 11:50:17 +0000";
layers = (
{
layerId = "D9861EBB-D268-4716-B046-FAB51EB1D86F";
name = "Bold Italic";
paths = (
{
closed = 1;
nodes = (
"165 0 LINE",
"247 137 LINE",
"443 137 LINE",
"466 0 LINE",
"662 0 LINE",
"551 644 LINE",
"352 644 LINE",
"-31 0 LINE"
);
},
{
closed = 1;
nodes = (
"412 461 LINE",
"444 272 LINE",
"300 272 LINE"
);
},
{
closed = 1;
nodes = (
"574 689 OFFCURVE",
"664 755 OFFCURVE",
"690 876 CURVE",
"563 876 LINE",
"553 827 OFFCURVE",
"528 792 OFFCURVE",
"477 792 CURVE SMOOTH",
"438 792 OFFCURVE",
"424 812 OFFCURVE",
"424 844 CURVE SMOOTH",
"424 853 OFFCURVE",
"426 864 OFFCURVE",
"428 876 CURVE",
"312 876 LINE",
"308 858 OFFCURVE",
"306 840 OFFCURVE",
"306 824 CURVE SMOOTH",
"306 736 OFFCURVE",
"365 689 OFFCURVE",
"460 689 CURVE SMOOTH"
);
}
);
width = 743;
}
);
leftKerningGroup = A;
note = Abreve;
rightKerningGroup = A;
unicode = 0102;
},
{
glyphname = Abreveacute;
lastChange = "2015-11-25 11:50:15 +0000";
layers = (
{
layerId = "D9861EBB-D268-4716-B046-FAB51EB1D86F";
name = "Bold Italic";
paths = (
{
closed = 1;
nodes = (
"165 0 LINE",
"247 137 LINE",
"443 137 LINE",
"466 0 LINE",
"662 0 LINE",
"551 644 LINE",
"352 644 LINE",
"-31 0 LINE"
);
},
{
closed = 1;
nodes = (
"412 461 LINE",
"444 272 LINE",
"300 272 LINE"
);
},
{
closed = 1;
nodes = (
"581 688 OFFCURVE",
"654 740 OFFCURVE",
"680 860 CURVE",
"575 860 LINE",
"565 812 OFFCURVE",
"532 780 OFFCURVE",
"482 780 CURVE SMOOTH",
"435 780 OFFCURVE",
"419 800 OFFCURVE",
"419 831 CURVE SMOOTH",
"419 840 OFFCURVE",
"420 850 OFFCURVE",
"422 860 CURVE",
"317 860 LINE",
"313 844 OFFCURVE",
"312 829 OFFCURVE",
"312 815 CURVE SMOOTH",
"312 727 OFFCURVE",
"379 688 OFFCURVE",
"462 688 CURVE SMOOTH"
);
},
{
closed = 1;
nodes = (
"551 856 LINE",
"667 1013 LINE",
"542 1013 LINE",
"443 856 LINE"
);
}
);
width = 743;
}
);
leftKerningGroup = A;
note = Abreveacute;
rightKerningGroup = A;
unicode = 1EAE;
},
{
glyphname = Abrevedotbelow;
lastChange = "2015-11-25 11:50:18 +0000";
layers = (
{
layerId = "D9861EBB-D268-4716-B046-FAB51EB1D86F";
name = "Bold Italic";
paths = (
{
closed = 1;
nodes = (
"165 0 LINE",
"247 137 LINE",
"443 137 LINE",
"466 0 LINE",
"662 0 LINE",
"551 644 LINE",
"352 644 LINE",
"-31 0 LINE"
);
},
{
closed = 1;
nodes = (
"343 -176 LINE",
"368 -56 LINE",
"238 -56 LINE",
"213 -176 LINE"
);
},
{
closed = 1;
nodes = (
"412 461 LINE",
"444 272 LINE",
"300 272 LINE"
);
},
{
closed = 1;
nodes = (
"574 688 OFFCURVE",
"664 754 OFFCURVE",
"690 875 CURVE",
"563 875 LINE",
"553 826 OFFCURVE",
"528 791 OFFCURVE",
"477 791 CURVE SMOOTH",
"438 791 OFFCURVE",
"424 811 OFFCURVE",
"424 843 CURVE SMOOTH",
"424 852 OFFCURVE",
"426 863 OFFCURVE",
"428 875 CURVE",
"312 875 LINE",
"308 857 OFFCURVE",
"306 839 OFFCURVE",
"306 823 CURVE SMOOTH",
"306 735 OFFCURVE",
"365 688 OFFCURVE",
"460 688 CURVE SMOOTH"
);
}
);
width = 743;
}
);
leftKerningGroup = A;
note = Abrevedotbelow;
rightKerningGroup = A;
unicode = 1EB6;
},
{
glyphname = Abrevegrave;
lastChange = "2015-11-25 11:50:17 +0000";
layers = (
{
layerId = "D9861EBB-D268-4716-B046-FAB51EB1D86F";
name = "Bold Italic";
paths = (
{
closed = 1;
nodes = (
"165 0 LINE",
"247 137 LINE",
"443 137 LINE",
"466 0 LINE",
"662 0 LINE",
"551 644 LINE",
"352 644 LINE",
"-31 0 LINE"
);
},
{
closed = 1;
nodes = (
"412 461 LINE",
"444 272 LINE",
"300 272 LINE"
);
},
{
closed = 1;
nodes = (
"580 688 OFFCURVE",
"653 740 OFFCURVE",
"679 860 CURVE",
"574 860 LINE",
"564 812 OFFCURVE",
"531 780 OFFCURVE",
"481 780 CURVE SMOOTH",
"434 780 OFFCURVE",
"418 800 OFFCURVE",
"418 831 CURVE SMOOTH",
"418 840 OFFCURVE",
"419 850 OFFCURVE",
"421 860 CURVE",
"316 860 LINE",
"312 844 OFFCURVE",
"311 829 OFFCURVE",
"311 815 CURVE SMOOTH",
"311 727 OFFCURVE",
"378 688 OFFCURVE",
"461 688 CURVE SMOOTH"
);
},
{
closed = 1;
nodes = (
"551 856 LINE",
"518 1013 LINE",
"393 1013 LINE",
"443 856 LINE"
);
}
);
width = 743;
}
);
leftKerningGroup = A;
note = Abrevegrave;
rightKerningGroup = A;
unicode = 1EB0;
},
{
glyphname = Abrevehookabove;
lastChange = "2015-11-25 11:50:15 +0000";
layers = (
{
layerId = "D9861EBB-D268-4716-B046-FAB51EB1D86F";
name = "Bold Italic";
paths = (
{
closed = 1;
nodes = (
"165 0 LINE",
"247 137 LINE",
"443 137 LINE",
"466 0 LINE",
"662 0 LINE",
"551 644 LINE",
"352 644 LINE",
"-31 0 LINE"
);
},
{
closed = 1;
nodes = (
"412 461 LINE",
"444 272 LINE",
"300 272 LINE"
);
},
{
closed = 1;
nodes = (
"580 688 OFFCURVE",
"653 740 OFFCURVE",
"679 860 CURVE",
"574 860 LINE",
"564 812 OFFCURVE",
"531 780 OFFCURVE",
"481 780 CURVE SMOOTH",
"434 780 OFFCURVE",
"418 800 OFFCURVE",
"418 831 CURVE SMOOTH",
"418 840 OFFCURVE",
"419 850 OFFCURVE",
"421 860 CURVE",
"316 860 LINE",
"312 844 OFFCURVE",
"311 829 OFFCURVE",
"311 815 CURVE SMOOTH",
"311 727 OFFCURVE",
"378 688 OFFCURVE",
"461 688 CURVE SMOOTH"
);
},
{
closed = 1;
nodes = (
"557 861 LINE",
"563 891 LINE",
"619 904 OFFCURVE",
"646 928 OFFCURVE",
"656 973 CURVE SMOOTH",
"657 979 OFFCURVE",
"658 984 OFFCURVE",
"658 989 CURVE SMOOTH",
"658 1030 OFFCURVE",
"623 1059 OFFCURVE",
"557 1059 CURVE SMOOTH",
"517 1059 OFFCURVE",
"478 1054 OFFCURVE",
"452 1046 CURVE",
"438 979 LINE",
"452 984 OFFCURVE",
"472 988 OFFCURVE",
"491 988 CURVE SMOOTH",
"522 988 OFFCURVE",
"537 982 OFFCURVE",
"532 960 CURVE",
"528 939 OFFCURVE",
"506 925 OFFCURVE",
"449 923 CURVE",
"436 861 LINE"
);
}
);
width = 743;
}
);
leftKerningGroup = A;
note = Abrevehookabove;
rightKerningGroup = A;
unicode = 1EB2;
},
{
glyphname = Abrevetilde;
lastChange = "2015-11-25 11:50:16 +0000";
layers = (
{
layerId = "D9861EBB-D268-4716-B046-FAB51EB1D86F";
name = "Bold Italic";
paths = (
{
closed = 1;
nodes = (
"165 0 LINE",
"247 137 LINE",
"443 137 LINE",
"466 0 LINE",
"662 0 LINE",
"551 644 LINE",
"352 644 LINE",
"-31 0 LINE"
);
},
{
closed = 1;
nodes = (
"412 461 LINE",
"444 272 LINE",
"300 272 LINE"
);
},
{
closed = 1;
nodes = (
"580 688 OFFCURVE",
"653 740 OFFCURVE",
"679 860 CURVE",
"574 860 LINE",
"564 812 OFFCURVE",
"531 780 OFFCURVE",
"481 780 CURVE SMOOTH",
"434 780 OFFCURVE",
"418 800 OFFCURVE",
"418 831 CURVE SMOOTH",
"418 840 OFFCURVE",
"419 850 OFFCURVE",
"421 860 CURVE",
"316 860 LINE",
"312 844 OFFCURVE",
"311 829 OFFCURVE",
"311 815 CURVE SMOOTH",
"311 727 OFFCURVE",
"378 688 OFFCURVE",
"461 688 CURVE SMOOTH"
);
},
{
closed = 1;
nodes = (
"635 878 OFFCURVE",
"672 893 OFFCURVE",
"687 910 CURVE",
"709 1013 LINE",
"688 990 OFFCURVE",
"654 974 OFFCURVE",
"613 974 CURVE SMOOTH",
"553 974 OFFCURVE",
"511 1015 OFFCURVE",
"446 1015 CURVE SMOOTH",
"408 1015 OFFCURVE",
"369 1001 OFFCURVE",
"347 983 CURVE",
"325 881 LINE",
"353 905 OFFCURVE",
"387 919 OFFCURVE",
"428 919 CURVE SMOOTH",
"482 919 OFFCURVE",
"533 878 OFFCURVE",
"596 878 CURVE SMOOTH"
);
}
);
width = 743;
}
);
leftKerningGroup = A;
note = Abrevetilde;
rightKerningGroup = A;
unicode = 1EB4;
},
{
glyphname = Acaron;
lastChange = "2015-11-25 11:50:17 +0000";
layers = (
{
layerId = "D9861EBB-D268-4716-B046-FAB51EB1D86F";
name = "Bold Italic";
paths = (
{
closed = 1;
nodes = (
"165 0 LINE",
"247 137 LINE",
"443 137 LINE",
"466 0 LINE",
"662 0 LINE",
"551 644 LINE",
"352 644 LINE",
"-31 0 LINE"
);
},
{
closed = 1;
nodes = (
"412 461 LINE",
"444 272 LINE",
"300 272 LINE"
);
},
{
closed = 1;
nodes = (
"518 688 LINE",
"715 888 LINE",
"574 888 LINE",
"475 779 LINE",
"426 888 LINE",
"292 888 LINE",
"404 688 LINE"
);
}
);
width = 743;
}
);
leftKerningGroup = A;
note = Acaron;
rightKerningGroup = A;
unicode = 01CD;
},
{
glyphname = Acircumflex;
lastChange = "2015-11-25 11:50:18 +0000";
layers = (
{
layerId = "D9861EBB-D268-4716-B046-FAB51EB1D86F";
name = "Bold Italic";
paths = (
{
closed = 1;
nodes = (
"165 0 LINE",
"247 137 LINE",
"443 137 LINE",
"466 0 LINE",
"662 0 LINE",
"551 644 LINE",
"352 644 LINE",
"-31 0 LINE"
);
},
{
closed = 1;
nodes = (
"412 461 LINE",
"444 272 LINE",
"300 272 LINE"
);
},
{
closed = 1;
nodes = (
"395 688 LINE",
"488 796 LINE",
"542 688 LINE",
"673 688 LINE",
"560 888 LINE",
"446 888 LINE",
"250 688 LINE"
);
}
);
width = 743;
}
);
leftKerningGroup = A;
note = Acircumflex;
rightKerningGroup = A;
unicode = 00C2;
},
{
glyphname = Acircumflexacute;
lastChange = "2015-11-25 11:50:18 +0000";
layers = (
{
layerId = "D9861EBB-D268-4716-B046-FAB51EB1D86F";
name = "Bold Italic";
paths = (
{
closed = 1;
nodes = (
"165 0 LINE",
"247 137 LINE",
"443 137 LINE",
"466 0 LINE",
"662 0 LINE",
"551 644 LINE",
"352 644 LINE",
"-31 0 LINE"
);
},
{
closed = 1;
nodes = (
"412 461 LINE",
"444 272 LINE",
"300 272 LINE"
);
},
{
closed = 1;
nodes = (
"401 688 LINE",
"480 767 LINE",
"525 688 LINE",
"671 688 LINE",
"562 840 LINE",
"424 840 LINE",
"249 688 LINE"
);
},
{
closed = 1;
nodes = (
"740 813 LINE",
"851 969 LINE",
"712 969 LINE",
"609 813 LINE"
);
}
);
width = 743;
}
);
leftKerningGroup = A;
note = Acircumflexacute;
rightKerningGroup = A;
unicode = 1EA4;
},
{
glyphname = Acircumflexdotbelow;
lastChange = "2015-11-25 11:50:18 +0000";
layers = (
{
layerId = "D9861EBB-D268-4716-B046-FAB51EB1D86F";
name = "Bold Italic";
paths = (
{
closed = 1;
nodes = (
"165 0 LINE",
"247 137 LINE",
"443 137 LINE",
"466 0 LINE",
"662 0 LINE",
"551 644 LINE",
"352 644 LINE",
"-31 0 LINE"
);
},
{
closed = 1;
nodes = (
"343 -176 LINE",
"368 -56 LINE",
"238 -56 LINE",
"213 -176 LINE"
);
},
{
closed = 1;
nodes = (
"412 461 LINE",
"444 272 LINE",
"300 272 LINE"
);
},
{
closed = 1;
nodes = (
"395 688 LINE",
"488 796 LINE",
"542 688 LINE",
"673 688 LINE",
"560 888 LINE",
"446 888 LINE",
"250 688 LINE"
);
}
);
width = 743;
}
);
leftKerningGroup = A;
note = Acircumflexdotbelow;
rightKerningGroup = A;
unicode = 1EAC;
},
{
glyphname = Acircumflexgrave;
lastChange = "2015-11-25 11:50:15 +0000";
layers = (
{
layerId = "D9861EBB-D268-4716-B046-FAB51EB1D86F";
name = "Bold Italic";
paths = (
{
closed = 1;
nodes = (
"165 0 LINE",
"247 137 LINE",
"443 137 LINE",
"466 0 LINE",
"662 0 LINE",
"551 644 LINE",
"352 644 LINE",
"-31 0 LINE"
);
},
{
closed = 1;
nodes = (
"412 461 LINE",
"444 272 LINE",
"300 272 LINE"
);
},
{
closed = 1;
nodes = (
"369 812 LINE",
"331 968 LINE",
"192 968 LINE",
"237 812 LINE"
);
},
{
closed = 1;
nodes = (
"405 687 LINE",
"484 766 LINE",
"529 687 LINE",
"674 687 LINE",
"566 839 LINE",
"428 839 LINE",
"253 687 LINE"
);
}
);
width = 743;
}
);
leftKerningGroup = A;
note = Acircumflexgrave;
rightKerningGroup = A;
unicode = 1EA6;
},
{
glyphname = Acircumflexhookabove;
lastChange = "2015-11-25 11:50:18 +0000";
layers = (
{
layerId = "D9861EBB-D268-4716-B046-FAB51EB1D86F";
name = "Bold Italic";
paths = (
{
closed = 1;
nodes = (
"165 0 LINE",
"247 137 LINE",
"443 137 LINE",
"466 0 LINE",
"662 0 LINE",
"551 644 LINE",
"352 644 LINE",
"-31 0 LINE"
);
},
{
closed = 1;
nodes = (
"412 461 LINE",
"444 272 LINE",
"300 272 LINE"
);
},
{
closed = 1;
nodes = (
"401 688 LINE",
"480 767 LINE",
"525 688 LINE",
"670 688 LINE",
"562 840 LINE",
"424 840 LINE",
"249 688 LINE"
);
},
{
closed = 1;
nodes = (
"738 790 LINE",
"745 823 LINE",
"797 831 OFFCURVE",
"826 862 OFFCURVE",
"836 907 CURVE SMOOTH",
"837 914 OFFCURVE",
"838 920 OFFCURVE",
"838 926 CURVE SMOOTH",
"838 968 OFFCURVE",
"805 993 OFFCURVE",
"734 993 CURVE SMOOTH",
"695 993 OFFCURVE",
"659 988 OFFCURVE",
"634 981 CURVE",
"618 909 LINE",
"634 913 OFFCURVE",
"652 916 OFFCURVE",
"670 916 CURVE SMOOTH",
"696 916 OFFCURVE",
"710 910 OFFCURVE",
"707 894 CURVE",
"703 877 OFFCURVE",
"688 864 OFFCURVE",
"629 863 CURVE",
"614 790 LINE"
);
}
);
width = 743;
}
);
leftKerningGroup = A;
note = Acircumflexhookabove;
rightKerningGroup = A;
unicode = 1EA8;
},
{
glyphname = Acircumflextilde;
lastChange = "2015-11-25 11:50:16 +0000";
layers = (
{
layerId = "D9861EBB-D268-4716-B046-FAB51EB1D86F";
name = "Bold Italic";
paths = (
{
closed = 1;
nodes = (
"165 0 LINE",
"247 137 LINE",
"443 137 LINE",
"466 0 LINE",
"662 0 LINE",
"551 644 LINE",
"352 644 LINE",
"-31 0 LINE"
);
},
{
closed = 1;
nodes = (
"412 461 LINE",
"444 272 LINE",
"300 272 LINE"
);
},
{
closed = 1;
nodes = (
"402 688 LINE",
"481 767 LINE",
"526 688 LINE",
"671 688 LINE",
"563 840 LINE",
"425 840 LINE",
"250 688 LINE"
);
},
{
closed = 1;
nodes = (
"636 855 OFFCURVE",
"672 870 OFFCURVE",
"689 887 CURVE",
"711 993 LINE",
"690 970 OFFCURVE",
"656 954 OFFCURVE",
"615 954 CURVE SMOOTH",
"555 954 OFFCURVE",
"512 995 OFFCURVE",
"447 995 CURVE SMOOTH",
"409 995 OFFCURVE",
"371 981 OFFCURVE",
"349 963 CURVE",
"326 858 LINE",
"354 882 OFFCURVE",
"388 896 OFFCURVE",
"429 896 CURVE SMOOTH",
"483 896 OFFCURVE",
"534 855 OFFCURVE",
"597 855 CURVE SMOOTH"
);
}
);
width = 743;
}
);
leftKerningGroup = A;
note = Acircumflextilde;
rightKerningGroup = A;
unicode = 1EAA;
},
{
glyphname = Adieresis;
lastChange = "2015-11-25 11:50:16 +0000";
layers = (
{
layerId = "D9861EBB-D268-4716-B046-FAB51EB1D86F";
name = "Bold Italic";
paths = (
{
closed = 1;
nodes = (
"165 0 LINE",
"247 137 LINE",
"443 137 LINE",
"466 0 LINE",
"662 0 LINE",
"551 644 LINE",
"352 644 LINE",
"-31 0 LINE"
);
},
{
closed = 1;
nodes = (
"412 461 LINE",
"444 272 LINE",
"300 272 LINE"
);
},
{
closed = 1;
nodes = (
"424 714 LINE",
"450 834 LINE",
"320 834 LINE",
"294 714 LINE"
);
},
{
closed = 1;
nodes = (
"640 714 LINE",
"666 834 LINE",
"535 834 LINE",
"509 714 LINE"
);
}
);
width = 743;
}
);
leftKerningGroup = A;
note = Adieresis;
rightKerningGroup = A;
unicode = 00C4;
},
{
glyphname = Adotbelow;
lastChange = "2015-11-25 11:50:17 +0000";
layers = (
{
layerId = "D9861EBB-D268-4716-B046-FAB51EB1D86F";
name = "Bold Italic";
paths = (
{
closed = 1;
nodes = (
"165 0 LINE",
"247 137 LINE",
"443 137 LINE",
"466 0 LINE",
"662 0 LINE",
"551 644 LINE",
"352 644 LINE",
"-31 0 LINE"
);
},
{
closed = 1;
nodes = (
"342 -176 LINE",
"367 -56 LINE",
"237 -56 LINE",
"212 -176 LINE"
);
},
{
closed = 1;
nodes = (
"412 461 LINE",
"444 272 LINE",
"300 272 LINE"
);
}
);
width = 743;
}
);
note = Adotbelow;
unicode = 1EA0;
},
{
glyphname = Agrave;
lastChange = "2015-11-25 11:50:16 +0000";
layers = (
{
layerId = "D9861EBB-D268-4716-B046-FAB51EB1D86F";
name = "Bold Italic";
paths = (
{
closed = 1;
nodes = (
"165 0 LINE",
"247 137 LINE",
"443 137 LINE",
"466 0 LINE",
"662 0 LINE",
"551 644 LINE",
"352 644 LINE",
"-31 0 LINE"
);
},
{
closed = 1;
nodes = (
"412 461 LINE",
"444 272 LINE",
"300 272 LINE"
);
},
{
closed = 1;
nodes = (
"529 688 LINE",
"485 894 LINE",
"338 894 LINE",
"391 688 LINE"
);
}
);
width = 743;
}
);
leftKerningGroup = A;
note = Agrave;
rightKerningGroup = A;
unicode = 00C0;
},
{
glyphname = Ahookabove;
lastChange = "2015-11-25 11:50:15 +0000";
layers = (
{
layerId = "D9861EBB-D268-4716-B046-FAB51EB1D86F";
name = "Bold Italic";
paths = (
{
closed = 1;
nodes = (
"165 0 LINE",
"247 137 LINE",
"443 137 LINE",
"466 0 LINE",
"662 0 LINE",
"551 644 LINE",
"352 644 LINE",
"-31 0 LINE"
);
},
{
closed = 1;
nodes = (
"412 461 LINE",
"444 272 LINE",
"300 272 LINE"
);
},
{
closed = 1;
nodes = (
"531 688 LINE",
"540 729 LINE",
"599 745 OFFCURVE",
"633 771 OFFCURVE",
"645 829 CURVE SMOOTH",
"647 836 OFFCURVE",
"647 843 OFFCURVE",
"647 850 CURVE SMOOTH",
"647 898 OFFCURVE",
"606 930 OFFCURVE",
"526 930 CURVE SMOOTH",
"478 930 OFFCURVE",
"438 925 OFFCURVE",
"408 916 CURVE",
"391 838 LINE",
"408 842 OFFCURVE",
"433 846 OFFCURVE",
"452 846 CURVE SMOOTH",
"491 846 OFFCURVE",
"510 836 OFFCURVE",
"505 813 CURVE SMOOTH",
"500 788 OFFCURVE",
"477 773 OFFCURVE",
"408 769 CURVE",
"390 688 LINE"
);
}
);
width = 743;
}
);
leftKerningGroup = A;
note = Ahookabove;
rightKerningGroup = A;
unicode = 1EA2;
},
{
glyphname = Amacron;
lastChange = "2015-11-25 11:50:18 +0000";
layers = (
{
layerId = "D9861EBB-D268-4716-B046-FAB51EB1D86F";
name = "Bold Italic";
paths = (
{
closed = 1;
nodes = (
"165 0 LINE",
"247 137 LINE",
"443 137 LINE",
"466 0 LINE",
"662 0 LINE",
"551 644 LINE",
"352 644 LINE",
"-31 0 LINE"
);
},
{
closed = 1;
nodes = (
"412 461 LINE",
"444 272 LINE",
"300 272 LINE"
);
},
{
closed = 1;
nodes = (
"627 702 LINE",
"651 814 LINE",
"324 814 LINE",
"300 702 LINE"
);
}
);
width = 743;
}
);
leftKerningGroup = A;
note = Amacron;
rightKerningGroup = A;
unicode = 0100;
},
{
glyphname = Aogonek;
lastChange = "2015-11-25 11:50:36 +0000";
layers = (
{
layerId = "D9861EBB-D268-4716-B046-FAB51EB1D86F";
name = "Bold Italic";
paths = (
{
closed = 1;
nodes = (
"557 -220 OFFCURVE",
"598 -212 OFFCURVE",
"620 -204 CURVE",
"638 -118 LINE",
"625 -125 OFFCURVE",
"603 -129 OFFCURVE",
"586 -129 CURVE SMOOTH",
"564 -129 OFFCURVE",
"551 -119 OFFCURVE",
"551 -101 CURVE SMOOTH",
"551 -97 OFFCURVE",
"552 -93 OFFCURVE",
"553 -89 CURVE SMOOTH",
"560 -55 OFFCURVE",
"589 -26 OFFCURVE",
"629 0 CURVE",
"662 0 LINE",
"551 644 LINE",
"352 644 LINE",
"-31 0 LINE",
"165 0 LINE",
"247 137 LINE",
"443 137 LINE",
"466 0 LINE",
"504 0 LINE",
"455 -28 OFFCURVE",
"415 -72 OFFCURVE",
"404 -123 CURVE SMOOTH",
"402 -131 OFFCURVE",
"402 -138 OFFCURVE",
"402 -144 CURVE SMOOTH",
"402 -196 OFFCURVE",
"449 -220 OFFCURVE",
"516 -220 CURVE SMOOTH"
);
},
{
closed = 1;
nodes = (
"412 461 LINE",
"444 272 LINE",
"300 272 LINE"
);
}
);
width = 743;
}
);
leftKerningGroup = A;
note = Aogonek;
rightKerningGroup = A;
unicode = 0104;
},
{
glyphname = Aring;
lastChange = "2015-11-25 11:50:16 +0000";
layers = (
{
layerId = "D9861EBB-D268-4716-B046-FAB51EB1D86F";
name = "Bold Italic";
paths = (
{
closed = 1;
nodes = (
"165 0 LINE",
"247 137 LINE",
"443 137 LINE",
"466 0 LINE",
"662 0 LINE",
"553 630 LINE",
"581 653 OFFCURVE",
"599 685 OFFCURVE",
"607 722 CURVE SMOOTH",
"609 733 OFFCURVE",
"611 744 OFFCURVE",
"611 754 CURVE SMOOTH",
"611 812 OFFCURVE",
"572 854 OFFCURVE",
"496 854 CURVE SMOOTH",
"404 854 OFFCURVE",
"346 796 OFFCURVE",
"330 722 CURVE SMOOTH",
"328 711 OFFCURVE",
"326 700 OFFCURVE",
"326 690 CURVE SMOOTH",
"326 667 OFFCURVE",
"332 648 OFFCURVE",
"344 631 CURVE",
"-31 0 LINE"
);
},
{
closed = 1;
nodes = (
"412 461 LINE",
"444 272 LINE",
"300 272 LINE"
);
},
{
closed = 1;
nodes = (
"422 668 OFFCURVE",
"410 684 OFFCURVE",
"410 706 CURVE SMOOTH",
"410 741 OFFCURVE",
"436 776 OFFCURVE",
"479 776 CURVE SMOOTH",
"513 776 OFFCURVE",
"526 759 OFFCURVE",
"526 737 CURVE SMOOTH",
"526 700 OFFCURVE",
"499 668 OFFCURVE",
"456 668 CURVE SMOOTH"
);
}
);
width = 743;
}
);
leftKerningGroup = A;
note = Aring;
rightKerningGroup = A;
unicode = 00C5;
},
{
glyphname = Aringacute;
lastChange = "2015-11-25 11:50:17 +0000";
layers = (
{
layerId = "D9861EBB-D268-4716-B046-FAB51EB1D86F";
name = "Bold Italic";
paths = (
{
closed = 1;
nodes = (
"165 0 LINE",
"247 137 LINE",
"443 137 LINE",
"466 0 LINE",
"662 0 LINE",
"551 644 LINE",
"352 644 LINE",
"-31 0 LINE"
);
},
{
closed = 1;
nodes = (
"412 461 LINE",
"444 272 LINE",
"300 272 LINE"
);
},
{
closed = 1;
nodes = (
"532 591 OFFCURVE",
"591 648 OFFCURVE",
"607 722 CURVE SMOOTH",
"609 733 OFFCURVE",
"611 744 OFFCURVE",
"611 754 CURVE SMOOTH",
"611 812 OFFCURVE",
"572 854 OFFCURVE",
"496 854 CURVE SMOOTH",
"404 854 OFFCURVE",
"346 796 OFFCURVE",
"330 722 CURVE SMOOTH",
"328 711 OFFCURVE",
"326 701 OFFCURVE",
"326 691 CURVE SMOOTH",
"326 632 OFFCURVE",
"366 591 OFFCURVE",
"440 591 CURVE SMOOTH"
);
},
{
closed = 1;
nodes = (
"422 668 OFFCURVE",
"410 684 OFFCURVE",
"410 706 CURVE SMOOTH",
"410 741 OFFCURVE",
"436 776 OFFCURVE",
"479 776 CURVE SMOOTH",
"513 776 OFFCURVE",
"526 759 OFFCURVE",
"526 737 CURVE SMOOTH",
"526 700 OFFCURVE",
"499 668 OFFCURVE",
"456 668 CURVE SMOOTH"
);
},
{
closed = 1;
nodes = (
"570 880 LINE",
"710 1065 LINE",
"564 1065 LINE",
"432 880 LINE"
);
}
);
width = 743;
}
);
leftKerningGroup = A;
note = Aringacute;
rightKerningGroup = A;
unicode = 01FA;
},
{
glyphname = Atilde;
lastChange = "2015-11-25 11:50:18 +0000";
layers = (
{
layerId = "D9861EBB-D268-4716-B046-FAB51EB1D86F";
name = "Bold Italic";
paths = (
{
closed = 1;
nodes = (
"165 0 LINE",
"247 137 LINE",
"443 137 LINE",
"466 0 LINE",
"662 0 LINE",
"551 644 LINE",
"352 644 LINE",
"-31 0 LINE"
);
},
{
closed = 1;
nodes = (
"412 461 LINE",
"444 272 LINE",
"300 272 LINE"
);
},
{
closed = 1;
nodes = (
"598 691 OFFCURVE",
"636 706 OFFCURVE",
"653 724 CURVE",
"678 843 LINE",
"658 820 OFFCURVE",
"622 803 OFFCURVE",
"580 803 CURVE SMOOTH",
"517 803 OFFCURVE",
"475 845 OFFCURVE",
"408 845 CURVE SMOOTH",
"369 845 OFFCURVE",
"329 830 OFFCURVE",
"306 812 CURVE",
"281 694 LINE",
"310 718 OFFCURVE",
"345 733 OFFCURVE",
"387 733 CURVE SMOOTH",
"442 733 OFFCURVE",
"493 691 OFFCURVE",
"559 691 CURVE SMOOTH"
);
}
);
width = 743;
}
);
leftKerningGroup = A;
note = Atilde;
rightKerningGroup = A;
unicode = 00C3;
},
{
glyphname = AE;
lastChange = "2015-11-25 11:50:17 +0000";
layers = (
{
layerId = "D9861EBB-D268-4716-B046-FAB51EB1D86F";
name = "Bold Italic";
paths = (
{
closed = 1;
nodes = (
"168 0 LINE",
"250 138 LINE",
"375 138 LINE",
"346 0 LINE",
"778 0 LINE",
"808 144 LINE",
"560 144 LINE",
"582 249 LINE",
"793 249 LINE",
"824 395 LINE",
"613 395 LINE",
"636 500 LINE",
"884 500 LINE",
"914 644 LINE",
"352 644 LINE",
"-31 0 LINE"
);
},
{
closed = 1;
nodes = (
"446 500 LINE",
"452 500 LINE",
"406 284 LINE",
"317 284 LINE"
);
}
);
width = 859;
}
);
leftKerningGroup = A;
note = AE;
rightKerningGroup = E;
unicode = 00C6;
},
{
glyphname = AEacute;
lastChange = "2015-11-25 11:50:16 +0000";
layers = (
{
layerId = "D9861EBB-D268-4716-B046-FAB51EB1D86F";
name = "Bold Italic";
paths = (
{
closed = 1;
nodes = (
"168 0 LINE",
"250 138 LINE",
"375 138 LINE",
"346 0 LINE",
"778 0 LINE",
"808 144 LINE",
"560 144 LINE",
"582 249 LINE",
"793 249 LINE",
"824 395 LINE",
"613 395 LINE",
"636 500 LINE",
"884 500 LINE",
"914 644 LINE",
"352 644 LINE",
"-31 0 LINE"
);
},
{
closed = 1;
nodes = (
"446 500 LINE",
"452 500 LINE",
"406 284 LINE",
"317 284 LINE"
);
},
{
closed = 1;
nodes = (
"645 688 LINE",
"785 894 LINE",
"639 894 LINE",
"507 688 LINE"
);
}
);
width = 859;
}
);
leftKerningGroup = A;
note = AEacute;
rightKerningGroup = E;
unicode = 01FC;
},
{
glyphname = B;
lastChange = "2015-11-25 11:50:18 +0000";
layers = (
{
layerId = "D9861EBB-D268-4716-B046-FAB51EB1D86F";
name = "Bold Italic";
paths = (
{
closed = 1;
nodes = (
"351 0 LINE SMOOTH",
"488 0 OFFCURVE",
"580 69 OFFCURVE",
"606 191 CURVE SMOOTH",
"609 206 OFFCURVE",
"611 220 OFFCURVE",
"611 232 CURVE SMOOTH",
"611 282 OFFCURVE",
"586 310 OFFCURVE",
"545 328 CURVE",
"591 354 OFFCURVE",
"628 399 OFFCURVE",
"642 466 CURVE SMOOTH",
"645 482 OFFCURVE",
"647 497 OFFCURVE",
"647 511 CURVE SMOOTH",
"647 594 OFFCURVE",
"590 644 OFFCURVE",
"479 644 CURVE SMOOTH",
"125 644 LINE",
"-11 0 LINE"
);
},
{
closed = 1;
nodes = (
"225 263 LINE",
"351 263 LINE SMOOTH",
"398 263 OFFCURVE",
"418 248 OFFCURVE",
"418 218 CURVE SMOOTH",
"418 213 OFFCURVE",
"417 207 OFFCURVE",
"416 200 CURVE SMOOTH",
"405 150 OFFCURVE",
"377 131 OFFCURVE",
"327 131 CURVE SMOOTH",
"197 131 LINE"
);
},
{
closed = 1;
nodes = (
"278 512 LINE",
"395 512 LINE SMOOTH",
"440 512 OFFCURVE",
"458 497 OFFCURVE",
"458 468 CURVE SMOOTH",
"458 463 OFFCURVE",
"458 456 OFFCURVE",
"456 449 CURVE SMOOTH",
"447 409 OFFCURVE",
"422 387 OFFCURVE",
"374 387 CURVE SMOOTH",
"252 387 LINE"
);
}
);
width = 647;
}
);
note = B;
unicode = 0042;
},
{
glyphname = C;
lastChange = "2015-11-25 11:50:17 +0000";
layers = (
{
layerId = "D9861EBB-D268-4716-B046-FAB51EB1D86F";
name = "Bold Italic";
paths = (
{
closed = 1;
nodes = (
"405 -10 OFFCURVE",
"468 2 OFFCURVE",
"530 22 CURVE",
"565 187 LINE",
"500 161 OFFCURVE",
"437 150 OFFCURVE",
"373 150 CURVE SMOOTH",
"264 150 OFFCURVE",
"220 182 OFFCURVE",
"220 256 CURVE SMOOTH",
"220 274 OFFCURVE",
"223 295 OFFCURVE",
"228 319 CURVE SMOOTH",
"254 442 OFFCURVE",
"324 494 OFFCURVE",
"445 494 CURVE SMOOTH",
"511 494 OFFCURVE",
"567 482 OFFCURVE",
"620 456 CURVE",
"655 620 LINE",
"602 641 OFFCURVE",
"546 654 OFFCURVE",
"466 654 CURVE SMOOTH",
"209 654 OFFCURVE",
"82 535 OFFCURVE",
"36 319 CURVE SMOOTH",
"30 289 OFFCURVE",
"27 262 OFFCURVE",
"27 236 CURVE SMOOTH",
"27 78 OFFCURVE",
"139 -10 OFFCURVE",
"325 -10 CURVE SMOOTH"
);
}
);
width = 607;
}
);
leftKerningGroup = C;
note = C;
unicode = 0043;
},
{
glyphname = Cacute;
lastChange = "2015-11-25 11:50:18 +0000";
layers = (
{
layerId = "D9861EBB-D268-4716-B046-FAB51EB1D86F";
name = "Bold Italic";
paths = (
{
closed = 1;
nodes = (
"405 -10 OFFCURVE",
"468 2 OFFCURVE",
"530 22 CURVE",
"565 187 LINE",
"500 161 OFFCURVE",
"437 150 OFFCURVE",
"373 150 CURVE SMOOTH",
"264 150 OFFCURVE",
"220 182 OFFCURVE",
"220 256 CURVE SMOOTH",
"220 274 OFFCURVE",
"223 295 OFFCURVE",
"228 319 CURVE SMOOTH",
"254 442 OFFCURVE",
"324 494 OFFCURVE",
"445 494 CURVE SMOOTH",
"511 494 OFFCURVE",
"567 482 OFFCURVE",
"620 456 CURVE",
"655 620 LINE",
"602 641 OFFCURVE",
"546 654 OFFCURVE",
"466 654 CURVE SMOOTH",
"209 654 OFFCURVE",
"82 535 OFFCURVE",
"36 319 CURVE SMOOTH",
"30 289 OFFCURVE",
"27 262 OFFCURVE",
"27 236 CURVE SMOOTH",
"27 78 OFFCURVE",
"139 -10 OFFCURVE",
"325 -10 CURVE SMOOTH"
);
},
{
closed = 1;
nodes = (
"526 688 LINE",
"666 894 LINE",
"520 894 LINE",
"388 688 LINE"
);
}
);
width = 607;
}
);
leftKerningGroup = C;
note = Cacute;
unicode = 0106;
},
{
glyphname = Ccaron;
lastChange = "2015-11-25 11:50:15 +0000";
layers = (
{
layerId = "D9861EBB-D268-4716-B046-FAB51EB1D86F";
name = "Bold Italic";
paths = (
{
closed = 1;
nodes = (
"405 -10 OFFCURVE",
"468 2 OFFCURVE",
"530 22 CURVE",
"565 187 LINE",
"500 161 OFFCURVE",
"437 150 OFFCURVE",
"373 150 CURVE SMOOTH",
"264 150 OFFCURVE",
"220 182 OFFCURVE",
"220 256 CURVE SMOOTH",
"220 274 OFFCURVE",
"223 295 OFFCURVE",
"228 319 CURVE SMOOTH",
"254 442 OFFCURVE",
"324 494 OFFCURVE",
"445 494 CURVE SMOOTH",
"511 494 OFFCURVE",
"567 482 OFFCURVE",
"620 456 CURVE",
"655 620 LINE",
"602 641 OFFCURVE",
"546 654 OFFCURVE",
"466 654 CURVE SMOOTH",
"209 654 OFFCURVE",
"82 535 OFFCURVE",
"36 319 CURVE SMOOTH",
"30 289 OFFCURVE",
"27 262 OFFCURVE",
"27 236 CURVE SMOOTH",
"27 78 OFFCURVE",
"139 -10 OFFCURVE",
"325 -10 CURVE SMOOTH"
);
},
{
closed = 1;
nodes = (
"510 688 LINE",
"707 888 LINE",
"566 888 LINE",
"467 779 LINE",
"418 888 LINE",
"284 888 LINE",
"396 688 LINE"
);
}
);
width = 607;
}
);
leftKerningGroup = C;
note = Ccaron;
unicode = 010C;
},
{
glyphname = Ccedilla;
lastChange = "2015-11-25 11:50:17 +0000";
layers = (
{
layerId = "D9861EBB-D268-4716-B046-FAB51EB1D86F";
name = "Bold Italic";
paths = (
{
closed = 1;
nodes = (
"369 -240 OFFCURVE",
"430 -201 OFFCURVE",
"444 -135 CURVE SMOOTH",
"446 -127 OFFCURVE",
"447 -119 OFFCURVE",
"447 -111 CURVE SMOOTH",
"447 -69 OFFCURVE",
"419 -41 OFFCURVE",
"352 -41 CURVE",
"371 -8 LINE",
"430 -5 OFFCURVE",
"480 6 OFFCURVE",
"530 22 CURVE",
"565 187 LINE",
"500 161 OFFCURVE",
"437 150 OFFCURVE",
"373 150 CURVE SMOOTH",
"264 150 OFFCURVE",
"220 182 OFFCURVE",
"220 256 CURVE SMOOTH",
"220 274 OFFCURVE",
"223 295 OFFCURVE",
"228 319 CURVE SMOOTH",
"254 442 OFFCURVE",
"324 494 OFFCURVE",
"445 494 CURVE SMOOTH",
"511 494 OFFCURVE",
"567 482 OFFCURVE",
"620 456 CURVE",
"655 620 LINE",
"602 641 OFFCURVE",
"546 654 OFFCURVE",
"466 654 CURVE SMOOTH",
"209 654 OFFCURVE",
"82 535 OFFCURVE",
"36 319 CURVE SMOOTH",
"30 289 OFFCURVE",
"27 261 OFFCURVE",
"27 235 CURVE SMOOTH",
"27 94 OFFCURVE",
"116 9 OFFCURVE",
"269 -7 CURVE",
"223 -101 LINE",
"286 -101 LINE SMOOTH",
"314 -101 OFFCURVE",
"334 -104 OFFCURVE",
"334 -124 CURVE SMOOTH",
"334 -156 OFFCURVE",
"310 -166 OFFCURVE",
"254 -166 CURVE SMOOTH",
"234 -166 OFFCURVE",
"214 -163 OFFCURVE",
"197 -158 CURVE",
"181 -232 LINE",
"195 -236 OFFCURVE",
"237 -240 OFFCURVE",
"261 -240 CURVE SMOOTH"
);
}
);
width = 607;
}
);
leftKerningGroup = C;
note = Ccedilla;
unicode = 00C7;
},
{
glyphname = Ccircumflex;
lastChange = "2015-11-25 11:50:17 +0000";
layers = (
{
layerId = "D9861EBB-D268-4716-B046-FAB51EB1D86F";
name = "Bold Italic";
paths = (
{
closed = 1;
nodes = (
"405 -10 OFFCURVE",
"468 2 OFFCURVE",
"530 22 CURVE",
"565 187 LINE",
"500 161 OFFCURVE",
"437 150 OFFCURVE",
"373 150 CURVE SMOOTH",
"264 150 OFFCURVE",
"220 182 OFFCURVE",
"220 256 CURVE SMOOTH",
"220 274 OFFCURVE",
"223 295 OFFCURVE",
"228 319 CURVE SMOOTH",
"254 442 OFFCURVE",
"324 494 OFFCURVE",
"445 494 CURVE SMOOTH",
"511 494 OFFCURVE",
"567 482 OFFCURVE",
"620 456 CURVE",
"655 620 LINE",
"602 641 OFFCURVE",
"546 654 OFFCURVE",
"466 654 CURVE SMOOTH",
"209 654 OFFCURVE",
"82 535 OFFCURVE",
"36 319 CURVE SMOOTH",
"30 289 OFFCURVE",
"27 262 OFFCURVE",
"27 236 CURVE SMOOTH",
"27 78 OFFCURVE",
"139 -10 OFFCURVE",
"325 -10 CURVE SMOOTH"
);
},
{
closed = 1;
nodes = (
"372 688 LINE",
"465 796 LINE",
"519 688 LINE",
"650 688 LINE",
"537 888 LINE",
"423 888 LINE",
"227 688 LINE"
);
}
);
width = 607;
}
);
leftKerningGroup = C;
note = Ccircumflex;
unicode = 0108;
},
{
glyphname = Cdotaccent;
lastChange = "2015-11-25 11:50:17 +0000";
layers = (
{
layerId = "D9861EBB-D268-4716-B046-FAB51EB1D86F";
name = "Bold Italic";
paths = (
{
closed = 1;
nodes = (
"405 -10 OFFCURVE",
"468 2 OFFCURVE",
"530 22 CURVE",
"565 187 LINE",
"500 161 OFFCURVE",
"437 150 OFFCURVE",
"373 150 CURVE SMOOTH",
"264 150 OFFCURVE",
"220 182 OFFCURVE",
"220 256 CURVE SMOOTH",
"220 274 OFFCURVE",
"223 295 OFFCURVE",
"228 319 CURVE SMOOTH",
"254 442 OFFCURVE",
"324 494 OFFCURVE",
"445 494 CURVE SMOOTH",
"511 494 OFFCURVE",
"567 482 OFFCURVE",
"620 456 CURVE",
"655 620 LINE",
"602 641 OFFCURVE",
"546 654 OFFCURVE",
"466 654 CURVE SMOOTH",
"209 654 OFFCURVE",
"82 535 OFFCURVE",
"36 319 CURVE SMOOTH",
"30 289 OFFCURVE",
"27 262 OFFCURVE",
"27 236 CURVE SMOOTH",
"27 78 OFFCURVE",
"139 -10 OFFCURVE",
"325 -10 CURVE SMOOTH"
);
},
{
closed = 1;
nodes = (
"521 715 LINE",
"547 835 LINE",
"417 835 LINE",
"391 715 LINE"
);
}
);
width = 607;
}
);
leftKerningGroup = C;
note = Cdotaccent;
unicode = 010A;
},
{
glyphname = D;
lastChange = "2015-11-25 11:50:15 +0000";
layers = (
{
layerId = "D9861EBB-D268-4716-B046-FAB51EB1D86F";
name = "Bold Italic";
paths = (
{
closed = 1;
nodes = (
"284 0 LINE SMOOTH",
"504 0 OFFCURVE",
"612 96 OFFCURVE",
"657 318 CURVE SMOOTH",
"664 351 OFFCURVE",
"667 382 OFFCURVE",
"667 410 CURVE SMOOTH",
"667 570 OFFCURVE",
"563 644 OFFCURVE",
"413 644 CURVE SMOOTH",
"125 644 LINE",
"-11 0 LINE"
);
},
{
closed = 1;
nodes = (
"283 500 LINE",
"359 500 LINE SMOOTH",
"440 500 OFFCURVE",
"476 478 OFFCURVE",
"476 406 CURVE SMOOTH",
"476 382 OFFCURVE",
"472 353 OFFCURVE",
"465 318 CURVE SMOOTH",
"435 175 OFFCURVE",
"376 144 OFFCURVE",
"283 144 CURVE SMOOTH",
"207 144 LINE"
);
}
);
width = 671;
}
);
note = D;
rightKerningGroup = D;
unicode = 0044;
},
{
glyphname = Eth;
lastChange = "2015-11-25 11:50:16 +0000";
layers = (
{
layerId = "D9861EBB-D268-4716-B046-FAB51EB1D86F";
name = "Bold Italic";
paths = (
{
closed = 1;
nodes = (
"303 0 LINE SMOOTH",
"523 0 OFFCURVE",
"631 96 OFFCURVE",
"676 318 CURVE SMOOTH",
"683 351 OFFCURVE",
"686 382 OFFCURVE",
"686 410 CURVE SMOOTH",
"686 570 OFFCURVE",
"582 644 OFFCURVE",
"432 644 CURVE SMOOTH",
"144 644 LINE",
"8 0 LINE"
);
},
{
closed = 1;
nodes = (
"371 251 LINE",
"398 380 LINE",
"29 380 LINE",
"2 251 LINE"
);
},
{
closed = 1;
nodes = (
"302 500 LINE",
"378 500 LINE SMOOTH",
"459 500 OFFCURVE",
"495 478 OFFCURVE",
"495 406 CURVE SMOOTH",
"495 382 OFFCURVE",
"491 353 OFFCURVE",
"484 318 CURVE SMOOTH",
"454 175 OFFCURVE",
"395 144 OFFCURVE",
"302 144 CURVE SMOOTH",
"226 144 LINE"
);
}
);
width = 710;
}
);
note = Eth;
rightKerningGroup = D;
unicode = 00D0;
},
{
glyphname = Dcaron;
lastChange = "2015-11-25 11:50:17 +0000";
layers = (
{
layerId = "D9861EBB-D268-4716-B046-FAB51EB1D86F";
name = "Bold Italic";
paths = (
{
closed = 1;
nodes = (
"284 0 LINE SMOOTH",
"504 0 OFFCURVE",
"612 96 OFFCURVE",
"657 318 CURVE SMOOTH",
"664 351 OFFCURVE",
"667 382 OFFCURVE",
"667 410 CURVE SMOOTH",
"667 570 OFFCURVE",
"563 644 OFFCURVE",
"413 644 CURVE SMOOTH",
"125 644 LINE",
"-11 0 LINE"
);
},
{
closed = 1;
nodes = (
"283 500 LINE",
"359 500 LINE SMOOTH",
"440 500 OFFCURVE",
"476 478 OFFCURVE",
"476 406 CURVE SMOOTH",
"476 382 OFFCURVE",
"472 353 OFFCURVE",
"465 318 CURVE SMOOTH",
"435 175 OFFCURVE",
"376 144 OFFCURVE",
"283 144 CURVE SMOOTH",
"207 144 LINE"
);
},
{
closed = 1;
nodes = (
"443 688 LINE",
"640 888 LINE",
"499 888 LINE",
"400 779 LINE",
"351 888 LINE",
"217 888 LINE",
"329 688 LINE"
);
}
);
width = 671;
}
);
note = Dcaron;
rightKerningGroup = D;
unicode = 010E;
},
{
glyphname = Dcroat;
lastChange = "2015-11-25 11:50:16 +0000";
layers = (
{
layerId = "D9861EBB-D268-4716-B046-FAB51EB1D86F";
name = "Bold Italic";
paths = (
{
closed = 1;
nodes = (
"303 0 LINE SMOOTH",
"523 0 OFFCURVE",
"631 96 OFFCURVE",
"676 318 CURVE SMOOTH",
"683 351 OFFCURVE",
"686 382 OFFCURVE",
"686 410 CURVE SMOOTH",
"686 570 OFFCURVE",
"582 644 OFFCURVE",
"432 644 CURVE SMOOTH",
"144 644 LINE",
"8 0 LINE"
);
},
{
closed = 1;
nodes = (
"371 251 LINE",
"398 380 LINE",
"29 380 LINE",
"2 251 LINE"
);
},
{
closed = 1;
nodes = (
"302 500 LINE",
"378 500 LINE SMOOTH",
"459 500 OFFCURVE",
"495 478 OFFCURVE",
"495 406 CURVE SMOOTH",
"495 382 OFFCURVE",
"491 353 OFFCURVE",
"484 318 CURVE SMOOTH",
"454 175 OFFCURVE",
"395 144 OFFCURVE",
"302 144 CURVE SMOOTH",
"226 144 LINE"
);
}
);
width = 710;
}
);
note = Dcroat;
rightKerningGroup = D;
unicode = 0110;
},
{
glyphname = Ddotbelow;
lastChange = "2015-11-25 11:50:17 +0000";
layers = (
{
layerId = "D9861EBB-D268-4716-B046-FAB51EB1D86F";
name = "Bold Italic";
paths = (
{
closed = 1;
nodes = (
"284 0 LINE SMOOTH",
"504 0 OFFCURVE",
"612 96 OFFCURVE",
"657 318 CURVE SMOOTH",
"664 351 OFFCURVE",
"667 382 OFFCURVE",
"667 410 CURVE SMOOTH",
"667 570 OFFCURVE",
"563 644 OFFCURVE",
"413 644 CURVE SMOOTH",
"125 644 LINE",
"-11 0 LINE"
);
},
{
closed = 1;
nodes = (
"248 -197 LINE",
"273 -77 LINE",
"143 -77 LINE",
"118 -197 LINE"
);
},
{
closed = 1;
nodes = (
"283 500 LINE",
"359 500 LINE SMOOTH",
"440 500 OFFCURVE",
"476 478 OFFCURVE",
"476 406 CURVE SMOOTH",
"476 382 OFFCURVE",
"472 353 OFFCURVE",
"465 318 CURVE SMOOTH",
"435 175 OFFCURVE",
"376 144 OFFCURVE",
"283 144 CURVE SMOOTH",
"207 144 LINE"
);
}
);
width = 671;
}
);
note = Ddotbelow;
rightKerningGroup = D;
unicode = 1E0C;
},
{
glyphname = Dlinebelow;
lastChange = "2015-11-25 11:50:15 +0000";
layers = (
{
layerId = "D9861EBB-D268-4716-B046-FAB51EB1D86F";
name = "Bold Italic";
paths = (
{
closed = 1;
nodes = (
"284 0 LINE SMOOTH",
"504 0 OFFCURVE",
"612 96 OFFCURVE",
"657 318 CURVE SMOOTH",
"664 351 OFFCURVE",
"667 382 OFFCURVE",
"667 410 CURVE SMOOTH",
"667 570 OFFCURVE",
"563 644 OFFCURVE",
"413 644 CURVE SMOOTH",
"125 644 LINE",
"-11 0 LINE"
);
},
{
closed = 1;
nodes = (
"396 -176 LINE",
"420 -64 LINE",
"93 -64 LINE",
"69 -176 LINE"
);
},
{
closed = 1;
nodes = (
"283 500 LINE",
"359 500 LINE SMOOTH",
"440 500 OFFCURVE",
"476 478 OFFCURVE",
"476 406 CURVE SMOOTH",
"476 382 OFFCURVE",
"472 353 OFFCURVE",
"465 318 CURVE SMOOTH",
"435 175 OFFCURVE",
"376 144 OFFCURVE",
"283 144 CURVE SMOOTH",
"207 144 LINE"
);
}
);
width = 671;
}
);
note = Dlinebelow;
rightKerningGroup = D;
unicode = 1E0E;
},
{
glyphname = E;
lastChange = "2015-11-25 11:50:54 +0000";
layers = (
{
layerId = "D9861EBB-D268-4716-B046-FAB51EB1D86F";
name = "Bold Italic";
paths = (
{
closed = 1;
nodes = (
"477 0 LINE",
"507 144 LINE",
"207 144 LINE",
"229 249 LINE",
"492 249 LINE",
"523 395 LINE",
"260 395 LINE",
"283 500 LINE",
"583 500 LINE",
"613 644 LINE",
"125 644 LINE",
"-11 0 LINE"
);
}
);
width = 558;
}
);
note = E;
unicode = 0045;
},
{
glyphname = Eacute;
lastChange = "2015-11-25 11:50:51 +0000";
layers = (
{
layerId = "D9861EBB-D268-4716-B046-FAB51EB1D86F";
name = "Bold Italic";
paths = (
{
closed = 1;
nodes = (
"477 0 LINE",
"507 144 LINE",
"207 144 LINE",
"229 249 LINE",
"492 249 LINE",
"523 395 LINE",
"260 395 LINE",
"283 500 LINE",
"583 500 LINE",
"613 644 LINE",
"125 644 LINE",
"-11 0 LINE"
);
},
{
closed = 1;
nodes = (
"429 688 LINE",
"569 894 LINE",
"423 894 LINE",
"291 688 LINE"
);
}
);
width = 558;
}
);
note = Eacute;
unicode = 00C9;
},
{
glyphname = Ebreve;
lastChange = "2015-11-25 11:50:17 +0000";
layers = (
{
layerId = "D9861EBB-D268-4716-B046-FAB51EB1D86F";
name = "Bold Italic";
paths = (
{
closed = 1;
nodes = (
"477 0 LINE",
"507 144 LINE",
"207 144 LINE",
"229 249 LINE",
"492 249 LINE",
"523 395 LINE",
"260 395 LINE",
"283 500 LINE",
"583 500 LINE",
"613 644 LINE",
"125 644 LINE",
"-11 0 LINE"
);
},
{
closed = 1;
nodes = (
"495 689 OFFCURVE",
"585 755 OFFCURVE",
"611 876 CURVE",
"484 876 LINE",
"474 827 OFFCURVE",
"449 792 OFFCURVE",
"398 792 CURVE SMOOTH",
"359 792 OFFCURVE",
"345 812 OFFCURVE",
"345 844 CURVE SMOOTH",
"345 853 OFFCURVE",
"347 864 OFFCURVE",
"349 876 CURVE",
"233 876 LINE",
"229 858 OFFCURVE",
"227 840 OFFCURVE",
"227 824 CURVE SMOOTH",
"227 736 OFFCURVE",
"286 689 OFFCURVE",
"381 689 CURVE SMOOTH"
);
}
);
width = 558;
}
);
note = Ebreve;
unicode = 0114;
},
{
glyphname = Ecaron;
lastChange = "2015-11-25 11:50:18 +0000";
layers = (
{
layerId = "D9861EBB-D268-4716-B046-FAB51EB1D86F";
name = "Bold Italic";
paths = (
{
closed = 1;
nodes = (
"477 0 LINE",
"507 144 LINE",
"207 144 LINE",
"229 249 LINE",
"492 249 LINE",
"523 395 LINE",
"260 395 LINE",
"283 500 LINE",
"583 500 LINE",
"613 644 LINE",
"125 644 LINE",
"-11 0 LINE"
);
},
{
closed = 1;
nodes = (
"443 688 LINE",
"640 888 LINE",
"499 888 LINE",
"400 779 LINE",
"351 888 LINE",
"217 888 LINE",
"329 688 LINE"
);
}
);
width = 558;
}
);
note = Ecaron;
unicode = 011A;
},
{
glyphname = Ecircumflex;
lastChange = "2015-11-25 11:51:06 +0000";
layers = (
{
layerId = "D9861EBB-D268-4716-B046-FAB51EB1D86F";
name = "Bold Italic";
paths = (
{
closed = 1;
nodes = (
"477 0 LINE",
"507 144 LINE",
"207 144 LINE",
"229 249 LINE",
"492 249 LINE",
"523 395 LINE",
"260 395 LINE",
"283 500 LINE",
"583 500 LINE",
"613 644 LINE",
"125 644 LINE",
"-11 0 LINE"
);
},
{
closed = 1;
nodes = (
"314 688 LINE",
"407 796 LINE",
"461 688 LINE",
"592 688 LINE",
"479 888 LINE",
"365 888 LINE",
"169 688 LINE"
);
}
);
width = 558;
}
);
note = Ecircumflex;
unicode = 00CA;
},
{
glyphname = Ecircumflexacute;
lastChange = "2015-11-25 11:51:15 +0000";
layers = (
{
layerId = "D9861EBB-D268-4716-B046-FAB51EB1D86F";
name = "Bold Italic";
paths = (
{
closed = 1;
nodes = (
"477 0 LINE",
"507 144 LINE",
"207 144 LINE",
"229 249 LINE",
"492 249 LINE",
"523 395 LINE",
"260 395 LINE",
"283 500 LINE",
"583 500 LINE",
"613 644 LINE",
"125 644 LINE",
"-11 0 LINE"
);
},
{
closed = 1;
nodes = (
"300 688 LINE",
"379 767 LINE",
"424 688 LINE",
"570 688 LINE",
"461 840 LINE",
"323 840 LINE",
"148 688 LINE"
);
},
{
closed = 1;
nodes = (
"639 813 LINE",
"750 969 LINE",
"611 969 LINE",
"508 813 LINE"
);
}
);
width = 558;
}
);
note = Ecircumflexacute;
unicode = 1EBE;
},
{
glyphname = Ecircumflexdotbelow;
lastChange = "2015-11-25 11:51:29 +0000";
layers = (
{
layerId = "D9861EBB-D268-4716-B046-FAB51EB1D86F";
name = "Bold Italic";
paths = (
{
closed = 1;
nodes = (
"477 0 LINE",
"507 144 LINE",
"207 144 LINE",
"229 249 LINE",
"492 249 LINE",
"523 395 LINE",
"260 395 LINE",
"283 500 LINE",
"583 500 LINE",
"613 644 LINE",
"125 644 LINE",
"-11 0 LINE"
);
},
{
closed = 1;
nodes = (
"253 -176 LINE",
"278 -56 LINE",
"148 -56 LINE",
"123 -176 LINE"
);
},
{
closed = 1;
nodes = (
"305 688 LINE",
"398 796 LINE",
"452 688 LINE",
"583 688 LINE",
"470 888 LINE",
"356 888 LINE",
"160 688 LINE"
);
}
);
width = 558;
}
);
note = Ecircumflexdotbelow;
unicode = 1EC6;
},
{
glyphname = Ecircumflexgrave;
lastChange = "2015-11-25 11:51:34 +0000";
layers = (
{
layerId = "D9861EBB-D268-4716-B046-FAB51EB1D86F";
name = "Bold Italic";
paths = (
{
closed = 1;
nodes = (
"477 0 LINE",
"507 144 LINE",
"207 144 LINE",
"229 249 LINE",
"492 249 LINE",
"523 395 LINE",
"260 395 LINE",
"283 500 LINE",
"583 500 LINE",
"613 644 LINE",
"125 644 LINE",
"-11 0 LINE"
);
},
{
closed = 1;
nodes = (
"278 813 LINE",
"240 969 LINE",
"101 969 LINE",
"146 813 LINE"
);
},
{
closed = 1;
nodes = (
"314 688 LINE",
"393 767 LINE",
"438 688 LINE",
"583 688 LINE",
"475 840 LINE",
"337 840 LINE",
"162 688 LINE"
);
}
);
width = 558;
}
);
note = Ecircumflexgrave;
unicode = 1EC0;
},
{
glyphname = Ecircumflexhookabove;
lastChange = "2015-11-25 11:51:42 +0000";
layers = (
{
layerId = "D9861EBB-D268-4716-B046-FAB51EB1D86F";
name = "Bold Italic";
paths = (
{
closed = 1;
nodes = (
"477 0 LINE",
"507 144 LINE",
"207 144 LINE",
"229 249 LINE",
"492 249 LINE",
"523 395 LINE",
"260 395 LINE",
"283 500 LINE",
"583 500 LINE",
"613 644 LINE",
"125 644 LINE",
"-11 0 LINE"
);
},
{
closed = 1;
nodes = (
"307 688 LINE",
"386 767 LINE",
"431 688 LINE",
"576 688 LINE",
"468 840 LINE",
"330 840 LINE",
"155 688 LINE"
);
},
{
closed = 1;
nodes = (
"644 790 LINE",
"651 823 LINE",
"703 831 OFFCURVE",
"732 862 OFFCURVE",
"742 907 CURVE SMOOTH",
"743 914 OFFCURVE",
"744 920 OFFCURVE",
"744 926 CURVE SMOOTH",
"744 968 OFFCURVE",
"711 993 OFFCURVE",
"640 993 CURVE SMOOTH",
"601 993 OFFCURVE",
"565 988 OFFCURVE",
"540 981 CURVE",
"524 909 LINE",
"540 913 OFFCURVE",
"558 916 OFFCURVE",
"576 916 CURVE SMOOTH",
"602 916 OFFCURVE",
"616 910 OFFCURVE",
"613 894 CURVE",
"609 877 OFFCURVE",
"594 864 OFFCURVE",
"535 863 CURVE",
"520 790 LINE"
);
}
);
width = 558;
}
);
note = Ecircumflexhookabove;
unicode = 1EC2;
},
{
glyphname = Ecircumflextilde;
lastChange = "2015-11-25 11:50:15 +0000";
layers = (
{
layerId = "D9861EBB-D268-4716-B046-FAB51EB1D86F";
name = "Bold Italic";
paths = (
{
closed = 1;
nodes = (
"477 0 LINE",
"507 144 LINE",
"207 144 LINE",
"229 249 LINE",
"492 249 LINE",
"523 395 LINE",
"260 395 LINE",
"283 500 LINE",
"583 500 LINE",
"613 644 LINE",
"125 644 LINE",
"-11 0 LINE"
);
},
{
closed = 1;
nodes = (
"317 688 LINE",
"396 767 LINE",
"441 688 LINE",
"586 688 LINE",
"478 840 LINE",
"340 840 LINE",
"165 688 LINE"
);
},
{
closed = 1;
nodes = (
"551 855 OFFCURVE",
"587 870 OFFCURVE",
"604 887 CURVE",
"626 993 LINE",
"605 970 OFFCURVE",
"571 954 OFFCURVE",
"530 954 CURVE SMOOTH",
"470 954 OFFCURVE",
"427 995 OFFCURVE",
"362 995 CURVE SMOOTH",
"324 995 OFFCURVE",
"286 981 OFFCURVE",
"264 963 CURVE",
"241 858 LINE",
"269 882 OFFCURVE",
"303 896 OFFCURVE",
"344 896 CURVE SMOOTH",
"398 896 OFFCURVE",
"449 855 OFFCURVE",
"512 855 CURVE SMOOTH"
);
}
);
width = 558;
}
);
note = Ecircumflextilde;
unicode = 1EC4;
},
{
glyphname = Edieresis;
lastChange = "2015-11-25 11:50:17 +0000";
layers = (
{
layerId = "D9861EBB-D268-4716-B046-FAB51EB1D86F";
name = "Bold Italic";
paths = (
{
closed = 1;
nodes = (
"477 0 LINE",
"507 144 LINE",
"207 144 LINE",
"229 249 LINE",
"492 249 LINE",
"523 395 LINE",
"260 395 LINE",
"283 500 LINE",
"583 500 LINE",
"613 644 LINE",
"125 644 LINE",
"-11 0 LINE"
);
},
{
closed = 1;
nodes = (
"346 715 LINE",
"372 835 LINE",
"242 835 LINE",
"216 715 LINE"
);
},
{
closed = 1;
nodes = (
"562 715 LINE",
"588 835 LINE",
"457 835 LINE",
"431 715 LINE"
);
}
);
width = 558;
}
);
note = Edieresis;
unicode = 00CB;
},
{
glyphname = Edotaccent;
lastChange = "2015-11-25 11:50:17 +0000";
layers = (
{
layerId = "D9861EBB-D268-4716-B046-FAB51EB1D86F";
name = "Bold Italic";
paths = (
{
closed = 1;
nodes = (
"477 0 LINE",
"507 144 LINE",
"207 144 LINE",
"229 249 LINE",
"492 249 LINE",
"523 395 LINE",
"260 395 LINE",
"283 500 LINE",
"583 500 LINE",
"613 644 LINE",
"125 644 LINE",
"-11 0 LINE"
);
},
{
closed = 1;
nodes = (
"447 715 LINE",
"473 835 LINE",
"343 835 LINE",
"317 715 LINE"
);
}
);
width = 558;
}
);
note = Edotaccent;
unicode = 0116;
},
{
glyphname = Edotbelow;
lastChange = "2015-11-25 11:50:15 +0000";
layers = (
{
layerId = "D9861EBB-D268-4716-B046-FAB51EB1D86F";
name = "Bold Italic";
paths = (
{
closed = 1;
nodes = (
"477 0 LINE",
"507 144 LINE",
"207 144 LINE",
"229 249 LINE",
"492 249 LINE",
"523 395 LINE",
"260 395 LINE",
"283 500 LINE",
"583 500 LINE",
"613 644 LINE",
"125 644 LINE",
"-11 0 LINE"
);
},
{
closed = 1;
nodes = (
"251 -176 LINE",
"276 -56 LINE",
"146 -56 LINE",
"121 -176 LINE"
);
}
);
width = 558;
}
);
note = Edotbelow;
unicode = 1EB8;
},
{
glyphname = Egrave;
lastChange = "2015-11-25 11:50:18 +0000";
layers = (
{
layerId = "D9861EBB-D268-4716-B046-FAB51EB1D86F";
name = "Bold Italic";
paths = (
{
closed = 1;
nodes = (
"477 0 LINE",
"507 144 LINE",
"207 144 LINE",
"229 249 LINE",
"492 249 LINE",
"523 395 LINE",
"260 395 LINE",
"283 500 LINE",
"583 500 LINE",
"613 644 LINE",
"125 644 LINE",
"-11 0 LINE"
);
},
{
closed = 1;
nodes = (
"466 688 LINE",
"422 894 LINE",
"275 894 LINE",
"328 688 LINE"
);
}
);
width = 558;
}
);
note = Egrave;
unicode = 00C8;
},
{
glyphname = Ehookabove;
lastChange = "2015-11-25 11:50:16 +0000";
layers = (
{
layerId = "D9861EBB-D268-4716-B046-FAB51EB1D86F";
name = "Bold Italic";
paths = (
{
closed = 1;
nodes = (
"477 0 LINE",
"507 144 LINE",
"207 144 LINE",
"229 249 LINE",
"492 249 LINE",
"523 395 LINE",
"260 395 LINE",
"283 500 LINE",
"583 500 LINE",
"613 644 LINE",
"125 644 LINE",
"-11 0 LINE"
);
},
{
closed = 1;
nodes = (
"444 687 LINE",
"453 728 LINE",
"512 744 OFFCURVE",
"546 770 OFFCURVE",
"558 828 CURVE SMOOTH",
"560 835 OFFCURVE",
"560 842 OFFCURVE",
"560 849 CURVE SMOOTH",
"560 897 OFFCURVE",
"519 929 OFFCURVE",
"439 929 CURVE SMOOTH",
"391 929 OFFCURVE",
"351 924 OFFCURVE",
"321 915 CURVE",
"304 837 LINE",
"321 841 OFFCURVE",
"346 845 OFFCURVE",
"365 845 CURVE SMOOTH",
"404 845 OFFCURVE",
"423 835 OFFCURVE",
"418 812 CURVE SMOOTH",
"413 787 OFFCURVE",
"390 772 OFFCURVE",
"321 768 CURVE",
"303 687 LINE"
);
}
);
width = 558;
}
);
note = Ehookabove;
unicode = 1EBA;
},
{
glyphname = Emacron;
lastChange = "2015-11-25 11:50:18 +0000";
layers = (
{
layerId = "D9861EBB-D268-4716-B046-FAB51EB1D86F";
name = "Bold Italic";
paths = (
{
closed = 1;
nodes = (
"477 0 LINE",
"507 144 LINE",
"207 144 LINE",
"229 249 LINE",
"492 249 LINE",
"523 395 LINE",
"260 395 LINE",
"283 500 LINE",
"583 500 LINE",
"613 644 LINE",
"125 644 LINE",
"-11 0 LINE"
);
},
{
closed = 1;
nodes = (
"540 724 LINE",
"564 836 LINE",
"237 836 LINE",
"213 724 LINE"
);
}
);
width = 558;
}
);
note = Emacron;
unicode = 0112;
},
{
glyphname = Eogonek;
lastChange = "2015-11-25 11:50:18 +0000";
layers = (
{
layerId = "D9861EBB-D268-4716-B046-FAB51EB1D86F";
name = "Bold Italic";
paths = (
{
closed = 1;
nodes = (
"370 -220 OFFCURVE",
"411 -212 OFFCURVE",
"433 -204 CURVE",
"451 -118 LINE",
"438 -125 OFFCURVE",
"416 -129 OFFCURVE",
"399 -129 CURVE SMOOTH",
"377 -129 OFFCURVE",
"364 -119 OFFCURVE",
"364 -101 CURVE SMOOTH",
"364 -97 OFFCURVE",
"365 -93 OFFCURVE",
"366 -89 CURVE SMOOTH",
"373 -55 OFFCURVE",
"402 -26 OFFCURVE",
"442 0 CURVE",
"477 0 LINE",
"507 144 LINE",
"207 144 LINE",
"229 249 LINE",
"492 249 LINE",
"523 395 LINE",
"260 395 LINE",
"283 500 LINE",
"583 500 LINE",
"613 644 LINE",
"125 644 LINE",
"-11 0 LINE",
"317 0 LINE",
"268 -28 OFFCURVE",
"228 -72 OFFCURVE",
"217 -123 CURVE SMOOTH",
"215 -131 OFFCURVE",
"215 -138 OFFCURVE",
"215 -144 CURVE SMOOTH",
"215 -196 OFFCURVE",
"262 -220 OFFCURVE",
"329 -220 CURVE SMOOTH"
);
}
);
width = 558;
}
);
note = Eogonek;
unicode = 0118;
},
{
glyphname = Etilde;
lastChange = "2015-11-25 11:50:17 +0000";
layers = (
{
layerId = "D9861EBB-D268-4716-B046-FAB51EB1D86F";
name = "Bold Italic";
paths = (
{
closed = 1;
nodes = (
"477 0 LINE",
"507 144 LINE",
"207 144 LINE",
"229 249 LINE",
"492 249 LINE",
"523 395 LINE",
"260 395 LINE",
"283 500 LINE",
"583 500 LINE",
"613 644 LINE",
"125 644 LINE",
"-11 0 LINE"
);
},
{
closed = 1;
nodes = (
"521 696 OFFCURVE",
"559 711 OFFCURVE",
"576 729 CURVE",
"601 848 LINE",
"581 825 OFFCURVE",
"545 808 OFFCURVE",
"503 808 CURVE SMOOTH",
"440 808 OFFCURVE",
"398 850 OFFCURVE",
"331 850 CURVE SMOOTH",
"292 850 OFFCURVE",
"252 835 OFFCURVE",
"229 817 CURVE",
"204 699 LINE",
"233 723 OFFCURVE",
"268 738 OFFCURVE",
"310 738 CURVE SMOOTH",
"365 738 OFFCURVE",
"416 696 OFFCURVE",
"482 696 CURVE SMOOTH"
);
}
);
width = 558;
}
);
note = Etilde;
unicode = 1EBC;
},
{
glyphname = F;
lastChange = "2015-11-25 11:50:16 +0000";
layers = (
{
layerId = "D9861EBB-D268-4716-B046-FAB51EB1D86F";
name = "Bold Italic";
paths = (
{
closed = 1;
nodes = (
"177 0 LINE",
"230 251 LINE",
"488 251 LINE",
"518 393 LINE",
"260 393 LINE",
"284 504 LINE",
"580 504 LINE",
"609 644 LINE",
"125 644 LINE",
"-11 0 LINE"
);
}
);
width = 534;
}
);
note = F;
unicode = 0046;
},
{
glyphname = G;
lastChange = "2015-11-25 11:50:15 +0000";
layers = (
{
layerId = "D9861EBB-D268-4716-B046-FAB51EB1D86F";
name = "Bold Italic";
paths = (
{
closed = 1;
nodes = (
"437 -10 OFFCURVE",
"524 18 OFFCURVE",
"580 49 CURVE",
"649 373 LINE",
"364 373 LINE",
"339 257 LINE",
"467 257 LINE",
"447 163 LINE",
"418 155 OFFCURVE",
"386 150 OFFCURVE",
"352 150 CURVE SMOOTH",
"256 150 OFFCURVE",
"219 180 OFFCURVE",
"219 248 CURVE SMOOTH",
"219 267 OFFCURVE",
"222 290 OFFCURVE",
"228 316 CURVE SMOOTH",
"254 441 OFFCURVE",
"337 494 OFFCURVE",
"452 494 CURVE SMOOTH",
"517 494 OFFCURVE",
"578 487 OFFCURVE",
"632 465 CURVE",
"667 626 LINE",
"613 645 OFFCURVE",
"553 654 OFFCURVE",
"473 654 CURVE SMOOTH",
"219 654 OFFCURVE",
"82 532 OFFCURVE",
"36 316 CURVE SMOOTH",
"30 287 OFFCURVE",
"27 259 OFFCURVE",
"27 234 CURVE SMOOTH",
"27 76 OFFCURVE",
"142 -10 OFFCURVE",
"318 -10 CURVE SMOOTH"
);
}
);
width = 651;
}
);
leftKerningGroup = C;
note = G;
unicode = 0047;
},
{
glyphname = Gbreve;
lastChange = "2015-11-25 11:52:03 +0000";
layers = (
{
layerId = "D9861EBB-D268-4716-B046-FAB51EB1D86F";
name = "Bold Italic";
paths = (
{
closed = 1;
nodes = (
"437 -10 OFFCURVE",
"524 18 OFFCURVE",
"580 49 CURVE",
"649 373 LINE",
"364 373 LINE",
"339 257 LINE",
"467 257 LINE",
"447 163 LINE",
"418 155 OFFCURVE",
"386 150 OFFCURVE",
"352 150 CURVE SMOOTH",
"256 150 OFFCURVE",
"219 180 OFFCURVE",
"219 248 CURVE SMOOTH",
"219 392 OFFCURVE",
"301 494 OFFCURVE",
"452 494 CURVE SMOOTH",
"517 494 OFFCURVE",
"578 487 OFFCURVE",
"632 465 CURVE",
"667 626 LINE",
"613 645 OFFCURVE",
"553 654 OFFCURVE",
"473 654 CURVE SMOOTH",
"205 654 OFFCURVE",
"27 493 OFFCURVE",
"27 234 CURVE SMOOTH",
"27 76 OFFCURVE",
"142 -10 OFFCURVE",
"318 -10 CURVE SMOOTH"
);
},
{
closed = 1;
nodes = (
"580 689 OFFCURVE",
"670 755 OFFCURVE",
"696 876 CURVE",
"569 876 LINE",
"559 827 OFFCURVE",
"534 792 OFFCURVE",
"483 792 CURVE SMOOTH",
"444 792 OFFCURVE",
"430 812 OFFCURVE",
"430 844 CURVE SMOOTH",
"430 853 OFFCURVE",
"432 864 OFFCURVE",
"434 876 CURVE",
"318 876 LINE",
"314 858 OFFCURVE",
"312 840 OFFCURVE",
"312 824 CURVE SMOOTH",
"312 736 OFFCURVE",
"371 689 OFFCURVE",
"466 689 CURVE SMOOTH"
);
}
);
width = 651;
}
);
leftKerningGroup = C;
note = Gbreve;
unicode = 011E;
},
{
glyphname = Gcaron;
lastChange = "2015-11-25 11:52:00 +0000";
layers = (
{
layerId = "D9861EBB-D268-4716-B046-FAB51EB1D86F";
name = "Bold Italic";
paths = (
{
closed = 1;
nodes = (
"437 -10 OFFCURVE",
"524 18 OFFCURVE",
"580 49 CURVE",
"649 373 LINE",
"364 373 LINE",
"339 257 LINE",
"467 257 LINE",
"447 163 LINE",
"418 155 OFFCURVE",
"386 150 OFFCURVE",
"352 150 CURVE SMOOTH",
"256 150 OFFCURVE",
"219 180 OFFCURVE",
"219 248 CURVE SMOOTH",
"219 392 OFFCURVE",
"301 494 OFFCURVE",
"452 494 CURVE SMOOTH",
"517 494 OFFCURVE",
"578 487 OFFCURVE",
"632 465 CURVE",
"667 626 LINE",
"613 645 OFFCURVE",
"553 654 OFFCURVE",
"473 654 CURVE SMOOTH",
"205 654 OFFCURVE",
"27 493 OFFCURVE",
"27 234 CURVE SMOOTH",
"27 76 OFFCURVE",
"142 -10 OFFCURVE",
"318 -10 CURVE SMOOTH"
);
},
{
closed = 1;
nodes = (
"520 688 LINE",
"717 888 LINE",
"576 888 LINE",
"477 779 LINE",
"428 888 LINE",
"294 888 LINE",
"406 688 LINE"
);
}
);
width = 651;
}
);
leftKerningGroup = C;
note = Gcaron;
unicode = 01E6;
},
{
glyphname = Gcircumflex;
lastChange = "2015-11-25 11:52:08 +0000";
layers = (
{
layerId = "D9861EBB-D268-4716-B046-FAB51EB1D86F";
name = "Bold Italic";
paths = (
{
closed = 1;
nodes = (
"437 -10 OFFCURVE",
"524 18 OFFCURVE",
"580 49 CURVE",
"649 373 LINE",
"364 373 LINE",
"339 257 LINE",
"467 257 LINE",
"447 163 LINE",
"418 155 OFFCURVE",
"386 150 OFFCURVE",
"352 150 CURVE SMOOTH",
"256 150 OFFCURVE",
"219 180 OFFCURVE",
"219 248 CURVE SMOOTH",
"219 392 OFFCURVE",
"301 494 OFFCURVE",
"452 494 CURVE SMOOTH",
"517 494 OFFCURVE",
"578 487 OFFCURVE",
"632 465 CURVE",
"667 626 LINE",
"613 645 OFFCURVE",
"553 654 OFFCURVE",
"473 654 CURVE SMOOTH",
"205 654 OFFCURVE",
"27 493 OFFCURVE",
"27 234 CURVE SMOOTH",
"27 76 OFFCURVE",
"142 -10 OFFCURVE",
"318 -10 CURVE SMOOTH"
);
},
{
closed = 1;
nodes = (
"388 688 LINE",
"481 796 LINE",
"535 688 LINE",
"666 688 LINE",
"553 888 LINE",
"439 888 LINE",
"243 688 LINE"
);
}
);
width = 651;
}
);
leftKerningGroup = C;
note = Gcircumflex;
unicode = 011C;
},
{
glyphname = Gcommaaccent;
lastChange = "2015-11-25 11:52:13 +0000";
layers = (
{
layerId = "D9861EBB-D268-4716-B046-FAB51EB1D86F";
name = "Bold Italic";
paths = (
{
closed = 1;
nodes = (
"437 -10 OFFCURVE",
"524 18 OFFCURVE",
"580 49 CURVE",
"649 373 LINE",
"364 373 LINE",
"339 257 LINE",
"467 257 LINE",
"447 163 LINE",
"418 155 OFFCURVE",
"386 150 OFFCURVE",
"352 150 CURVE SMOOTH",
"256 150 OFFCURVE",
"219 180 OFFCURVE",
"219 248 CURVE SMOOTH",
"219 392 OFFCURVE",
"301 494 OFFCURVE",
"452 494 CURVE SMOOTH",
"517 494 OFFCURVE",
"578 487 OFFCURVE",
"632 465 CURVE",
"667 626 LINE",
"613 645 OFFCURVE",
"553 654 OFFCURVE",
"473 654 CURVE SMOOTH",
"205 654 OFFCURVE",
"27 493 OFFCURVE",
"27 234 CURVE SMOOTH",
"27 76 OFFCURVE",
"142 -10 OFFCURVE",
"318 -10 CURVE SMOOTH"
);
},
{
closed = 1;
nodes = (
"295 -262 LINE",
"400 -37 LINE",
"247 -37 LINE",
"166 -262 LINE"
);
}
);
width = 651;
}
);
leftKerningGroup = C;
note = Gcommaaccent;
unicode = 0122;
},
{
glyphname = Gdotaccent;
lastChange = "2015-11-25 11:52:18 +0000";
layers = (
{
layerId = "D9861EBB-D268-4716-B046-FAB51EB1D86F";
name = "Bold Italic";
paths = (
{
closed = 1;
nodes = (
"437 -10 OFFCURVE",
"524 18 OFFCURVE",
"580 49 CURVE",
"649 373 LINE",
"364 373 LINE",
"339 257 LINE",
"467 257 LINE",
"447 163 LINE",
"418 155 OFFCURVE",
"386 150 OFFCURVE",
"352 150 CURVE SMOOTH",
"256 150 OFFCURVE",
"219 180 OFFCURVE",
"219 248 CURVE SMOOTH",
"219 392 OFFCURVE",
"301 494 OFFCURVE",
"452 494 CURVE SMOOTH",
"517 494 OFFCURVE",
"578 487 OFFCURVE",
"632 465 CURVE",
"667 626 LINE",
"613 645 OFFCURVE",
"553 654 OFFCURVE",
"473 654 CURVE SMOOTH",
"205 654 OFFCURVE",
"27 493 OFFCURVE",
"27 234 CURVE SMOOTH",
"27 76 OFFCURVE",
"142 -10 OFFCURVE",
"318 -10 CURVE SMOOTH"
);
},
{
closed = 1;
nodes = (
"546 715 LINE",
"572 835 LINE",
"442 835 LINE",
"416 715 LINE"
);
}
);
width = 651;
}
);
leftKerningGroup = C;
note = Gdotaccent;
unicode = 0120;
},
{
glyphname = Gmacron;
lastChange = "2015-11-25 11:52:23 +0000";
layers = (
{
layerId = "D9861EBB-D268-4716-B046-FAB51EB1D86F";
name = "Bold Italic";
paths = (
{
closed = 1;
nodes = (
"437 -10 OFFCURVE",
"524 18 OFFCURVE",
"580 49 CURVE",
"649 373 LINE",
"364 373 LINE",
"339 257 LINE",
"467 257 LINE",
"447 163 LINE",
"418 155 OFFCURVE",
"386 150 OFFCURVE",
"352 150 CURVE SMOOTH",
"256 150 OFFCURVE",
"219 180 OFFCURVE",
"219 248 CURVE SMOOTH",
"219 392 OFFCURVE",
"301 494 OFFCURVE",
"452 494 CURVE SMOOTH",
"517 494 OFFCURVE",
"578 487 OFFCURVE",
"632 465 CURVE",
"667 626 LINE",
"613 645 OFFCURVE",
"553 654 OFFCURVE",
"473 654 CURVE SMOOTH",
"205 654 OFFCURVE",
"27 493 OFFCURVE",
"27 234 CURVE SMOOTH",
"27 76 OFFCURVE",
"142 -10 OFFCURVE",
"318 -10 CURVE SMOOTH"
);
},
{
closed = 1;
nodes = (
"637 717 LINE",
"661 829 LINE",
"334 829 LINE",
"310 717 LINE"
);
}
);
width = 651;
}
);
leftKerningGroup = C;
note = Gmacron;
unicode = 1E20;
},
{
glyphname = H;
lastChange = "2015-11-25 11:50:17 +0000";
layers = (
{
layerId = "D9861EBB-D268-4716-B046-FAB51EB1D86F";
name = "Bold Italic";
paths = (
{
closed = 1;
nodes = (
"177 0 LINE",
"228 240 LINE",
"450 240 LINE",
"399 0 LINE",
"587 0 LINE",
"723 644 LINE",
"535 644 LINE",
"484 404 LINE",
"262 404 LINE",
"313 644 LINE",
"125 644 LINE",
"-11 0 LINE"
);
}
);
width = 688;
}
);
note = H;
unicode = 0048;
},
{
glyphname = Hbar;
lastChange = "2015-11-25 11:50:16 +0000";
layers = (
{
layerId = "D9861EBB-D268-4716-B046-FAB51EB1D86F";
name = "Bold Italic";
paths = (
{
closed = 1;
nodes = (
"177 0 LINE",
"228 240 LINE",
"450 240 LINE",
"399 0 LINE",
"587 0 LINE",
"683 458 LINE",
"724 458 LINE",
"750 583 LINE",
"710 583 LINE",
"723 644 LINE",
"535 644 LINE",
"522 583 LINE",
"300 583 LINE",
"313 644 LINE",
"125 644 LINE",
"112 583 LINE",
"72 583 LINE",
"46 458 LINE",
"85 458 LINE",
"-11 0 LINE"
);
},
{
closed = 1;
nodes = (
"273 458 LINE",
"495 458 LINE",
"484 404 LINE",
"262 404 LINE"
);
}
);
width = 688;
}
);
note = Hbar;
unicode = 0126;
},
{
glyphname = Hbrevebelow;
lastChange = "2015-11-25 11:50:18 +0000";
layers = (
{
layerId = "D9861EBB-D268-4716-B046-FAB51EB1D86F";
name = "Bold Italic";
paths = (
{
closed = 1;
nodes = (
"177 0 LINE",
"228 240 LINE",
"450 240 LINE",
"399 0 LINE",
"587 0 LINE",
"723 644 LINE",
"535 644 LINE",
"484 404 LINE",
"262 404 LINE",
"313 644 LINE",
"125 644 LINE",
"-11 0 LINE"
);
},
{
closed = 1;
nodes = (
"352 -237 OFFCURVE",
"442 -171 OFFCURVE",
"468 -50 CURVE",
"341 -50 LINE",
"330 -99 OFFCURVE",
"307 -134 OFFCURVE",
"256 -134 CURVE SMOOTH",
"217 -134 OFFCURVE",
"203 -114 OFFCURVE",
"203 -83 CURVE SMOOTH",
"203 -73 OFFCURVE",
"204 -62 OFFCURVE",
"207 -50 CURVE",
"90 -50 LINE",
"86 -68 OFFCURVE",
"84 -86 OFFCURVE",
"84 -102 CURVE SMOOTH",
"84 -190 OFFCURVE",
"143 -237 OFFCURVE",
"239 -237 CURVE SMOOTH"
);
}
);
width = 688;
}
);
note = Hbrevebelow;
unicode = 1E2A;
},
{
glyphname = Hcircumflex;
lastChange = "2015-11-25 11:50:16 +0000";
layers = (
{
layerId = "D9861EBB-D268-4716-B046-FAB51EB1D86F";
name = "Bold Italic";
paths = (
{
closed = 1;
nodes = (
"177 0 LINE",
"228 240 LINE",
"450 240 LINE",
"399 0 LINE",
"587 0 LINE",
"723 644 LINE",
"535 644 LINE",
"484 404 LINE",
"262 404 LINE",
"313 644 LINE",
"125 644 LINE",
"-11 0 LINE"
);
},
{
closed = 1;
nodes = (
"368 688 LINE",
"461 796 LINE",
"515 688 LINE",
"646 688 LINE",
"533 888 LINE",
"419 888 LINE",
"223 688 LINE"
);
}
);
width = 688;
}
);
note = Hcircumflex;
unicode = 0124;
},
{
glyphname = Hdotbelow;
lastChange = "2015-11-25 11:50:15 +0000";
layers = (
{
layerId = "D9861EBB-D268-4716-B046-FAB51EB1D86F";
name = "Bold Italic";
paths = (
{
closed = 1;
nodes = (
"177 0 LINE",
"228 240 LINE",
"450 240 LINE",
"399 0 LINE",
"587 0 LINE",
"723 644 LINE",
"535 644 LINE",
"484 404 LINE",
"262 404 LINE",
"313 644 LINE",
"125 644 LINE",
"-11 0 LINE"
);
},
{
closed = 1;
nodes = (
"313 -197 LINE",
"338 -77 LINE",
"208 -77 LINE",
"183 -197 LINE"
);
}
);
width = 688;
}
);
note = Hdotbelow;
unicode = 1E24;
},
{
glyphname = I;
lastChange = "2015-11-25 11:50:17 +0000";
layers = (
{
layerId = "D9861EBB-D268-4716-B046-FAB51EB1D86F";
name = "Bold Italic";
paths = (
{
closed = 1;
nodes = (
"177 0 LINE",
"313 644 LINE",
"125 644 LINE",
"-11 0 LINE"
);
}
);
width = 278;
}
);
note = I;
unicode = 0049;
},
{
glyphname = IJ;
lastChange = "2015-11-25 11:50:17 +0000";
layers = (
{
layerId = "D9861EBB-D268-4716-B046-FAB51EB1D86F";
name = "Bold Italic";
paths = (
{
closed = 1;
nodes = (
"544 -10 OFFCURVE",
"637 69 OFFCURVE",
"668 214 CURVE SMOOTH",
"759 644 LINE",
"571 644 LINE",
"486 244 LINE SMOOTH",
"472 176 OFFCURVE",
"446 149 OFFCURVE",
"366 149 CURVE SMOOTH",
"326 149 OFFCURVE",
"286 156 OFFCURVE",
"256 169 CURVE",
"223 13 LINE",
"266 -3 OFFCURVE",
"315 -10 OFFCURVE",
"371 -10 CURVE SMOOTH"
);
},
{
closed = 1;
nodes = (
"177 0 LINE",
"313 644 LINE",
"125 644 LINE",
"-11 0 LINE"
);
}
);
width = 719;
}
);
note = IJ;
rightKerningGroup = J;
unicode = 0132;
},
{
glyphname = Iacute;
lastChange = "2015-11-25 11:50:17 +0000";
layers = (
{
layerId = "D9861EBB-D268-4716-B046-FAB51EB1D86F";
name = "Bold Italic";
paths = (
{
closed = 1;
nodes = (
"177 0 LINE",
"313 644 LINE",
"125 644 LINE",
"-11 0 LINE"
);
},
{
closed = 1;
nodes = (
"293 688 LINE",
"433 894 LINE",
"287 894 LINE",
"155 688 LINE"
);
}
);
width = 278;
}
);
note = Iacute;
unicode = 00CD;
},
{
glyphname = Ibreve;
lastChange = "2015-11-25 11:50:17 +0000";
layers = (
{
layerId = "D9861EBB-D268-4716-B046-FAB51EB1D86F";
name = "Bold Italic";
paths = (
{
closed = 1;
nodes = (
"177 0 LINE",
"313 644 LINE",
"125 644 LINE",
"-11 0 LINE"
);
},
{
closed = 1;
nodes = (
"346 709 OFFCURVE",
"436 775 OFFCURVE",
"462 896 CURVE",
"335 896 LINE",
"325 847 OFFCURVE",
"300 812 OFFCURVE",
"249 812 CURVE SMOOTH",
"210 812 OFFCURVE",
"196 832 OFFCURVE",
"196 864 CURVE SMOOTH",
"196 873 OFFCURVE",
"198 884 OFFCURVE",
"200 896 CURVE",
"84 896 LINE",
"80 878 OFFCURVE",
"78 860 OFFCURVE",
"78 844 CURVE SMOOTH",
"78 756 OFFCURVE",
"137 709 OFFCURVE",
"232 709 CURVE SMOOTH"
);
}
);
width = 278;
}
);
note = Ibreve;
unicode = 012C;
},
{
glyphname = Icaron;
lastChange = "2015-11-25 11:50:15 +0000";
layers = (
{
layerId = "D9861EBB-D268-4716-B046-FAB51EB1D86F";
name = "Bold Italic";
paths = (
{
closed = 1;
nodes = (
"177 0 LINE",
"313 644 LINE",
"125 644 LINE",
"-11 0 LINE"
);
},
{
closed = 1;
nodes = (
"286 688 LINE",
"483 888 LINE",
"342 888 LINE",
"243 779 LINE",
"194 888 LINE",
"60 888 LINE",
"172 688 LINE"
);
}
);
width = 278;
}
);
note = Icaron;
unicode = 01CF;
},
{
glyphname = Icircumflex;
lastChange = "2015-11-25 11:50:18 +0000";
layers = (
{
layerId = "D9861EBB-D268-4716-B046-FAB51EB1D86F";
name = "Bold Italic";
paths = (
{
closed = 1;
nodes = (
"177 0 LINE",
"313 644 LINE",
"125 644 LINE",
"-11 0 LINE"
);
},
{
closed = 1;
nodes = (
"163 688 LINE",
"256 796 LINE",
"310 688 LINE",
"441 688 LINE",
"328 888 LINE",
"214 888 LINE",
"18 688 LINE"
);
}
);
width = 278;
}
);
note = Icircumflex;
unicode = 00CE;
},
{
glyphname = Idieresis;
lastChange = "2015-11-25 11:50:18 +0000";
layers = (
{
layerId = "D9861EBB-D268-4716-B046-FAB51EB1D86F";
name = "Bold Italic";
paths = (
{
closed = 1;
nodes = (
"177 0 LINE",
"313 644 LINE",
"125 644 LINE",
"-11 0 LINE"
);
},
{
closed = 1;
nodes = (
"193 722 LINE",
"219 842 LINE",
"89 842 LINE",
"63 722 LINE"
);
},
{
closed = 1;
nodes = (
"409 722 LINE",
"435 842 LINE",
"304 842 LINE",
"278 722 LINE"
);
}
);
width = 278;
}
);
note = Idieresis;
unicode = 00CF;
},
{
glyphname = Idotaccent;
lastChange = "2015-11-25 11:50:18 +0000";
layers = (
{
layerId = "D9861EBB-D268-4716-B046-FAB51EB1D86F";
name = "Bold Italic";
paths = (
{
closed = 1;
nodes = (
"177 0 LINE",
"313 644 LINE",
"125 644 LINE",
"-11 0 LINE"
);
},
{
closed = 1;
nodes = (
"300 722 LINE",
"326 842 LINE",
"196 842 LINE",
"170 722 LINE"
);
}
);
width = 278;
}
);
note = Idotaccent;
unicode = 0130;
},
{
glyphname = Idotbelow;
lastChange = "2015-11-25 11:50:16 +0000";
layers = (
{
layerId = "D9861EBB-D268-4716-B046-FAB51EB1D86F";
name = "Bold Italic";
paths = (
{
closed = 1;
nodes = (
"177 0 LINE",
"313 644 LINE",
"125 644 LINE",
"-11 0 LINE"
);
},
{
closed = 1;
nodes = (
"111 -176 LINE",
"136 -56 LINE",
"6 -56 LINE",
"-19 -176 LINE"
);
}
);
width = 278;
}
);
note = Idotbelow;
unicode = 1ECA;
},
{
glyphname = Igrave;
lastChange = "2015-11-25 11:50:15 +0000";
layers = (
{
layerId = "D9861EBB-D268-4716-B046-FAB51EB1D86F";
name = "Bold Italic";
paths = (
{
closed = 1;
nodes = (
"177 0 LINE",
"313 644 LINE",
"125 644 LINE",
"-11 0 LINE"
);
},
{
closed = 1;
nodes = (
"301 688 LINE",
"257 894 LINE",
"110 894 LINE",
"163 688 LINE"
);
}
);
width = 278;
}
);
note = Igrave;
unicode = 00CC;
},
{
glyphname = Ihookabove;
lastChange = "2015-11-25 11:50:15 +0000";
layers = (
{
layerId = "D9861EBB-D268-4716-B046-FAB51EB1D86F";
name = "Bold Italic";
paths = (
{
closed = 1;
nodes = (
"177 0 LINE",
"313 644 LINE",
"125 644 LINE",
"-11 0 LINE"
);
},
{
closed = 1;
nodes = (
"292 688 LINE",
"301 729 LINE",
"360 745 OFFCURVE",
"394 771 OFFCURVE",
"406 829 CURVE SMOOTH",
"408 836 OFFCURVE",
"408 843 OFFCURVE",
"408 850 CURVE SMOOTH",
"408 898 OFFCURVE",
"367 930 OFFCURVE",
"287 930 CURVE SMOOTH",
"239 930 OFFCURVE",
"199 925 OFFCURVE",
"169 916 CURVE",
"152 838 LINE",
"169 842 OFFCURVE",
"194 846 OFFCURVE",
"213 846 CURVE SMOOTH",
"252 846 OFFCURVE",
"271 836 OFFCURVE",
"266 813 CURVE SMOOTH",
"261 788 OFFCURVE",
"238 773 OFFCURVE",
"169 769 CURVE",
"151 688 LINE"
);
}
);
width = 278;
}
);
note = Ihookabove;
unicode = 1EC8;
},
{
glyphname = Imacron;
lastChange = "2015-11-25 11:50:17 +0000";
layers = (
{
layerId = "D9861EBB-D268-4716-B046-FAB51EB1D86F";
name = "Bold Italic";
paths = (
{
closed = 1;
nodes = (
"177 0 LINE",
"313 644 LINE",
"125 644 LINE",
"-11 0 LINE"
);
},
{
closed = 1;
nodes = (
"401 724 LINE",
"425 836 LINE",
"97 836 LINE",
"73 724 LINE"
);
}
);
width = 278;
}
);
note = Imacron;
unicode = 012A;
},
{
glyphname = Iogonek;
lastChange = "2015-11-25 11:50:15 +0000";
layers = (
{
layerId = "D9861EBB-D268-4716-B046-FAB51EB1D86F";
name = "Bold Italic";
paths = (
{
closed = 1;
nodes = (
"74 -220 OFFCURVE",
"115 -212 OFFCURVE",
"137 -204 CURVE",
"155 -118 LINE",
"142 -125 OFFCURVE",
"120 -129 OFFCURVE",
"103 -129 CURVE SMOOTH",
"81 -129 OFFCURVE",
"68 -119 OFFCURVE",
"68 -101 CURVE SMOOTH",
"68 -97 OFFCURVE",
"69 -93 OFFCURVE",
"70 -89 CURVE SMOOTH",
"77 -55 OFFCURVE",
"106 -26 OFFCURVE",
"146 0 CURVE",
"177 0 LINE",
"313 644 LINE",
"125 644 LINE",
"-11 0 LINE",
"21 0 LINE",
"-28 -28 OFFCURVE",
"-68 -72 OFFCURVE",
"-79 -123 CURVE SMOOTH",
"-81 -131 OFFCURVE",
"-81 -138 OFFCURVE",
"-81 -144 CURVE SMOOTH",
"-81 -196 OFFCURVE",
"-34 -220 OFFCURVE",
"33 -220 CURVE SMOOTH"
);
}
);
width = 278;
}
);
note = Iogonek;
unicode = 012E;
},
{
glyphname = Itilde;
lastChange = "2015-11-25 11:50:15 +0000";
layers = (
{
layerId = "D9861EBB-D268-4716-B046-FAB51EB1D86F";
name = "Bold Italic";
paths = (
{
closed = 1;
nodes = (
"177 0 LINE",
"313 644 LINE",
"125 644 LINE",
"-11 0 LINE"
);
},
{
closed = 1;
nodes = (
"369 711 OFFCURVE",
"407 726 OFFCURVE",
"424 744 CURVE",
"449 863 LINE",
"429 840 OFFCURVE",
"393 823 OFFCURVE",
"351 823 CURVE SMOOTH",
"288 823 OFFCURVE",
"246 865 OFFCURVE",
"179 865 CURVE SMOOTH",
"140 865 OFFCURVE",
"100 850 OFFCURVE",
"77 832 CURVE",
"52 714 LINE",
"81 738 OFFCURVE",
"116 753 OFFCURVE",
"158 753 CURVE SMOOTH",
"213 753 OFFCURVE",
"264 711 OFFCURVE",
"330 711 CURVE SMOOTH"
);
}
);
width = 278;
}
);
note = Itilde;
unicode = 0128;
},
{
glyphname = J;
lastChange = "2015-11-25 11:50:15 +0000";
layers = (
{
layerId = "D9861EBB-D268-4716-B046-FAB51EB1D86F";
name = "Bold Italic";
paths = (
{
closed = 1;
nodes = (
"272 -10 OFFCURVE",
"365 69 OFFCURVE",
"396 214 CURVE SMOOTH",
"487 644 LINE",
"299 644 LINE",
"214 244 LINE SMOOTH",
"200 176 OFFCURVE",
"174 149 OFFCURVE",
"94 149 CURVE SMOOTH",
"54 149 OFFCURVE",
"14 156 OFFCURVE",
"-16 169 CURVE",
"-49 13 LINE",
"-6 -3 OFFCURVE",
"43 -10 OFFCURVE",
"99 -10 CURVE SMOOTH"
);
}
);
width = 447;
}
);
leftKerningGroup = J;
note = J;
rightKerningGroup = J;
unicode = 004A;
},
{
glyphname = Jcircumflex;
lastChange = "2015-11-25 11:50:17 +0000";
layers = (
{
layerId = "D9861EBB-D268-4716-B046-FAB51EB1D86F";
name = "Bold Italic";
paths = (
{
closed = 1;
nodes = (
"272 -10 OFFCURVE",
"365 69 OFFCURVE",
"396 214 CURVE SMOOTH",
"487 644 LINE",
"299 644 LINE",
"214 244 LINE SMOOTH",
"200 176 OFFCURVE",
"174 149 OFFCURVE",
"94 149 CURVE SMOOTH",
"54 149 OFFCURVE",
"14 156 OFFCURVE",
"-16 169 CURVE",
"-49 13 LINE",
"-6 -3 OFFCURVE",
"43 -10 OFFCURVE",
"99 -10 CURVE SMOOTH"
);
},
{
closed = 1;
nodes = (
"326 688 LINE",
"419 796 LINE",
"473 688 LINE",
"604 688 LINE",
"491 888 LINE",
"377 888 LINE",
"181 688 LINE"
);
}
);
width = 447;
}
);
leftKerningGroup = J;
note = Jcircumflex;
rightKerningGroup = J;
unicode = 0134;
},
{
glyphname = K;
lastChange = "2015-11-25 11:50:18 +0000";
layers = (
{
layerId = "D9861EBB-D268-4716-B046-FAB51EB1D86F";
name = "Bold Italic";
paths = (
{
closed = 1;
nodes = (
"177 0 LINE",
"216 186 LINE",
"298 260 LINE",
"402 0 LINE",
"602 0 LINE",
"439 380 LINE",
"722 644 LINE",
"508 644 LINE",
"265 417 LINE",
"313 644 LINE",
"125 644 LINE",
"-11 0 LINE"
);
}
);
width = 683;
}
);
note = K;
rightKerningGroup = K;
unicode = 004B;
},
{
glyphname = Kcommaaccent;
lastChange = "2015-11-25 11:50:18 +0000";
layers = (
{
layerId = "D9861EBB-D268-4716-B046-FAB51EB1D86F";
name = "Bold Italic";
paths = (
{
closed = 1;
nodes = (
"177 0 LINE",
"216 186 LINE",
"298 260 LINE",
"402 0 LINE",
"602 0 LINE",
"439 380 LINE",
"722 644 LINE",
"508 644 LINE",
"265 417 LINE",
"313 644 LINE",
"125 644 LINE",
"-11 0 LINE"
);
},
{
closed = 1;
nodes = (
"255 -262 LINE",
"360 -37 LINE",
"207 -37 LINE",
"126 -262 LINE"
);
}
);
width = 683;
}
);
note = Kcommaaccent;
rightKerningGroup = K;
unicode = 0136;
},
{
glyphname = L;
lastChange = "2015-11-25 11:50:17 +0000";
layers = (
{
layerId = "D9861EBB-D268-4716-B046-FAB51EB1D86F";
name = "Bold Italic";
paths = (
{
closed = 1;
nodes = (
"467 0 LINE",
"497 144 LINE",
"207 144 LINE",
"313 644 LINE",
"125 644 LINE",
"-11 0 LINE"
);
}
);
width = 528;
}
);
note = L;
rightKerningGroup = L;
unicode = 004C;
},
{
glyphname = Lacute;
lastChange = "2015-11-25 11:50:17 +0000";
layers = (
{
layerId = "D9861EBB-D268-4716-B046-FAB51EB1D86F";
name = "Bold Italic";
paths = (
{
closed = 1;
nodes = (
"467 0 LINE",
"497 144 LINE",
"207 144 LINE",
"313 644 LINE",
"125 644 LINE",
"-11 0 LINE"
);
},
{
closed = 1;
nodes = (
"293 688 LINE",
"433 894 LINE",
"287 894 LINE",
"155 688 LINE"
);
}
);
width = 528;
}
);
note = Lacute;
rightKerningGroup = L;
unicode = 0139;
},
{
glyphname = Lcaron;
lastChange = "2015-11-25 11:50:16 +0000";
layers = (
{
layerId = "D9861EBB-D268-4716-B046-FAB51EB1D86F";
name = "Bold Italic";
paths = (
{
closed = 1;
nodes = (
"467 0 LINE",
"497 144 LINE",
"207 144 LINE",
"313 644 LINE",
"125 644 LINE",
"-11 0 LINE"
);
},
{
closed = 1;
nodes = (
"497 626 LINE",
"602 851 LINE",
"449 851 LINE",
"368 626 LINE"
);
}
);
width = 528;
}
);
note = Lcaron;
rightKerningGroup = L;
unicode = 013D;
},
{
glyphname = Lcommaaccent;
lastChange = "2015-11-25 11:50:17 +0000";
layers = (
{
layerId = "D9861EBB-D268-4716-B046-FAB51EB1D86F";
name = "Bold Italic";
paths = (
{
closed = 1;
nodes = (
"467 0 LINE",
"497 144 LINE",
"207 144 LINE",
"313 644 LINE",
"125 644 LINE",
"-11 0 LINE"
);
},
{
closed = 1;
nodes = (
"208 -262 LINE",
"313 -37 LINE",
"160 -37 LINE",
"79 -262 LINE"
);
}
);
width = 528;
}
);
note = Lcommaaccent;
rightKerningGroup = L;
unicode = 013B;
},
{
glyphname = Ldot;
lastChange = "2015-11-25 11:50:17 +0000";
layers = (
{
layerId = "D9861EBB-D268-4716-B046-FAB51EB1D86F";
name = "Bold Italic";
paths = (
{
closed = 1;
nodes = (
"467 0 LINE",
"497 144 LINE",
"207 144 LINE",
"313 644 LINE",
"125 644 LINE",
"-11 0 LINE"
);
},
{
closed = 1;
nodes = (
"499 292 LINE",
"525 412 LINE",
"395 412 LINE",
"369 292 LINE"
);
}
);
width = 528;
}
);
note = Ldot;
rightKerningGroup = L;
unicode = 013F;
},
{
glyphname = Ldotbelow;
lastChange = "2015-11-25 11:50:17 +0000";
layers = (
{
layerId = "D9861EBB-D268-4716-B046-FAB51EB1D86F";
name = "Bold Italic";
paths = (
{
closed = 1;
nodes = (
"467 0 LINE",
"497 144 LINE",
"207 144 LINE",
"313 644 LINE",
"125 644 LINE",
"-11 0 LINE"
);
},
{
closed = 1;
nodes = (
"249 -176 LINE",
"274 -56 LINE",
"144 -56 LINE",
"119 -176 LINE"
);
}
);
width = 528;
}
);
note = Ldotbelow;
rightKerningGroup = L;
unicode = 1E36;
},
{
glyphname = Ldotbelowmacron;
lastChange = "2015-11-25 11:50:16 +0000";
layers = (
{
layerId = "D9861EBB-D268-4716-B046-FAB51EB1D86F";
name = "Bold Italic";
paths = (
{
closed = 1;
nodes = (
"467 0 LINE",
"497 144 LINE",
"207 144 LINE",
"313 644 LINE",
"125 644 LINE",
"-11 0 LINE"
);
},
{
closed = 1;
nodes = (
"249 -176 LINE",
"274 -56 LINE",
"144 -56 LINE",
"119 -176 LINE"
);
},
{
closed = 1;
nodes = (
"401 717 LINE",
"425 829 LINE",
"98 829 LINE",
"74 717 LINE"
);
}
);
width = 528;
}
);
note = Ldotbelowmacron;
rightKerningGroup = L;
unicode = 1E38;
},
{
glyphname = Llinebelow;
lastChange = "2015-11-25 11:50:16 +0000";
layers = (
{
layerId = "D9861EBB-D268-4716-B046-FAB51EB1D86F";
name = "Bold Italic";
paths = (
{
closed = 1;
nodes = (
"467 0 LINE",
"497 144 LINE",
"207 144 LINE",
"313 644 LINE",
"125 644 LINE",
"-11 0 LINE"
);
},
{
closed = 1;
nodes = (
"351 -176 LINE",
"375 -64 LINE",
"48 -64 LINE",
"24 -176 LINE"
);
}
);
width = 528;
}
);
note = Llinebelow;
rightKerningGroup = L;
unicode = 1E3A;
},
{
glyphname = Lslash;
lastChange = "2015-11-25 11:50:17 +0000";
layers = (
{
layerId = "D9861EBB-D268-4716-B046-FAB51EB1D86F";
name = "Bold Italic";
paths = (
{
closed = 1;
nodes = (
"467 0 LINE",
"497 144 LINE",
"207 144 LINE",
"245 323 LINE",
"339 361 LINE",
"368 494 LINE",
"273 456 LINE",
"313 644 LINE",
"125 644 LINE",
"68 374 LINE",
"-19 339 LINE",
"-48 206 LINE",
"40 241 LINE",
"-11 0 LINE"
);
}
);
width = 528;
}
);
note = Lslash;
rightKerningGroup = L;
unicode = 0141;
},
{
glyphname = M;
lastChange = "2015-11-25 11:50:17 +0000";
layers = (
{
layerId = "D9861EBB-D268-4716-B046-FAB51EB1D86F";
name = "Bold Italic";
paths = (
{
closed = 1;
nodes = (
"177 0 LINE",
"245 322 LINE",
"304 110 LINE",
"405 110 LINE",
"553 322 LINE",
"485 0 LINE",
"673 0 LINE",
"809 644 LINE",
"621 644 LINE",
"393 317 LINE",
"302 644 LINE",
"125 644 LINE",
"-11 0 LINE"
);
}
);
width = 774;
}
);
note = M;
unicode = 004D;
},
{
glyphname = Mdotbelow;
lastChange = "2015-11-25 11:50:16 +0000";
layers = (
{
layerId = "D9861EBB-D268-4716-B046-FAB51EB1D86F";
name = "Bold Italic";
paths = (
{
closed = 1;
nodes = (
"177 0 LINE",
"245 322 LINE",
"304 110 LINE",
"405 110 LINE",
"553 322 LINE",
"485 0 LINE",
"673 0 LINE",
"809 644 LINE",
"621 644 LINE",
"393 317 LINE",
"302 644 LINE",
"125 644 LINE",
"-11 0 LINE"
);
},
{
closed = 1;
nodes = (
"360 -176 LINE",
"385 -56 LINE",
"255 -56 LINE",
"230 -176 LINE"
);
}
);
width = 774;
}
);
note = Mdotbelow;
unicode = 1E42;
},
{
glyphname = N;
lastChange = "2015-11-25 11:50:16 +0000";
layers = (
{
layerId = "D9861EBB-D268-4716-B046-FAB51EB1D86F";
name = "Bold Italic";
paths = (
{
closed = 1;
nodes = (
"177 0 LINE",
"249 340 LINE",
"419 0 LINE",
"580 0 LINE",
"716 644 LINE",
"528 644 LINE",
"456 303 LINE",
"285 644 LINE",
"125 644 LINE",
"-11 0 LINE"
);
}
);
width = 681;
}
);
note = N;
unicode = 004E;
},
{
glyphname = Nacute;
lastChange = "2015-11-25 11:50:18 +0000";
layers = (
{
layerId = "D9861EBB-D268-4716-B046-FAB51EB1D86F";
name = "Bold Italic";
paths = (
{
closed = 1;
nodes = (
"177 0 LINE",
"249 340 LINE",
"419 0 LINE",
"580 0 LINE",
"716 644 LINE",
"528 644 LINE",
"456 303 LINE",
"285 644 LINE",
"125 644 LINE",
"-11 0 LINE"
);
},
{
closed = 1;
nodes = (
"478 688 LINE",
"618 894 LINE",
"472 894 LINE",
"340 688 LINE"
);
}
);
width = 681;
}
);
note = Nacute;
unicode = 0143;
},
{
glyphname = Ncaron;
lastChange = "2015-11-25 11:50:16 +0000";
layers = (
{
layerId = "D9861EBB-D268-4716-B046-FAB51EB1D86F";
name = "Bold Italic";
paths = (
{
closed = 1;
nodes = (
"177 0 LINE",
"249 340 LINE",
"419 0 LINE",
"580 0 LINE",
"716 644 LINE",
"528 644 LINE",
"456 303 LINE",
"285 644 LINE",
"125 644 LINE",
"-11 0 LINE"
);
},
{
closed = 1;
nodes = (
"486 688 LINE",
"683 888 LINE",
"542 888 LINE",
"443 779 LINE",
"394 888 LINE",
"260 888 LINE",
"372 688 LINE"
);
}
);
width = 681;
}
);
note = Ncaron;
unicode = 0147;
},
{
glyphname = Ncommaaccent;
lastChange = "2015-11-25 11:50:15 +0000";
layers = (
{
layerId = "D9861EBB-D268-4716-B046-FAB51EB1D86F";
name = "Bold Italic";
paths = (
{
closed = 1;
nodes = (
"177 0 LINE",
"249 340 LINE",
"419 0 LINE",
"580 0 LINE",
"716 644 LINE",
"528 644 LINE",
"456 303 LINE",
"285 644 LINE",
"125 644 LINE",
"-11 0 LINE"
);
},
{
closed = 1;
nodes = (
"259 -262 LINE",
"364 -37 LINE",
"211 -37 LINE",
"130 -262 LINE"
);
}
);
width = 681;
}
);
note = Ncommaaccent;
unicode = 0145;
},
{
glyphname = Ndotaccent;
lastChange = "2015-11-25 11:50:15 +0000";
layers = (
{
layerId = "D9861EBB-D268-4716-B046-FAB51EB1D86F";
name = "Bold Italic";
paths = (
{
closed = 1;
nodes = (
"177 0 LINE",
"249 340 LINE",
"419 0 LINE",
"580 0 LINE",
"716 644 LINE",
"528 644 LINE",
"456 303 LINE",
"285 644 LINE",
"125 644 LINE",
"-11 0 LINE"
);
},
{
closed = 1;
nodes = (
"499 715 LINE",
"525 835 LINE",
"395 835 LINE",
"369 715 LINE"
);
}
);
width = 681;
}
);
note = Ndotaccent;
unicode = 1E44;
},
{
glyphname = Ndotbelow;
lastChange = "2015-11-25 11:50:16 +0000";
layers = (
{
layerId = "D9861EBB-D268-4716-B046-FAB51EB1D86F";
name = "Bold Italic";
paths = (
{
closed = 1;
nodes = (
"177 0 LINE",
"249 340 LINE",
"419 0 LINE",
"580 0 LINE",
"716 644 LINE",
"528 644 LINE",
"456 303 LINE",
"285 644 LINE",
"125 644 LINE",
"-11 0 LINE"
);
},
{
closed = 1;
nodes = (
"313 -176 LINE",
"338 -56 LINE",
"208 -56 LINE",
"183 -176 LINE"
);
}
);
width = 681;
}
);
note = Ndotbelow;
unicode = 1E46;
},
{
glyphname = Eng;
lastChange = "2015-11-25 11:50:17 +0000";
layers = (
{
layerId = "D9861EBB-D268-4716-B046-FAB51EB1D86F";
name = "Bold Italic";
paths = (
{
closed = 1;
nodes = (
"474 -234 OFFCURVE",
"545 -162 OFFCURVE",
"567 -60 CURVE SMOOTH",
"716 644 LINE",
"527 644 LINE",
"455 303 LINE",
"285 644 LINE",
"125 644 LINE",
"-11 0 LINE",
"177 0 LINE",
"249 340 LINE",
"399 39 LINE",
"381 -46 LINE SMOOTH",
"373 -82 OFFCURVE",
"350 -100 OFFCURVE",
"307 -100 CURVE SMOOTH",
"288 -100 OFFCURVE",
"269 -97 OFFCURVE",
"249 -90 CURVE",
"223 -212 LINE",
"256 -227 OFFCURVE",
"295 -234 OFFCURVE",
"347 -234 CURVE SMOOTH"
);
}
);
width = 681;
}
);
note = Eng;
unicode = 014A;
},
{
glyphname = Nlinebelow;
lastChange = "2015-11-25 11:50:17 +0000";
layers = (
{
layerId = "D9861EBB-D268-4716-B046-FAB51EB1D86F";
name = "Bold Italic";
paths = (
{
closed = 1;
nodes = (
"177 0 LINE",
"249 340 LINE",
"419 0 LINE",
"580 0 LINE",
"716 644 LINE",
"528 644 LINE",
"456 303 LINE",
"285 644 LINE",
"125 644 LINE",
"-11 0 LINE"
);
},
{
closed = 1;
nodes = (
"416 -175 LINE",
"440 -63 LINE",
"113 -63 LINE",
"89 -175 LINE"
);
}
);
width = 681;
}
);
note = Nlinebelow;
unicode = 1E48;
},
{
glyphname = Ntilde;
lastChange = "2015-11-25 11:50:15 +0000";
layers = (
{
layerId = "D9861EBB-D268-4716-B046-FAB51EB1D86F";
name = "Bold Italic";
paths = (
{
closed = 1;
nodes = (
"177 0 LINE",
"249 340 LINE",
"419 0 LINE",
"580 0 LINE",
"716 644 LINE",
"528 644 LINE",
"456 303 LINE",
"285 644 LINE",
"125 644 LINE",
"-11 0 LINE"
);
},
{
closed = 1;
nodes = (
"578 696 OFFCURVE",
"616 711 OFFCURVE",
"633 729 CURVE",
"658 848 LINE",
"638 825 OFFCURVE",
"602 808 OFFCURVE",
"560 808 CURVE SMOOTH",
"497 808 OFFCURVE",
"455 850 OFFCURVE",
"388 850 CURVE SMOOTH",
"349 850 OFFCURVE",
"309 835 OFFCURVE",
"286 817 CURVE",
"261 699 LINE",
"290 723 OFFCURVE",
"325 738 OFFCURVE",
"367 738 CURVE SMOOTH",
"422 738 OFFCURVE",
"473 696 OFFCURVE",
"539 696 CURVE SMOOTH"
);
}
);
width = 681;
}
);
note = Ntilde;
unicode = 00D1;
},
{
glyphname = O;
lastChange = "2015-11-25 11:50:18 +0000";
layers = (
{
layerId = "D9861EBB-D268-4716-B046-FAB51EB1D86F";
name = "Bold Italic";
paths = (
{
closed = 1;
nodes = (
"519 -10 OFFCURVE",
"645 88 OFFCURVE",
"695 320 CURVE SMOOTH",
"703 359 OFFCURVE",
"707 394 OFFCURVE",
"707 425 CURVE SMOOTH",
"707 582 OFFCURVE",
"608 654 OFFCURVE",
"437 654 CURVE SMOOTH",
"214 654 OFFCURVE",
"88 560 OFFCURVE",
"37 320 CURVE SMOOTH",
"29 282 OFFCURVE",
"25 248 OFFCURVE",
"25 218 CURVE SMOOTH",
"25 59 OFFCURVE",
"129 -10 OFFCURVE",
"295 -10 CURVE SMOOTH"
);
},
{
closed = 1;
nodes = (
"251 150 OFFCURVE",
"218 175 OFFCURVE",
"218 239 CURVE SMOOTH",
"218 261 OFFCURVE",
"222 288 OFFCURVE",
"229 320 CURVE SMOOTH",
"257 447 OFFCURVE",
"307 494 OFFCURVE",
"403 494 CURVE SMOOTH",
"481 494 OFFCURVE",
"513 468 OFFCURVE",
"513 401 CURVE SMOOTH",
"513 379 OFFCURVE",
"510 352 OFFCURVE",
"503 320 CURVE SMOOTH",
"477 201 OFFCURVE",
"425 150 OFFCURVE",
"329 150 CURVE SMOOTH"
);
}
);
width = 708;
}
);
leftKerningGroup = O;
note = O;
rightKerningGroup = O;
unicode = 004F;
},
{
glyphname = Oacute;
lastChange = "2015-11-25 11:50:15 +0000";
layers = (
{
layerId = "D9861EBB-D268-4716-B046-FAB51EB1D86F";
name = "Bold Italic";
paths = (
{
closed = 1;
nodes = (
"519 -10 OFFCURVE",
"645 88 OFFCURVE",
"695 320 CURVE SMOOTH",
"703 359 OFFCURVE",
"707 394 OFFCURVE",
"707 425 CURVE SMOOTH",
"707 582 OFFCURVE",
"608 654 OFFCURVE",
"437 654 CURVE SMOOTH",
"214 654 OFFCURVE",
"88 560 OFFCURVE",
"37 320 CURVE SMOOTH",
"29 282 OFFCURVE",
"25 248 OFFCURVE",
"25 218 CURVE SMOOTH",
"25 59 OFFCURVE",
"129 -10 OFFCURVE",
"295 -10 CURVE SMOOTH"
);
},
{
closed = 1;
nodes = (
"251 150 OFFCURVE",
"218 175 OFFCURVE",
"218 239 CURVE SMOOTH",
"218 261 OFFCURVE",
"222 288 OFFCURVE",
"229 320 CURVE SMOOTH",
"257 447 OFFCURVE",
"307 494 OFFCURVE",
"403 494 CURVE SMOOTH",
"481 494 OFFCURVE",
"513 468 OFFCURVE",
"513 401 CURVE SMOOTH",
"513 379 OFFCURVE",
"510 352 OFFCURVE",
"503 320 CURVE SMOOTH",
"477 201 OFFCURVE",
"425 150 OFFCURVE",
"329 150 CURVE SMOOTH"
);
},
{
closed = 1;
nodes = (
"500 688 LINE",
"640 894 LINE",
"494 894 LINE",
"362 688 LINE"
);
}
);
width = 708;
}
);
leftKerningGroup = O;
note = Oacute;
rightKerningGroup = O;
unicode = 00D3;
},
{
glyphname = Obreve;
lastChange = "2015-11-25 11:50:17 +0000";
layers = (
{
layerId = "D9861EBB-D268-4716-B046-FAB51EB1D86F";
name = "Bold Italic";
paths = (
{
closed = 1;
nodes = (
"519 -10 OFFCURVE",
"645 88 OFFCURVE",
"695 320 CURVE SMOOTH",
"703 359 OFFCURVE",
"707 394 OFFCURVE",
"707 425 CURVE SMOOTH",
"707 582 OFFCURVE",
"608 654 OFFCURVE",
"437 654 CURVE SMOOTH",
"214 654 OFFCURVE",
"88 560 OFFCURVE",
"37 320 CURVE SMOOTH",
"29 282 OFFCURVE",
"25 248 OFFCURVE",
"25 218 CURVE SMOOTH",
"25 59 OFFCURVE",
"129 -10 OFFCURVE",
"295 -10 CURVE SMOOTH"
);
},
{
closed = 1;
nodes = (
"251 150 OFFCURVE",
"218 175 OFFCURVE",
"218 239 CURVE SMOOTH",
"218 261 OFFCURVE",
"222 288 OFFCURVE",
"229 320 CURVE SMOOTH",
"257 447 OFFCURVE",
"307 494 OFFCURVE",
"403 494 CURVE SMOOTH",
"481 494 OFFCURVE",
"513 468 OFFCURVE",
"513 401 CURVE SMOOTH",
"513 379 OFFCURVE",
"510 352 OFFCURVE",
"503 320 CURVE SMOOTH",
"477 201 OFFCURVE",
"425 150 OFFCURVE",
"329 150 CURVE SMOOTH"
);
},
{
closed = 1;
nodes = (
"557 688 OFFCURVE",
"647 754 OFFCURVE",
"673 875 CURVE",
"546 875 LINE",
"536 826 OFFCURVE",
"511 791 OFFCURVE",
"460 791 CURVE SMOOTH",
"421 791 OFFCURVE",
"407 811 OFFCURVE",
"407 843 CURVE SMOOTH",
"407 852 OFFCURVE",
"409 863 OFFCURVE",
"411 875 CURVE",
"295 875 LINE",
"291 857 OFFCURVE",
"289 839 OFFCURVE",
"289 823 CURVE SMOOTH",
"289 735 OFFCURVE",
"348 688 OFFCURVE",
"443 688 CURVE SMOOTH"
);
}
);
width = 708;
}
);
leftKerningGroup = O;
note = Obreve;
rightKerningGroup = O;
unicode = 014E;
},
{
glyphname = Ocaron;
lastChange = "2015-11-25 11:50:17 +0000";
layers = (
{
layerId = "D9861EBB-D268-4716-B046-FAB51EB1D86F";
name = "Bold Italic";
paths = (
{
closed = 1;
nodes = (
"519 -10 OFFCURVE",
"645 88 OFFCURVE",
"695 320 CURVE SMOOTH",
"703 359 OFFCURVE",
"707 394 OFFCURVE",
"707 425 CURVE SMOOTH",
"707 582 OFFCURVE",
"608 654 OFFCURVE",
"437 654 CURVE SMOOTH",
"214 654 OFFCURVE",
"88 560 OFFCURVE",
"37 320 CURVE SMOOTH",
"29 282 OFFCURVE",
"25 248 OFFCURVE",
"25 218 CURVE SMOOTH",
"25 59 OFFCURVE",
"129 -10 OFFCURVE",
"295 -10 CURVE SMOOTH"
);
},
{
closed = 1;
nodes = (
"251 150 OFFCURVE",
"218 175 OFFCURVE",
"218 239 CURVE SMOOTH",
"218 261 OFFCURVE",
"222 288 OFFCURVE",
"229 320 CURVE SMOOTH",
"257 447 OFFCURVE",
"307 494 OFFCURVE",
"403 494 CURVE SMOOTH",
"481 494 OFFCURVE",
"513 468 OFFCURVE",
"513 401 CURVE SMOOTH",
"513 379 OFFCURVE",
"510 352 OFFCURVE",
"503 320 CURVE SMOOTH",
"477 201 OFFCURVE",
"425 150 OFFCURVE",
"329 150 CURVE SMOOTH"
);
},
{
closed = 1;
nodes = (
"501 688 LINE",
"698 888 LINE",
"557 888 LINE",
"458 779 LINE",
"409 888 LINE",
"275 888 LINE",
"387 688 LINE"
);
}
);
width = 708;
}
);
leftKerningGroup = O;
note = Ocaron;
rightKerningGroup = O;
unicode = 01D1;
},
{
glyphname = Ocircumflex;
lastChange = "2015-11-25 11:50:15 +0000";
layers = (
{
layerId = "D9861EBB-D268-4716-B046-FAB51EB1D86F";
name = "Bold Italic";
paths = (
{
closed = 1;
nodes = (
"519 -10 OFFCURVE",
"645 88 OFFCURVE",
"695 320 CURVE SMOOTH",
"703 359 OFFCURVE",
"707 394 OFFCURVE",
"707 425 CURVE SMOOTH",
"707 582 OFFCURVE",
"608 654 OFFCURVE",
"437 654 CURVE SMOOTH",
"214 654 OFFCURVE",
"88 560 OFFCURVE",
"37 320 CURVE SMOOTH",
"29 282 OFFCURVE",
"25 248 OFFCURVE",
"25 218 CURVE SMOOTH",
"25 59 OFFCURVE",
"129 -10 OFFCURVE",
"295 -10 CURVE SMOOTH"
);
},
{
closed = 1;
nodes = (
"251 150 OFFCURVE",
"218 175 OFFCURVE",
"218 239 CURVE SMOOTH",
"218 261 OFFCURVE",
"222 288 OFFCURVE",
"229 320 CURVE SMOOTH",
"257 447 OFFCURVE",
"307 494 OFFCURVE",
"403 494 CURVE SMOOTH",
"481 494 OFFCURVE",
"513 468 OFFCURVE",
"513 401 CURVE SMOOTH",
"513 379 OFFCURVE",
"510 352 OFFCURVE",
"503 320 CURVE SMOOTH",
"477 201 OFFCURVE",
"425 150 OFFCURVE",
"329 150 CURVE SMOOTH"
);
},
{
closed = 1;
nodes = (
"379 688 LINE",
"472 796 LINE",
"526 688 LINE",
"657 688 LINE",
"544 888 LINE",
"430 888 LINE",
"234 688 LINE"
);
}
);
width = 708;
}
);
leftKerningGroup = O;
note = Ocircumflex;
rightKerningGroup = O;
unicode = 00D4;
},
{
glyphname = Ocircumflexacute;
lastChange = "2015-11-25 11:50:18 +0000";
layers = (
{
layerId = "D9861EBB-D268-4716-B046-FAB51EB1D86F";
name = "Bold Italic";
paths = (
{
closed = 1;
nodes = (
"519 -10 OFFCURVE",
"645 88 OFFCURVE",
"695 320 CURVE SMOOTH",
"703 359 OFFCURVE",
"707 394 OFFCURVE",
"707 425 CURVE SMOOTH",
"707 582 OFFCURVE",
"608 654 OFFCURVE",
"437 654 CURVE SMOOTH",
"214 654 OFFCURVE",
"88 560 OFFCURVE",
"37 320 CURVE SMOOTH",
"29 282 OFFCURVE",
"25 248 OFFCURVE",
"25 218 CURVE SMOOTH",
"25 59 OFFCURVE",
"129 -10 OFFCURVE",
"295 -10 CURVE SMOOTH"
);
},
{
closed = 1;
nodes = (
"251 150 OFFCURVE",
"218 175 OFFCURVE",
"218 239 CURVE SMOOTH",
"218 261 OFFCURVE",
"222 288 OFFCURVE",
"229 320 CURVE SMOOTH",
"257 447 OFFCURVE",
"307 494 OFFCURVE",
"403 494 CURVE SMOOTH",
"481 494 OFFCURVE",
"513 468 OFFCURVE",
"513 401 CURVE SMOOTH",
"513 379 OFFCURVE",
"510 352 OFFCURVE",
"503 320 CURVE SMOOTH",
"477 201 OFFCURVE",
"425 150 OFFCURVE",
"329 150 CURVE SMOOTH"
);
},
{
closed = 1;
nodes = (
"381 688 LINE",
"460 767 LINE",
"505 688 LINE",
"651 688 LINE",
"542 840 LINE",
"404 840 LINE",
"229 688 LINE"
);
},
{
closed = 1;
nodes = (
"720 813 LINE",
"831 969 LINE",
"692 969 LINE",
"589 813 LINE"
);
}
);
width = 708;
}
);
leftKerningGroup = O;
note = Ocircumflexacute;
rightKerningGroup = O;
unicode = 1ED0;
},
{
glyphname = Ocircumflexdotbelow;
lastChange = "2015-11-25 11:53:00 +0000";
layers = (
{
layerId = "D9861EBB-D268-4716-B046-FAB51EB1D86F";
name = "Bold Italic";
paths = (
{
closed = 1;
nodes = (
"519 -10 OFFCURVE",
"645 88 OFFCURVE",
"695 320 CURVE SMOOTH",
"703 359 OFFCURVE",
"707 394 OFFCURVE",
"707 425 CURVE SMOOTH",
"707 582 OFFCURVE",
"608 654 OFFCURVE",
"437 654 CURVE SMOOTH",
"214 654 OFFCURVE",
"88 560 OFFCURVE",
"37 320 CURVE SMOOTH",
"29 282 OFFCURVE",
"25 248 OFFCURVE",
"25 218 CURVE SMOOTH",
"25 59 OFFCURVE",
"129 -10 OFFCURVE",
"295 -10 CURVE SMOOTH"
);
},
{
closed = 1;
nodes = (
"251 150 OFFCURVE",
"218 175 OFFCURVE",
"218 239 CURVE SMOOTH",
"218 261 OFFCURVE",
"222 288 OFFCURVE",
"229 320 CURVE SMOOTH",
"257 447 OFFCURVE",
"307 494 OFFCURVE",
"403 494 CURVE SMOOTH",
"481 494 OFFCURVE",
"513 468 OFFCURVE",
"513 401 CURVE SMOOTH",
"513 379 OFFCURVE",
"510 352 OFFCURVE",
"503 320 CURVE SMOOTH",
"477 201 OFFCURVE",
"425 150 OFFCURVE",
"329 150 CURVE SMOOTH"
);
},
{
closed = 1;
nodes = (
"325 -176 LINE",
"350 -56 LINE",
"220 -56 LINE",
"195 -176 LINE"
);
},
{
closed = 1;
nodes = (
"378 688 LINE",
"471 796 LINE",
"525 688 LINE",
"656 688 LINE",
"543 888 LINE",
"429 888 LINE",
"233 688 LINE"
);
}
);
width = 708;
}
);
leftKerningGroup = O;
note = Ocircumflexdotbelow;
rightKerningGroup = O;
unicode = 1ED8;
},
{
glyphname = Ocircumflexgrave;
lastChange = "2015-11-25 11:50:18 +0000";
layers = (
{
layerId = "D9861EBB-D268-4716-B046-FAB51EB1D86F";
name = "Bold Italic";
paths = (
{
closed = 1;
nodes = (
"519 -10 OFFCURVE",
"645 88 OFFCURVE",
"695 320 CURVE SMOOTH",
"703 359 OFFCURVE",
"707 394 OFFCURVE",
"707 425 CURVE SMOOTH",
"707 582 OFFCURVE",
"608 654 OFFCURVE",
"437 654 CURVE SMOOTH",
"214 654 OFFCURVE",
"88 560 OFFCURVE",
"37 320 CURVE SMOOTH",
"29 282 OFFCURVE",
"25 248 OFFCURVE",
"25 218 CURVE SMOOTH",
"25 59 OFFCURVE",
"129 -10 OFFCURVE",
"295 -10 CURVE SMOOTH"
);
},
{
closed = 1;
nodes = (
"251 150 OFFCURVE",
"218 175 OFFCURVE",
"218 239 CURVE SMOOTH",
"218 261 OFFCURVE",
"222 288 OFFCURVE",
"229 320 CURVE SMOOTH",
"257 447 OFFCURVE",
"307 494 OFFCURVE",
"403 494 CURVE SMOOTH",
"481 494 OFFCURVE",
"513 468 OFFCURVE",
"513 401 CURVE SMOOTH",
"513 379 OFFCURVE",
"510 352 OFFCURVE",
"503 320 CURVE SMOOTH",
"477 201 OFFCURVE",
"425 150 OFFCURVE",
"329 150 CURVE SMOOTH"
);
},
{
closed = 1;
nodes = (
"352 813 LINE",
"314 969 LINE",
"175 969 LINE",
"220 813 LINE"
);
},
{
closed = 1;
nodes = (
"388 688 LINE",
"467 767 LINE",
"512 688 LINE",
"657 688 LINE",
"549 840 LINE",
"411 840 LINE",
"236 688 LINE"
);
}
);
width = 708;
}
);
leftKerningGroup = O;
note = Ocircumflexgrave;
rightKerningGroup = O;
unicode = 1ED2;
},
{
glyphname = Ocircumflexhookabove;
lastChange = "2015-11-25 11:50:15 +0000";
layers = (
{
layerId = "D9861EBB-D268-4716-B046-FAB51EB1D86F";
name = "Bold Italic";
paths = (
{
closed = 1;
nodes = (
"519 -10 OFFCURVE",
"645 88 OFFCURVE",
"695 320 CURVE SMOOTH",
"703 359 OFFCURVE",
"707 394 OFFCURVE",
"707 425 CURVE SMOOTH",
"707 582 OFFCURVE",
"608 654 OFFCURVE",
"437 654 CURVE SMOOTH",
"214 654 OFFCURVE",
"88 560 OFFCURVE",
"37 320 CURVE SMOOTH",
"29 282 OFFCURVE",
"25 248 OFFCURVE",
"25 218 CURVE SMOOTH",
"25 59 OFFCURVE",
"129 -10 OFFCURVE",
"295 -10 CURVE SMOOTH"
);
},
{
closed = 1;
nodes = (
"251 150 OFFCURVE",
"218 175 OFFCURVE",
"218 239 CURVE SMOOTH",
"218 261 OFFCURVE",
"222 288 OFFCURVE",
"229 320 CURVE SMOOTH",
"257 447 OFFCURVE",
"307 494 OFFCURVE",
"403 494 CURVE SMOOTH",
"481 494 OFFCURVE",
"513 468 OFFCURVE",
"513 401 CURVE SMOOTH",
"513 379 OFFCURVE",
"510 352 OFFCURVE",
"503 320 CURVE SMOOTH",
"477 201 OFFCURVE",
"425 150 OFFCURVE",
"329 150 CURVE SMOOTH"
);
},
{
closed = 1;
nodes = (
"386 688 LINE",
"465 767 LINE",
"510 688 LINE",
"655 688 LINE",
"547 840 LINE",
"409 840 LINE",
"234 688 LINE"
);
},
{
closed = 1;
nodes = (
"723 790 LINE",
"730 823 LINE",
"782 831 OFFCURVE",
"811 862 OFFCURVE",
"821 907 CURVE SMOOTH",
"822 914 OFFCURVE",
"823 920 OFFCURVE",
"823 926 CURVE SMOOTH",
"823 968 OFFCURVE",
"790 993 OFFCURVE",
"719 993 CURVE SMOOTH",
"680 993 OFFCURVE",
"644 988 OFFCURVE",
"619 981 CURVE",
"603 909 LINE",
"619 913 OFFCURVE",
"637 916 OFFCURVE",
"655 916 CURVE SMOOTH",
"681 916 OFFCURVE",
"695 910 OFFCURVE",
"692 894 CURVE",
"688 877 OFFCURVE",
"673 864 OFFCURVE",
"614 863 CURVE",
"599 790 LINE"
);
}
);
width = 708;
}
);
leftKerningGroup = O;
note = Ocircumflexhookabove;
rightKerningGroup = O;
unicode = 1ED4;
},
{
glyphname = Ocircumflextilde;
lastChange = "2015-11-25 11:50:18 +0000";
layers = (
{
layerId = "D9861EBB-D268-4716-B046-FAB51EB1D86F";
name = "Bold Italic";
paths = (
{
closed = 1;
nodes = (
"519 -10 OFFCURVE",
"645 88 OFFCURVE",
"695 320 CURVE SMOOTH",
"703 359 OFFCURVE",
"707 394 OFFCURVE",
"707 425 CURVE SMOOTH",
"707 582 OFFCURVE",
"608 654 OFFCURVE",
"437 654 CURVE SMOOTH",
"214 654 OFFCURVE",
"88 560 OFFCURVE",
"37 320 CURVE SMOOTH",
"29 282 OFFCURVE",
"25 248 OFFCURVE",
"25 218 CURVE SMOOTH",
"25 59 OFFCURVE",
"129 -10 OFFCURVE",
"295 -10 CURVE SMOOTH"
);
},
{
closed = 1;
nodes = (
"251 150 OFFCURVE",
"218 175 OFFCURVE",
"218 239 CURVE SMOOTH",
"218 261 OFFCURVE",
"222 288 OFFCURVE",
"229 320 CURVE SMOOTH",
"257 447 OFFCURVE",
"307 494 OFFCURVE",
"403 494 CURVE SMOOTH",
"481 494 OFFCURVE",
"513 468 OFFCURVE",
"513 401 CURVE SMOOTH",
"513 379 OFFCURVE",
"510 352 OFFCURVE",
"503 320 CURVE SMOOTH",
"477 201 OFFCURVE",
"425 150 OFFCURVE",
"329 150 CURVE SMOOTH"
);
},
{
closed = 1;
nodes = (
"564 688 OFFCURVE",
"637 740 OFFCURVE",
"663 860 CURVE",
"558 860 LINE",
"548 812 OFFCURVE",
"515 780 OFFCURVE",
"465 780 CURVE SMOOTH",
"418 780 OFFCURVE",
"402 800 OFFCURVE",
"402 831 CURVE SMOOTH",
"402 840 OFFCURVE",
"403 850 OFFCURVE",
"405 860 CURVE",
"300 860 LINE",
"296 844 OFFCURVE",
"295 829 OFFCURVE",
"295 815 CURVE SMOOTH",
"295 727 OFFCURVE",
"362 688 OFFCURVE",
"445 688 CURVE SMOOTH"
);
},
{
closed = 1;
nodes = (
"619 878 OFFCURVE",
"656 893 OFFCURVE",
"671 910 CURVE",
"693 1013 LINE",
"672 990 OFFCURVE",
"638 974 OFFCURVE",
"597 974 CURVE SMOOTH",
"537 974 OFFCURVE",
"495 1015 OFFCURVE",
"430 1015 CURVE SMOOTH",
"392 1015 OFFCURVE",
"353 1001 OFFCURVE",
"331 983 CURVE",
"309 881 LINE",
"337 905 OFFCURVE",
"371 919 OFFCURVE",
"412 919 CURVE SMOOTH",
"466 919 OFFCURVE",
"517 878 OFFCURVE",
"580 878 CURVE SMOOTH"
);
}
);
width = 708;
}
);
leftKerningGroup = O;
note = Ocircumflextilde;
rightKerningGroup = O;
unicode = 1ED6;
},
{
glyphname = Odieresis;
lastChange = "2015-11-25 11:50:16 +0000";
layers = (
{
layerId = "D9861EBB-D268-4716-B046-FAB51EB1D86F";
name = "Bold Italic";
paths = (
{
closed = 1;
nodes = (
"519 -10 OFFCURVE",
"645 88 OFFCURVE",
"695 320 CURVE SMOOTH",
"703 359 OFFCURVE",
"707 394 OFFCURVE",
"707 425 CURVE SMOOTH",
"707 582 OFFCURVE",
"608 654 OFFCURVE",
"437 654 CURVE SMOOTH",
"214 654 OFFCURVE",
"88 560 OFFCURVE",
"37 320 CURVE SMOOTH",
"29 282 OFFCURVE",
"25 248 OFFCURVE",
"25 218 CURVE SMOOTH",
"25 59 OFFCURVE",
"129 -10 OFFCURVE",
"295 -10 CURVE SMOOTH"
);
},
{
closed = 1;
nodes = (
"251 150 OFFCURVE",
"218 175 OFFCURVE",
"218 239 CURVE SMOOTH",
"218 261 OFFCURVE",
"222 288 OFFCURVE",
"229 320 CURVE SMOOTH",
"257 447 OFFCURVE",
"307 494 OFFCURVE",
"403 494 CURVE SMOOTH",
"481 494 OFFCURVE",
"513 468 OFFCURVE",
"513 401 CURVE SMOOTH",
"513 379 OFFCURVE",
"510 352 OFFCURVE",
"503 320 CURVE SMOOTH",
"477 201 OFFCURVE",
"425 150 OFFCURVE",
"329 150 CURVE SMOOTH"
);
},
{
closed = 1;
nodes = (
"407 715 LINE",
"433 835 LINE",
"303 835 LINE",
"277 715 LINE"
);
},
{
closed = 1;
nodes = (
"623 715 LINE",
"649 835 LINE",
"518 835 LINE",
"492 715 LINE"
);
}
);
width = 708;
}
);
leftKerningGroup = O;
note = Odieresis;
rightKerningGroup = O;
unicode = 00D6;
},
{
glyphname = Odotbelow;
lastChange = "2015-11-25 11:53:07 +0000";
layers = (
{
layerId = "D9861EBB-D268-4716-B046-FAB51EB1D86F";
name = "Bold Italic";
paths = (
{
closed = 1;
nodes = (
"519 -10 OFFCURVE",
"645 88 OFFCURVE",
"695 320 CURVE SMOOTH",
"703 359 OFFCURVE",
"707 394 OFFCURVE",
"707 425 CURVE SMOOTH",
"707 582 OFFCURVE",
"608 654 OFFCURVE",
"437 654 CURVE SMOOTH",
"214 654 OFFCURVE",
"88 560 OFFCURVE",
"37 320 CURVE SMOOTH",
"29 282 OFFCURVE",
"25 248 OFFCURVE",
"25 218 CURVE SMOOTH",
"25 59 OFFCURVE",
"129 -10 OFFCURVE",
"295 -10 CURVE SMOOTH"
);
},
{
closed = 1;
nodes = (
"251 150 OFFCURVE",
"218 175 OFFCURVE",
"218 239 CURVE SMOOTH",
"218 261 OFFCURVE",
"222 288 OFFCURVE",
"229 320 CURVE SMOOTH",
"257 447 OFFCURVE",
"307 494 OFFCURVE",
"403 494 CURVE SMOOTH",
"481 494 OFFCURVE",
"513 468 OFFCURVE",
"513 401 CURVE SMOOTH",
"513 379 OFFCURVE",
"510 352 OFFCURVE",
"503 320 CURVE SMOOTH",
"477 201 OFFCURVE",
"425 150 OFFCURVE",
"329 150 CURVE SMOOTH"
);
},
{
closed = 1;
nodes = (
"326 -176 LINE",
"351 -56 LINE",
"221 -56 LINE",
"196 -176 LINE"
);
}
);
width = 708;
}
);
leftKerningGroup = O;
note = Odotbelow;
rightKerningGroup = O;
unicode = 1ECC;
},
{
glyphname = Ograve;
lastChange = "2015-11-25 11:50:15 +0000";
layers = (
{
layerId = "D9861EBB-D268-4716-B046-FAB51EB1D86F";
name = "Bold Italic";
paths = (
{
closed = 1;
nodes = (
"519 -10 OFFCURVE",
"645 88 OFFCURVE",
"695 320 CURVE SMOOTH",
"703 359 OFFCURVE",
"707 394 OFFCURVE",
"707 425 CURVE SMOOTH",
"707 582 OFFCURVE",
"608 654 OFFCURVE",
"437 654 CURVE SMOOTH",
"214 654 OFFCURVE",
"88 560 OFFCURVE",
"37 320 CURVE SMOOTH",
"29 282 OFFCURVE",
"25 248 OFFCURVE",
"25 218 CURVE SMOOTH",
"25 59 OFFCURVE",
"129 -10 OFFCURVE",
"295 -10 CURVE SMOOTH"
);
},
{
closed = 1;
nodes = (
"251 150 OFFCURVE",
"218 175 OFFCURVE",
"218 239 CURVE SMOOTH",
"218 261 OFFCURVE",
"222 288 OFFCURVE",
"229 320 CURVE SMOOTH",
"257 447 OFFCURVE",
"307 494 OFFCURVE",
"403 494 CURVE SMOOTH",
"481 494 OFFCURVE",
"513 468 OFFCURVE",
"513 401 CURVE SMOOTH",
"513 379 OFFCURVE",
"510 352 OFFCURVE",
"503 320 CURVE SMOOTH",
"477 201 OFFCURVE",
"425 150 OFFCURVE",
"329 150 CURVE SMOOTH"
);
},
{
closed = 1;
nodes = (
"519 688 LINE",
"475 894 LINE",
"328 894 LINE",
"381 688 LINE"
);
}
);
width = 708;
}
);
leftKerningGroup = O;
note = Ograve;
rightKerningGroup = O;
unicode = 00D2;
},
{
glyphname = Ohookabove;
lastChange = "2015-11-25 11:50:15 +0000";
layers = (
{
layerId = "D9861EBB-D268-4716-B046-FAB51EB1D86F";
name = "Bold Italic";
paths = (
{
closed = 1;
nodes = (
"519 -10 OFFCURVE",
"645 88 OFFCURVE",
"695 320 CURVE SMOOTH",
"703 359 OFFCURVE",
"707 394 OFFCURVE",
"707 425 CURVE SMOOTH",
"707 582 OFFCURVE",
"608 654 OFFCURVE",
"437 654 CURVE SMOOTH",
"214 654 OFFCURVE",
"88 560 OFFCURVE",
"37 320 CURVE SMOOTH",
"29 282 OFFCURVE",
"25 248 OFFCURVE",
"25 218 CURVE SMOOTH",
"25 59 OFFCURVE",
"129 -10 OFFCURVE",
"295 -10 CURVE SMOOTH"
);
},
{
closed = 1;
nodes = (
"251 150 OFFCURVE",
"218 175 OFFCURVE",
"218 239 CURVE SMOOTH",
"218 261 OFFCURVE",
"222 288 OFFCURVE",
"229 320 CURVE SMOOTH",
"257 447 OFFCURVE",
"307 494 OFFCURVE",
"403 494 CURVE SMOOTH",
"481 494 OFFCURVE",
"513 468 OFFCURVE",
"513 401 CURVE SMOOTH",
"513 379 OFFCURVE",
"510 352 OFFCURVE",
"503 320 CURVE SMOOTH",
"477 201 OFFCURVE",
"425 150 OFFCURVE",
"329 150 CURVE SMOOTH"
);
},
{
closed = 1;
nodes = (
"508 688 LINE",
"517 729 LINE",
"576 745 OFFCURVE",
"610 771 OFFCURVE",
"622 829 CURVE SMOOTH",
"624 836 OFFCURVE",
"624 843 OFFCURVE",
"624 850 CURVE SMOOTH",
"624 898 OFFCURVE",
"583 930 OFFCURVE",
"503 930 CURVE SMOOTH",
"455 930 OFFCURVE",
"415 925 OFFCURVE",
"385 916 CURVE",
"368 838 LINE",
"385 842 OFFCURVE",
"410 846 OFFCURVE",
"429 846 CURVE SMOOTH",
"468 846 OFFCURVE",
"487 836 OFFCURVE",
"482 813 CURVE SMOOTH",
"477 788 OFFCURVE",
"454 773 OFFCURVE",
"385 769 CURVE",
"367 688 LINE"
);
}
);
width = 708;
}
);
leftKerningGroup = O;
note = Ohookabove;
rightKerningGroup = O;
unicode = 1ECE;
},
{
glyphname = Ohorn;
lastChange = "2015-11-25 11:50:15 +0000";
layers = (
{
layerId = "D9861EBB-D268-4716-B046-FAB51EB1D86F";
name = "Bold Italic";
paths = (
{
closed = 1;
nodes = (
"519 -10 OFFCURVE",
"645 88 OFFCURVE",
"695 320 CURVE SMOOTH",
"703 358 OFFCURVE",
"707 393 OFFCURVE",
"707 424 CURVE SMOOTH",
"707 443 OFFCURVE",
"706 461 OFFCURVE",
"703 477 CURVE",
"803 497 OFFCURVE",
"857 556 OFFCURVE",
"885 688 CURVE",
"752 688 LINE",
"737 617 OFFCURVE",
"707 593 OFFCURVE",
"646 590 CURVE",
"599 633 OFFCURVE",
"528 654 OFFCURVE",
"437 654 CURVE SMOOTH",
"214 654 OFFCURVE",
"88 560 OFFCURVE",
"37 320 CURVE SMOOTH",
"29 282 OFFCURVE",
"25 248 OFFCURVE",
"25 218 CURVE SMOOTH",
"25 59 OFFCURVE",
"129 -10 OFFCURVE",
"295 -10 CURVE SMOOTH"
);
},
{
closed = 1;
nodes = (
"251 150 OFFCURVE",
"218 175 OFFCURVE",
"218 239 CURVE SMOOTH",
"218 261 OFFCURVE",
"222 288 OFFCURVE",
"229 320 CURVE SMOOTH",
"257 447 OFFCURVE",
"307 494 OFFCURVE",
"403 494 CURVE SMOOTH",
"481 494 OFFCURVE",
"513 468 OFFCURVE",
"513 401 CURVE SMOOTH",
"513 379 OFFCURVE",
"510 352 OFFCURVE",
"503 320 CURVE SMOOTH",
"477 201 OFFCURVE",
"425 150 OFFCURVE",
"329 150 CURVE SMOOTH"
);
}
);
width = 790;
}
);
leftKerningGroup = O;
note = Ohorn;
rightKerningGroup = O;
unicode = 01A0;
},
{
glyphname = Ohornacute;
lastChange = "2015-11-25 11:50:15 +0000";
layers = (
{
layerId = "D9861EBB-D268-4716-B046-FAB51EB1D86F";
name = "Bold Italic";
paths = (
{
closed = 1;
nodes = (
"519 -10 OFFCURVE",
"645 88 OFFCURVE",
"695 320 CURVE SMOOTH",
"703 358 OFFCURVE",
"707 393 OFFCURVE",
"707 424 CURVE SMOOTH",
"707 443 OFFCURVE",
"706 461 OFFCURVE",
"703 477 CURVE",
"803 497 OFFCURVE",
"857 556 OFFCURVE",
"885 688 CURVE",
"752 688 LINE",
"737 617 OFFCURVE",
"707 593 OFFCURVE",
"646 590 CURVE",
"599 633 OFFCURVE",
"528 654 OFFCURVE",
"437 654 CURVE SMOOTH",
"214 654 OFFCURVE",
"88 560 OFFCURVE",
"37 320 CURVE SMOOTH",
"29 282 OFFCURVE",
"25 248 OFFCURVE",
"25 218 CURVE SMOOTH",
"25 59 OFFCURVE",
"129 -10 OFFCURVE",
"295 -10 CURVE SMOOTH"
);
},
{
closed = 1;
nodes = (
"251 150 OFFCURVE",
"218 175 OFFCURVE",
"218 239 CURVE SMOOTH",
"218 261 OFFCURVE",
"222 288 OFFCURVE",
"229 320 CURVE SMOOTH",
"257 447 OFFCURVE",
"307 494 OFFCURVE",
"403 494 CURVE SMOOTH",
"481 494 OFFCURVE",
"513 468 OFFCURVE",
"513 401 CURVE SMOOTH",
"513 379 OFFCURVE",
"510 352 OFFCURVE",
"503 320 CURVE SMOOTH",
"477 201 OFFCURVE",
"425 150 OFFCURVE",
"329 150 CURVE SMOOTH"
);
},
{
closed = 1;
nodes = (
"507 688 LINE",
"647 894 LINE",
"501 894 LINE",
"369 688 LINE"
);
}
);
width = 790;
}
);
leftKerningGroup = O;
note = Ohornacute;
rightKerningGroup = O;
unicode = 1EDA;
},
{
glyphname = Ohorndotbelow;
lastChange = "2015-11-25 11:53:13 +0000";
layers = (
{
layerId = "D9861EBB-D268-4716-B046-FAB51EB1D86F";
name = "Bold Italic";
paths = (
{
closed = 1;
nodes = (
"519 -10 OFFCURVE",
"645 88 OFFCURVE",
"695 320 CURVE SMOOTH",
"703 358 OFFCURVE",
"707 393 OFFCURVE",
"707 424 CURVE SMOOTH",
"707 443 OFFCURVE",
"706 461 OFFCURVE",
"703 477 CURVE",
"803 497 OFFCURVE",
"857 556 OFFCURVE",
"885 688 CURVE",
"752 688 LINE",
"737 617 OFFCURVE",
"707 593 OFFCURVE",
"646 590 CURVE",
"599 633 OFFCURVE",
"528 654 OFFCURVE",
"437 654 CURVE SMOOTH",
"214 654 OFFCURVE",
"88 560 OFFCURVE",
"37 320 CURVE SMOOTH",
"29 282 OFFCURVE",
"25 248 OFFCURVE",
"25 218 CURVE SMOOTH",
"25 59 OFFCURVE",
"129 -10 OFFCURVE",
"295 -10 CURVE SMOOTH"
);
},
{
closed = 1;
nodes = (
"251 150 OFFCURVE",
"218 175 OFFCURVE",
"218 239 CURVE SMOOTH",
"218 261 OFFCURVE",
"222 288 OFFCURVE",
"229 320 CURVE SMOOTH",
"257 447 OFFCURVE",
"307 494 OFFCURVE",
"403 494 CURVE SMOOTH",
"481 494 OFFCURVE",
"513 468 OFFCURVE",
"513 401 CURVE SMOOTH",
"513 379 OFFCURVE",
"510 352 OFFCURVE",
"503 320 CURVE SMOOTH",
"477 201 OFFCURVE",
"425 150 OFFCURVE",
"329 150 CURVE SMOOTH"
);
},
{
closed = 1;
nodes = (
"325 -176 LINE",
"350 -56 LINE",
"220 -56 LINE",
"195 -176 LINE"
);
}
);
width = 790;
}
);
leftKerningGroup = O;
note = Ohorndotbelow;
rightKerningGroup = O;
unicode = 1EE2;
},
{
glyphname = Ohorngrave;
lastChange = "2015-11-25 11:50:17 +0000";
layers = (
{
layerId = "D9861EBB-D268-4716-B046-FAB51EB1D86F";
name = "Bold Italic";
paths = (
{
closed = 1;
nodes = (
"519 -10 OFFCURVE",
"645 88 OFFCURVE",
"695 320 CURVE SMOOTH",
"703 358 OFFCURVE",
"707 393 OFFCURVE",
"707 424 CURVE SMOOTH",
"707 443 OFFCURVE",
"706 461 OFFCURVE",
"703 477 CURVE",
"803 497 OFFCURVE",
"857 556 OFFCURVE",
"885 688 CURVE",
"752 688 LINE",
"737 617 OFFCURVE",
"707 593 OFFCURVE",
"646 590 CURVE",
"599 633 OFFCURVE",
"528 654 OFFCURVE",
"437 654 CURVE SMOOTH",
"214 654 OFFCURVE",
"88 560 OFFCURVE",
"37 320 CURVE SMOOTH",
"29 282 OFFCURVE",
"25 248 OFFCURVE",
"25 218 CURVE SMOOTH",
"25 59 OFFCURVE",
"129 -10 OFFCURVE",
"295 -10 CURVE SMOOTH"
);
},
{
closed = 1;
nodes = (
"251 150 OFFCURVE",
"218 175 OFFCURVE",
"218 239 CURVE SMOOTH",
"218 261 OFFCURVE",
"222 288 OFFCURVE",
"229 320 CURVE SMOOTH",
"257 447 OFFCURVE",
"307 494 OFFCURVE",
"403 494 CURVE SMOOTH",
"481 494 OFFCURVE",
"513 468 OFFCURVE",
"513 401 CURVE SMOOTH",
"513 379 OFFCURVE",
"510 352 OFFCURVE",
"503 320 CURVE SMOOTH",
"477 201 OFFCURVE",
"425 150 OFFCURVE",
"329 150 CURVE SMOOTH"
);
},
{
closed = 1;
nodes = (
"521 688 LINE",
"477 894 LINE",
"330 894 LINE",
"383 688 LINE"
);
}
);
width = 790;
}
);
leftKerningGroup = O;
note = Ohorngrave;
rightKerningGroup = O;
unicode = 1EDC;
},
{
glyphname = Ohornhookabove;
lastChange = "2015-11-25 11:50:18 +0000";
layers = (
{
layerId = "D9861EBB-D268-4716-B046-FAB51EB1D86F";
name = "Bold Italic";
paths = (
{
closed = 1;
nodes = (
"519 -10 OFFCURVE",
"645 88 OFFCURVE",
"695 320 CURVE SMOOTH",
"703 358 OFFCURVE",
"707 393 OFFCURVE",
"707 424 CURVE SMOOTH",
"707 443 OFFCURVE",
"706 461 OFFCURVE",
"703 477 CURVE",
"803 497 OFFCURVE",
"857 556 OFFCURVE",
"885 688 CURVE",
"752 688 LINE",
"737 617 OFFCURVE",
"707 593 OFFCURVE",
"646 590 CURVE",
"599 633 OFFCURVE",
"528 654 OFFCURVE",
"437 654 CURVE SMOOTH",
"214 654 OFFCURVE",
"88 560 OFFCURVE",
"37 320 CURVE SMOOTH",
"29 282 OFFCURVE",
"25 248 OFFCURVE",
"25 218 CURVE SMOOTH",
"25 59 OFFCURVE",
"129 -10 OFFCURVE",
"295 -10 CURVE SMOOTH"
);
},
{
closed = 1;
nodes = (
"251 150 OFFCURVE",
"218 175 OFFCURVE",
"218 239 CURVE SMOOTH",
"218 261 OFFCURVE",
"222 288 OFFCURVE",
"229 320 CURVE SMOOTH",
"257 447 OFFCURVE",
"307 494 OFFCURVE",
"403 494 CURVE SMOOTH",
"481 494 OFFCURVE",
"513 468 OFFCURVE",
"513 401 CURVE SMOOTH",
"513 379 OFFCURVE",
"510 352 OFFCURVE",
"503 320 CURVE SMOOTH",
"477 201 OFFCURVE",
"425 150 OFFCURVE",
"329 150 CURVE SMOOTH"
);
},
{
closed = 1;
nodes = (
"511 688 LINE",
"520 729 LINE",
"579 745 OFFCURVE",
"613 771 OFFCURVE",
"625 829 CURVE SMOOTH",
"627 836 OFFCURVE",
"627 843 OFFCURVE",
"627 850 CURVE SMOOTH",
"627 898 OFFCURVE",
"586 930 OFFCURVE",
"506 930 CURVE SMOOTH",
"458 930 OFFCURVE",
"418 925 OFFCURVE",
"388 916 CURVE",
"371 838 LINE",
"388 842 OFFCURVE",
"413 846 OFFCURVE",
"432 846 CURVE SMOOTH",
"471 846 OFFCURVE",
"490 836 OFFCURVE",
"485 813 CURVE SMOOTH",
"480 788 OFFCURVE",
"457 773 OFFCURVE",
"388 769 CURVE",
"370 688 LINE"
);
}
);
width = 790;
}
);
leftKerningGroup = O;
note = Ohornhookabove;
rightKerningGroup = O;
unicode = 1EDE;
},
{
glyphname = Ohorntilde;
lastChange = "2015-11-25 11:50:17 +0000";
layers = (
{
layerId = "D9861EBB-D268-4716-B046-FAB51EB1D86F";
name = "Bold Italic";
paths = (
{
closed = 1;
nodes = (
"519 -10 OFFCURVE",
"645 88 OFFCURVE",
"695 320 CURVE SMOOTH",
"703 358 OFFCURVE",
"707 393 OFFCURVE",
"707 424 CURVE SMOOTH",
"707 443 OFFCURVE",
"706 461 OFFCURVE",
"703 477 CURVE",
"803 497 OFFCURVE",
"857 556 OFFCURVE",
"885 688 CURVE",
"752 688 LINE",
"737 617 OFFCURVE",
"707 593 OFFCURVE",
"646 590 CURVE",
"599 633 OFFCURVE",
"528 654 OFFCURVE",
"437 654 CURVE SMOOTH",
"214 654 OFFCURVE",
"88 560 OFFCURVE",
"37 320 CURVE SMOOTH",
"29 282 OFFCURVE",
"25 248 OFFCURVE",
"25 218 CURVE SMOOTH",
"25 59 OFFCURVE",
"129 -10 OFFCURVE",
"295 -10 CURVE SMOOTH"
);
},
{
closed = 1;
nodes = (
"251 150 OFFCURVE",
"218 175 OFFCURVE",
"218 239 CURVE SMOOTH",
"218 261 OFFCURVE",
"222 288 OFFCURVE",
"229 320 CURVE SMOOTH",
"257 447 OFFCURVE",
"307 494 OFFCURVE",
"403 494 CURVE SMOOTH",
"481 494 OFFCURVE",
"513 468 OFFCURVE",
"513 401 CURVE SMOOTH",
"513 379 OFFCURVE",
"510 352 OFFCURVE",
"503 320 CURVE SMOOTH",
"477 201 OFFCURVE",
"425 150 OFFCURVE",
"329 150 CURVE SMOOTH"
);
},
{
closed = 1;
nodes = (
"582 692 OFFCURVE",
"620 707 OFFCURVE",
"637 725 CURVE",
"662 844 LINE",
"642 821 OFFCURVE",
"606 804 OFFCURVE",
"564 804 CURVE SMOOTH",
"501 804 OFFCURVE",
"459 846 OFFCURVE",
"392 846 CURVE SMOOTH",
"353 846 OFFCURVE",
"313 831 OFFCURVE",
"290 813 CURVE",
"265 695 LINE",
"294 719 OFFCURVE",
"329 734 OFFCURVE",
"371 734 CURVE SMOOTH",
"426 734 OFFCURVE",
"477 692 OFFCURVE",
"543 692 CURVE SMOOTH"
);
}
);
width = 790;
}
);
leftKerningGroup = O;
note = Ohorntilde;
rightKerningGroup = O;
unicode = 1EE0;
},
{
glyphname = Ohungarumlaut;
lastChange = "2015-11-25 11:50:18 +0000";
layers = (
{
layerId = "D9861EBB-D268-4716-B046-FAB51EB1D86F";
name = "Bold Italic";
paths = (
{
closed = 1;
nodes = (
"519 -10 OFFCURVE",
"645 88 OFFCURVE",
"695 320 CURVE SMOOTH",
"703 359 OFFCURVE",
"707 394 OFFCURVE",
"707 425 CURVE SMOOTH",
"707 582 OFFCURVE",
"608 654 OFFCURVE",
"437 654 CURVE SMOOTH",
"214 654 OFFCURVE",
"88 560 OFFCURVE",
"37 320 CURVE SMOOTH",
"29 282 OFFCURVE",
"25 248 OFFCURVE",
"25 218 CURVE SMOOTH",
"25 59 OFFCURVE",
"129 -10 OFFCURVE",
"295 -10 CURVE SMOOTH"
);
},
{
closed = 1;
nodes = (
"251 150 OFFCURVE",
"218 175 OFFCURVE",
"218 239 CURVE SMOOTH",
"218 261 OFFCURVE",
"222 288 OFFCURVE",
"229 320 CURVE SMOOTH",
"257 447 OFFCURVE",
"307 494 OFFCURVE",
"403 494 CURVE SMOOTH",
"481 494 OFFCURVE",
"513 468 OFFCURVE",
"513 401 CURVE SMOOTH",
"513 379 OFFCURVE",
"510 352 OFFCURVE",
"503 320 CURVE SMOOTH",
"477 201 OFFCURVE",
"425 150 OFFCURVE",
"329 150 CURVE SMOOTH"
);
},
{
closed = 1;
nodes = (
"375 688 LINE",
"515 872 LINE",
"358 872 LINE",
"233 688 LINE"
);
},
{
closed = 1;
nodes = (
"608 688 LINE",
"749 872 LINE",
"591 872 LINE",
"466 688 LINE"
);
}
);
width = 708;
}
);
leftKerningGroup = O;
note = Ohungarumlaut;
rightKerningGroup = O;
unicode = 0150;
},
{
glyphname = Omacron;
lastChange = "2015-11-25 11:50:15 +0000";
layers = (
{
layerId = "D9861EBB-D268-4716-B046-FAB51EB1D86F";
name = "Bold Italic";
paths = (
{
closed = 1;
nodes = (
"519 -10 OFFCURVE",
"645 88 OFFCURVE",
"695 320 CURVE SMOOTH",
"703 359 OFFCURVE",
"707 394 OFFCURVE",
"707 425 CURVE SMOOTH",
"707 582 OFFCURVE",
"608 654 OFFCURVE",
"437 654 CURVE SMOOTH",
"214 654 OFFCURVE",
"88 560 OFFCURVE",
"37 320 CURVE SMOOTH",
"29 282 OFFCURVE",
"25 248 OFFCURVE",
"25 218 CURVE SMOOTH",
"25 59 OFFCURVE",
"129 -10 OFFCURVE",
"295 -10 CURVE SMOOTH"
);
},
{
closed = 1;
nodes = (
"251 150 OFFCURVE",
"218 175 OFFCURVE",
"218 239 CURVE SMOOTH",
"218 261 OFFCURVE",
"222 288 OFFCURVE",
"229 320 CURVE SMOOTH",
"257 447 OFFCURVE",
"307 494 OFFCURVE",
"403 494 CURVE SMOOTH",
"481 494 OFFCURVE",
"513 468 OFFCURVE",
"513 401 CURVE SMOOTH",
"513 379 OFFCURVE",
"510 352 OFFCURVE",
"503 320 CURVE SMOOTH",
"477 201 OFFCURVE",
"425 150 OFFCURVE",
"329 150 CURVE SMOOTH"
);
},
{
closed = 1;
nodes = (
"614 725 LINE",
"638 837 LINE",
"311 837 LINE",
"287 725 LINE"
);
}
);
width = 708;
}
);
leftKerningGroup = O;
note = Omacron;
rightKerningGroup = O;
unicode = 014C;
},
{
glyphname = Oslash;
lastChange = "2015-11-25 11:50:17 +0000";
layers = (
{
layerId = "D9861EBB-D268-4716-B046-FAB51EB1D86F";
name = "Bold Italic";
paths = (
{
closed = 1;
nodes = (
"185 -53 LINE",
"215 -4 LINE",
"239 -8 OFFCURVE",
"266 -10 OFFCURVE",
"295 -10 CURVE SMOOTH",
"519 -10 OFFCURVE",
"645 88 OFFCURVE",
"695 320 CURVE SMOOTH",
"703 359 OFFCURVE",
"707 394 OFFCURVE",
"707 425 CURVE SMOOTH",
"707 524 OFFCURVE",
"668 589 OFFCURVE",
"596 624 CURVE",
"638 693 LINE",
"536 693 LINE",
"509 649 LINE",
"487 652 OFFCURVE",
"463 654 OFFCURVE",
"437 654 CURVE SMOOTH",
"214 654 OFFCURVE",
"88 560 OFFCURVE",
"37 320 CURVE SMOOTH",
"29 282 OFFCURVE",
"25 248 OFFCURVE",
"25 217 CURVE SMOOTH",
"25 121 OFFCURVE",
"63 59 OFFCURVE",
"129 24 CURVE",
"83 -53 LINE"
);
},
{
closed = 1;
nodes = (
"221 201 OFFCURVE",
"218 218 OFFCURVE",
"218 238 CURVE SMOOTH",
"218 261 OFFCURVE",
"222 287 OFFCURVE",
"229 320 CURVE SMOOTH",
"257 447 OFFCURVE",
"307 494 OFFCURVE",
"403 494 CURVE SMOOTH",
"407 494 OFFCURVE",
"411 493 OFFCURVE",
"415 493 CURVE",
"229 188 LINE"
);
},
{
closed = 1;
nodes = (
"322 150 OFFCURVE",
"315 150 OFFCURVE",
"309 151 CURVE",
"497 461 LINE",
"508 446 OFFCURVE",
"513 426 OFFCURVE",
"513 400 CURVE SMOOTH",
"513 378 OFFCURVE",
"509 351 OFFCURVE",
"503 320 CURVE SMOOTH",
"477 201 OFFCURVE",
"425 150 OFFCURVE",
"329 150 CURVE SMOOTH"
);
}
);
width = 708;
}
);
leftKerningGroup = O;
note = Oslash;
rightKerningGroup = O;
unicode = 00D8;
},
{
glyphname = Oslashacute;
lastChange = "2015-11-25 11:50:17 +0000";
layers = (
{
layerId = "D9861EBB-D268-4716-B046-FAB51EB1D86F";
name = "Bold Italic";
paths = (
{
closed = 1;
nodes = (
"185 -53 LINE",
"215 -4 LINE",
"239 -8 OFFCURVE",
"266 -10 OFFCURVE",
"295 -10 CURVE SMOOTH",
"519 -10 OFFCURVE",
"645 88 OFFCURVE",
"695 320 CURVE SMOOTH",
"703 359 OFFCURVE",
"707 394 OFFCURVE",
"707 425 CURVE SMOOTH",
"707 524 OFFCURVE",
"668 589 OFFCURVE",
"596 624 CURVE",
"638 693 LINE",
"536 693 LINE",
"509 649 LINE",
"487 652 OFFCURVE",
"463 654 OFFCURVE",
"437 654 CURVE SMOOTH",
"214 654 OFFCURVE",
"88 560 OFFCURVE",
"37 320 CURVE SMOOTH",
"29 282 OFFCURVE",
"25 248 OFFCURVE",
"25 217 CURVE SMOOTH",
"25 121 OFFCURVE",
"63 59 OFFCURVE",
"129 24 CURVE",
"83 -53 LINE"
);
},
{
closed = 1;
nodes = (
"221 201 OFFCURVE",
"218 218 OFFCURVE",
"218 238 CURVE SMOOTH",
"218 261 OFFCURVE",
"222 287 OFFCURVE",
"229 320 CURVE SMOOTH",
"257 447 OFFCURVE",
"307 494 OFFCURVE",
"403 494 CURVE SMOOTH",
"407 494 OFFCURVE",
"411 493 OFFCURVE",
"415 493 CURVE",
"229 188 LINE"
);
},
{
closed = 1;
nodes = (
"322 150 OFFCURVE",
"315 150 OFFCURVE",
"309 151 CURVE",
"497 461 LINE",
"508 446 OFFCURVE",
"513 426 OFFCURVE",
"513 400 CURVE SMOOTH",
"513 378 OFFCURVE",
"509 351 OFFCURVE",
"503 320 CURVE SMOOTH",
"477 201 OFFCURVE",
"425 150 OFFCURVE",
"329 150 CURVE SMOOTH"
);
},
{
closed = 1;
nodes = (
"474 688 LINE",
"614 894 LINE",
"468 894 LINE",
"336 688 LINE"
);
}
);
width = 708;
}
);
leftKerningGroup = O;
note = Oslashacute;
rightKerningGroup = O;
unicode = 01FE;
},
{
glyphname = Otilde;
lastChange = "2015-11-25 11:50:18 +0000";
layers = (
{
layerId = "D9861EBB-D268-4716-B046-FAB51EB1D86F";
name = "Bold Italic";
paths = (
{
closed = 1;
nodes = (
"519 -10 OFFCURVE",
"645 88 OFFCURVE",
"695 320 CURVE SMOOTH",
"703 359 OFFCURVE",
"707 394 OFFCURVE",
"707 425 CURVE SMOOTH",
"707 582 OFFCURVE",
"608 654 OFFCURVE",
"437 654 CURVE SMOOTH",
"214 654 OFFCURVE",
"88 560 OFFCURVE",
"37 320 CURVE SMOOTH",
"29 282 OFFCURVE",
"25 248 OFFCURVE",
"25 218 CURVE SMOOTH",
"25 59 OFFCURVE",
"129 -10 OFFCURVE",
"295 -10 CURVE SMOOTH"
);
},
{
closed = 1;
nodes = (
"251 150 OFFCURVE",
"218 175 OFFCURVE",
"218 239 CURVE SMOOTH",
"218 261 OFFCURVE",
"222 288 OFFCURVE",
"229 320 CURVE SMOOTH",
"257 447 OFFCURVE",
"307 494 OFFCURVE",
"403 494 CURVE SMOOTH",
"481 494 OFFCURVE",
"513 468 OFFCURVE",
"513 401 CURVE SMOOTH",
"513 379 OFFCURVE",
"510 352 OFFCURVE",
"503 320 CURVE SMOOTH",
"477 201 OFFCURVE",
"425 150 OFFCURVE",
"329 150 CURVE SMOOTH"
);
},
{
closed = 1;
nodes = (
"585 711 OFFCURVE",
"623 726 OFFCURVE",
"640 744 CURVE",
"665 863 LINE",
"645 840 OFFCURVE",
"609 823 OFFCURVE",
"567 823 CURVE SMOOTH",
"504 823 OFFCURVE",
"462 865 OFFCURVE",
"395 865 CURVE SMOOTH",
"356 865 OFFCURVE",
"316 850 OFFCURVE",
"293 832 CURVE",
"268 714 LINE",
"297 738 OFFCURVE",
"332 753 OFFCURVE",
"374 753 CURVE SMOOTH",
"429 753 OFFCURVE",
"480 711 OFFCURVE",
"546 711 CURVE SMOOTH"
);
}
);
width = 708;
}
);
leftKerningGroup = O;
note = Otilde;
rightKerningGroup = O;
unicode = 00D5;
},
{
glyphname = OE;
lastChange = "2015-11-25 11:50:16 +0000";
layers = (
{
layerId = "D9861EBB-D268-4716-B046-FAB51EB1D86F";
name = "Bold Italic";
paths = (
{
closed = 1;
nodes = (
"347 -10 OFFCURVE",
"405 4 OFFCURVE",
"439 21 CURVE",
"435 0 LINE",
"923 0 LINE",
"953 144 LINE",
"653 144 LINE",
"675 249 LINE",
"938 249 LINE",
"969 395 LINE",
"706 395 LINE",
"729 500 LINE",
"1029 500 LINE",
"1059 644 LINE",
"571 644 LINE",
"567 624 LINE",
"537 639 OFFCURVE",
"487 654 OFFCURVE",
"436 654 CURVE SMOOTH",
"213 654 OFFCURVE",
"87 560 OFFCURVE",
"36 320 CURVE SMOOTH",
"28 282 OFFCURVE",
"24 248 OFFCURVE",
"24 218 CURVE SMOOTH",
"24 59 OFFCURVE",
"128 -10 OFFCURVE",
"294 -10 CURVE SMOOTH"
);
},
{
closed = 1;
nodes = (
"250 150 OFFCURVE",
"217 175 OFFCURVE",
"217 239 CURVE SMOOTH",
"217 261 OFFCURVE",
"221 288 OFFCURVE",
"228 320 CURVE SMOOTH",
"256 447 OFFCURVE",
"306 494 OFFCURVE",
"402 494 CURVE SMOOTH",
"480 494 OFFCURVE",
"512 468 OFFCURVE",
"512 401 CURVE SMOOTH",
"512 379 OFFCURVE",
"509 352 OFFCURVE",
"502 320 CURVE SMOOTH",
"476 201 OFFCURVE",
"424 150 OFFCURVE",
"328 150 CURVE SMOOTH"
);
}
);
width = 1004;
}
);
leftKerningGroup = C;
note = OE;
unicode = 0152;
},
{
glyphname = P;
lastChange = "2015-11-25 11:50:17 +0000";
layers = (
{
layerId = "D9861EBB-D268-4716-B046-FAB51EB1D86F";
name = "Bold Italic";
paths = (
{
closed = 1;
nodes = (
"177 0 LINE",
"213 173 LINE",
"365 173 LINE SMOOTH",
"524 173 OFFCURVE",
"610 271 OFFCURVE",
"639 407 CURVE SMOOTH",
"643 426 OFFCURVE",
"645 444 OFFCURVE",
"645 462 CURVE SMOOTH",
"645 567 OFFCURVE",
"574 644 OFFCURVE",
"443 644 CURVE SMOOTH",
"125 644 LINE",
"-11 0 LINE"
);
},
{
closed = 1;
nodes = (
"283 500 LINE",
"385 500 LINE SMOOTH",
"434 500 OFFCURVE",
"451 479 OFFCURVE",
"451 443 CURVE SMOOTH",
"451 432 OFFCURVE",
"450 420 OFFCURVE",
"447 407 CURVE SMOOTH",
"436 354 OFFCURVE",
"409 317 OFFCURVE",
"341 317 CURVE SMOOTH",
"244 317 LINE"
);
}
);
width = 614;
}
);
note = P;
unicode = 0050;
},
{
glyphname = Thorn;
lastChange = "2015-11-25 11:53:25 +0000";
layers = (
{
layerId = "D9861EBB-D268-4716-B046-FAB51EB1D86F";
name = "Bold Italic";
paths = (
{
closed = 1;
nodes = (
"177 0 LINE",
"196 90 LINE",
"336 90 LINE SMOOTH",
"498 90 OFFCURVE",
"598 184 OFFCURVE",
"621 321 CURVE SMOOTH",
"624 336 OFFCURVE",
"625 352 OFFCURVE",
"625 366 CURVE SMOOTH",
"625 467 OFFCURVE",
"565 553 OFFCURVE",
"438 553 CURVE SMOOTH",
"294 553 LINE",
"313 644 LINE",
"125 644 LINE",
"-11 0 LINE"
);
},
{
closed = 1;
nodes = (
"263 409 LINE",
"365 409 LINE SMOOTH",
"417 409 OFFCURVE",
"435 391 OFFCURVE",
"435 358 CURVE SMOOTH",
"435 347 OFFCURVE",
"433 335 OFFCURVE",
"430 321 CURVE SMOOTH",
"418 268 OFFCURVE",
"395 234 OFFCURVE",
"323 234 CURVE SMOOTH",
"226 234 LINE"
);
}
);
width = 614;
}
);
note = Thorn;
unicode = 00DE;
},
{
glyphname = Q;
lastChange = "2015-11-25 11:50:16 +0000";
layers = (
{
layerId = "D9861EBB-D268-4716-B046-FAB51EB1D86F";
name = "Bold Italic";
paths = (
{
closed = 1;
nodes = (
"401 -172 OFFCURVE",
"431 -168 OFFCURVE",
"452 -162 CURVE",
"477 -46 LINE",
"455 -52 OFFCURVE",
"432 -56 OFFCURVE",
"412 -56 CURVE SMOOTH",
"383 -56 OFFCURVE",
"371 -50 OFFCURVE",
"371 -27 CURVE SMOOTH",
"371 -21 OFFCURVE",
"372 -14 OFFCURVE",
"373 -5 CURVE",
"549 16 OFFCURVE",
"651 116 OFFCURVE",
"695 320 CURVE SMOOTH",
"703 359 OFFCURVE",
"707 394 OFFCURVE",
"707 425 CURVE SMOOTH",
"707 582 OFFCURVE",
"608 654 OFFCURVE",
"437 654 CURVE SMOOTH",
"214 654 OFFCURVE",
"88 560 OFFCURVE",
"37 320 CURVE SMOOTH",
"29 282 OFFCURVE",
"25 248 OFFCURVE",
"25 217 CURVE SMOOTH",
"25 82 OFFCURVE",
"101 12 OFFCURVE",
"226 -5 CURVE",
"223 -22 OFFCURVE",
"221 -38 OFFCURVE",
"221 -52 CURVE SMOOTH",
"221 -132 OFFCURVE",
"273 -172 OFFCURVE",
"379 -172 CURVE SMOOTH"
);
},
{
closed = 1;
nodes = (
"251 150 OFFCURVE",
"218 175 OFFCURVE",
"218 239 CURVE SMOOTH",
"218 261 OFFCURVE",
"222 288 OFFCURVE",
"229 320 CURVE SMOOTH",
"257 447 OFFCURVE",
"307 494 OFFCURVE",
"403 494 CURVE SMOOTH",
"481 494 OFFCURVE",
"513 468 OFFCURVE",
"513 401 CURVE SMOOTH",
"513 379 OFFCURVE",
"510 352 OFFCURVE",
"503 320 CURVE SMOOTH",
"477 201 OFFCURVE",
"425 150 OFFCURVE",
"329 150 CURVE SMOOTH"
);
}
);
width = 708;
}
);
leftKerningGroup = O;
note = Q;
rightKerningGroup = O;
unicode = 0051;
},
{
glyphname = R;
lastChange = "2015-11-25 11:50:17 +0000";
layers = (
{
layerId = "D9861EBB-D268-4716-B046-FAB51EB1D86F";
name = "Bold Italic";
paths = (
{
closed = 1;
nodes = (
"177 0 LINE",
"216 188 LINE",
"269 188 LINE SMOOTH",
"297 188 OFFCURVE",
"308 179 OFFCURVE",
"314 155 CURVE SMOOTH",
"350 0 LINE",
"546 0 LINE",
"507 169 LINE SMOOTH",
"500 198 OFFCURVE",
"495 213 OFFCURVE",
"482 225 CURVE",
"562 260 OFFCURVE",
"623 328 OFFCURVE",
"642 415 CURVE SMOOTH",
"646 436 OFFCURVE",
"648 455 OFFCURVE",
"648 474 CURVE SMOOTH",
"648 576 OFFCURVE",
"583 644 OFFCURVE",
"460 644 CURVE SMOOTH",
"125 644 LINE",
"-11 0 LINE"
);
},
{
closed = 1;
nodes = (
"283 500 LINE",
"388 500 LINE SMOOTH",
"436 500 OFFCURVE",
"454 481 OFFCURVE",
"454 447 CURVE SMOOTH",
"454 437 OFFCURVE",
"452 427 OFFCURVE",
"450 415 CURVE SMOOTH",
"438 361 OFFCURVE",
"401 332 OFFCURVE",
"346 332 CURVE SMOOTH",
"247 332 LINE"
);
}
);
width = 635;
}
);
note = R;
rightKerningGroup = R;
unicode = 0052;
},
{
glyphname = Racute;
lastChange = "2015-11-25 11:50:15 +0000";
layers = (
{
layerId = "D9861EBB-D268-4716-B046-FAB51EB1D86F";
name = "Bold Italic";
paths = (
{
closed = 1;
nodes = (
"177 0 LINE",
"216 188 LINE",
"269 188 LINE SMOOTH",
"297 188 OFFCURVE",
"308 179 OFFCURVE",
"314 155 CURVE SMOOTH",
"350 0 LINE",
"546 0 LINE",
"507 169 LINE SMOOTH",
"500 198 OFFCURVE",
"495 213 OFFCURVE",
"482 225 CURVE",
"562 260 OFFCURVE",
"623 328 OFFCURVE",
"642 415 CURVE SMOOTH",
"646 436 OFFCURVE",
"648 455 OFFCURVE",
"648 474 CURVE SMOOTH",
"648 576 OFFCURVE",
"583 644 OFFCURVE",
"460 644 CURVE SMOOTH",
"125 644 LINE",
"-11 0 LINE"
);
},
{
closed = 1;
nodes = (
"283 500 LINE",
"388 500 LINE SMOOTH",
"436 500 OFFCURVE",
"454 481 OFFCURVE",
"454 447 CURVE SMOOTH",
"454 437 OFFCURVE",
"452 427 OFFCURVE",
"450 415 CURVE SMOOTH",
"438 361 OFFCURVE",
"401 332 OFFCURVE",
"346 332 CURVE SMOOTH",
"247 332 LINE"
);
},
{
closed = 1;
nodes = (
"411 688 LINE",
"551 894 LINE",
"405 894 LINE",
"273 688 LINE"
);
}
);
width = 635;
}
);
note = Racute;
rightKerningGroup = R;
unicode = 0154;
},
{
glyphname = Rcaron;
lastChange = "2015-11-25 11:50:16 +0000";
layers = (
{
layerId = "D9861EBB-D268-4716-B046-FAB51EB1D86F";
name = "Bold Italic";
paths = (
{
closed = 1;
nodes = (
"177 0 LINE",
"216 188 LINE",
"269 188 LINE SMOOTH",
"297 188 OFFCURVE",
"308 179 OFFCURVE",
"314 155 CURVE SMOOTH",
"350 0 LINE",
"546 0 LINE",
"507 169 LINE SMOOTH",
"500 198 OFFCURVE",
"495 213 OFFCURVE",
"482 225 CURVE",
"562 260 OFFCURVE",
"623 328 OFFCURVE",
"642 415 CURVE SMOOTH",
"646 436 OFFCURVE",
"648 455 OFFCURVE",
"648 474 CURVE SMOOTH",
"648 576 OFFCURVE",
"583 644 OFFCURVE",
"460 644 CURVE SMOOTH",
"125 644 LINE",
"-11 0 LINE"
);
},
{
closed = 1;
nodes = (
"283 500 LINE",
"388 500 LINE SMOOTH",
"436 500 OFFCURVE",
"454 481 OFFCURVE",
"454 447 CURVE SMOOTH",
"454 437 OFFCURVE",
"452 427 OFFCURVE",
"450 415 CURVE SMOOTH",
"438 361 OFFCURVE",
"401 332 OFFCURVE",
"346 332 CURVE SMOOTH",
"247 332 LINE"
);
},
{
closed = 1;
nodes = (
"414 688 LINE",
"611 888 LINE",
"470 888 LINE",
"371 779 LINE",
"322 888 LINE",
"188 888 LINE",
"300 688 LINE"
);
}
);
width = 635;
}
);
note = Rcaron;
rightKerningGroup = R;
unicode = 0158;
},
{
glyphname = Rcommaaccent;
lastChange = "2015-11-25 11:53:32 +0000";
layers = (
{
layerId = "D9861EBB-D268-4716-B046-FAB51EB1D86F";
name = "Bold Italic";
paths = (
{
closed = 1;
nodes = (
"177 0 LINE",
"216 188 LINE",
"269 188 LINE SMOOTH",
"297 188 OFFCURVE",
"308 179 OFFCURVE",
"314 155 CURVE SMOOTH",
"350 0 LINE",
"546 0 LINE",
"507 169 LINE SMOOTH",
"500 198 OFFCURVE",
"495 213 OFFCURVE",
"482 225 CURVE",
"562 260 OFFCURVE",
"623 328 OFFCURVE",
"642 415 CURVE SMOOTH",
"646 436 OFFCURVE",
"648 455 OFFCURVE",
"648 474 CURVE SMOOTH",
"648 576 OFFCURVE",
"583 644 OFFCURVE",
"460 644 CURVE SMOOTH",
"125 644 LINE",
"-11 0 LINE"
);
},
{
closed = 1;
nodes = (
"283 500 LINE",
"388 500 LINE SMOOTH",
"436 500 OFFCURVE",
"454 481 OFFCURVE",
"454 447 CURVE SMOOTH",
"454 437 OFFCURVE",
"452 427 OFFCURVE",
"450 415 CURVE SMOOTH",
"438 361 OFFCURVE",
"401 332 OFFCURVE",
"346 332 CURVE SMOOTH",
"247 332 LINE"
);
},
{
closed = 1;
nodes = (
"218 -262 LINE",
"323 -37 LINE",
"170 -37 LINE",
"89 -262 LINE"
);
}
);
width = 635;
}
);
note = Rcommaaccent;
rightKerningGroup = R;
unicode = 0156;
},
{
glyphname = Rdotbelow;
lastChange = "2015-11-25 11:53:36 +0000";
layers = (
{
layerId = "D9861EBB-D268-4716-B046-FAB51EB1D86F";
name = "Bold Italic";
paths = (
{
closed = 1;
nodes = (
"177 0 LINE",
"216 188 LINE",
"269 188 LINE SMOOTH",
"297 188 OFFCURVE",
"308 179 OFFCURVE",
"314 155 CURVE SMOOTH",
"350 0 LINE",
"546 0 LINE",
"507 169 LINE SMOOTH",
"500 198 OFFCURVE",
"495 213 OFFCURVE",
"482 225 CURVE",
"562 260 OFFCURVE",
"623 328 OFFCURVE",
"642 415 CURVE SMOOTH",
"646 436 OFFCURVE",
"648 455 OFFCURVE",
"648 474 CURVE SMOOTH",
"648 576 OFFCURVE",
"583 644 OFFCURVE",
"460 644 CURVE SMOOTH",
"125 644 LINE",
"-11 0 LINE"
);
},
{
closed = 1;
nodes = (
"283 500 LINE",
"388 500 LINE SMOOTH",
"436 500 OFFCURVE",
"454 481 OFFCURVE",
"454 447 CURVE SMOOTH",
"454 437 OFFCURVE",
"452 427 OFFCURVE",
"450 415 CURVE SMOOTH",
"438 361 OFFCURVE",
"401 332 OFFCURVE",
"346 332 CURVE SMOOTH",
"247 332 LINE"
);
},
{
closed = 1;
nodes = (
"270 -176 LINE",
"295 -56 LINE",
"165 -56 LINE",
"140 -176 LINE"
);
}
);
width = 635;
}
);
note = Rdotbelow;
rightKerningGroup = R;
unicode = 1E5A;
},
{
glyphname = Rdotbelowmacron;
lastChange = "2015-11-25 11:53:41 +0000";
layers = (
{
layerId = "D9861EBB-D268-4716-B046-FAB51EB1D86F";
name = "Bold Italic";
paths = (
{
closed = 1;
nodes = (
"177 0 LINE",
"216 188 LINE",
"269 188 LINE SMOOTH",
"297 188 OFFCURVE",
"308 179 OFFCURVE",
"314 155 CURVE SMOOTH",
"350 0 LINE",
"546 0 LINE",
"507 169 LINE SMOOTH",
"500 198 OFFCURVE",
"495 213 OFFCURVE",
"482 225 CURVE",
"562 260 OFFCURVE",
"623 328 OFFCURVE",
"642 415 CURVE SMOOTH",
"646 436 OFFCURVE",
"648 455 OFFCURVE",
"648 474 CURVE SMOOTH",
"648 576 OFFCURVE",
"583 644 OFFCURVE",
"460 644 CURVE SMOOTH",
"125 644 LINE",
"-11 0 LINE"
);
},
{
closed = 1;
nodes = (
"283 500 LINE",
"388 500 LINE SMOOTH",
"436 500 OFFCURVE",
"454 481 OFFCURVE",
"454 447 CURVE SMOOTH",
"454 437 OFFCURVE",
"452 427 OFFCURVE",
"450 415 CURVE SMOOTH",
"438 361 OFFCURVE",
"401 332 OFFCURVE",
"346 332 CURVE SMOOTH",
"247 332 LINE"
);
},
{
closed = 1;
nodes = (
"270 -176 LINE",
"295 -56 LINE",
"165 -56 LINE",
"140 -176 LINE"
);
},
{
closed = 1;
nodes = (
"522 717 LINE",
"546 829 LINE",
"219 829 LINE",
"195 717 LINE"
);
}
);
width = 635;
}
);
note = Rdotbelowmacron;
rightKerningGroup = R;
unicode = 1E5C;
},
{
glyphname = Rlinebelow;
lastChange = "2015-11-25 11:53:45 +0000";
layers = (
{
layerId = "D9861EBB-D268-4716-B046-FAB51EB1D86F";
name = "Bold Italic";
paths = (
{
closed = 1;
nodes = (
"177 0 LINE",
"216 188 LINE",
"269 188 LINE SMOOTH",
"297 188 OFFCURVE",
"308 179 OFFCURVE",
"314 155 CURVE SMOOTH",
"350 0 LINE",
"546 0 LINE",
"507 169 LINE SMOOTH",
"500 198 OFFCURVE",
"495 213 OFFCURVE",
"482 225 CURVE",
"562 260 OFFCURVE",
"623 328 OFFCURVE",
"642 415 CURVE SMOOTH",
"646 436 OFFCURVE",
"648 455 OFFCURVE",
"648 474 CURVE SMOOTH",
"648 576 OFFCURVE",
"583 644 OFFCURVE",
"460 644 CURVE SMOOTH",
"125 644 LINE",
"-11 0 LINE"
);
},
{
closed = 1;
nodes = (
"283 500 LINE",
"388 500 LINE SMOOTH",
"436 500 OFFCURVE",
"454 481 OFFCURVE",
"454 447 CURVE SMOOTH",
"454 437 OFFCURVE",
"452 427 OFFCURVE",
"450 415 CURVE SMOOTH",
"438 361 OFFCURVE",
"401 332 OFFCURVE",
"346 332 CURVE SMOOTH",
"247 332 LINE"
);
},
{
closed = 1;
nodes = (
"369 -176 LINE",
"393 -64 LINE",
"66 -64 LINE",
"42 -176 LINE"
);
}
);
width = 635;
}
);
note = Rlinebelow;
rightKerningGroup = R;
unicode = 1E5E;
},
{
glyphname = S;
lastChange = "2015-11-25 11:50:19 +0000";
layers = (
{
layerId = "D9861EBB-D268-4716-B046-FAB51EB1D86F";
name = "Bold Italic";
paths = (
{
closed = 1;
nodes = (
"407 -10 OFFCURVE",
"488 68 OFFCURVE",
"513 185 CURVE SMOOTH",
"517 205 OFFCURVE",
"520 224 OFFCURVE",
"520 241 CURVE SMOOTH",
"520 310 OFFCURVE",
"481 360 OFFCURVE",
"365 395 CURVE SMOOTH",
"288 419 OFFCURVE",
"257 426 OFFCURVE",
"257 452 CURVE SMOOTH",
"257 455 OFFCURVE",
"257 458 OFFCURVE",
"258 461 CURVE SMOOTH",
"267 500 OFFCURVE",
"315 504 OFFCURVE",
"374 504 CURVE SMOOTH",
"424 504 OFFCURVE",
"480 494 OFFCURVE",
"537 469 CURVE",
"570 625 LINE",
"527 640 OFFCURVE",
"447 654 OFFCURVE",
"376 654 CURVE SMOOTH",
"188 654 OFFCURVE",
"93 587 OFFCURVE",
"66 460 CURVE SMOOTH",
"62 443 OFFCURVE",
"61 428 OFFCURVE",
"61 413 CURVE SMOOTH",
"61 339 OFFCURVE",
"108 297 OFFCURVE",
"199 265 CURVE SMOOTH",
"280 237 OFFCURVE",
"322 228 OFFCURVE",
"322 195 CURVE SMOOTH",
"322 192 OFFCURVE",
"322 189 OFFCURVE",
"321 185 CURVE SMOOTH",
"312 145 OFFCURVE",
"276 138 OFFCURVE",
"210 138 CURVE SMOOTH",
"146 138 OFFCURVE",
"71 157 OFFCURVE",
"17 185 CURVE",
"-16 30 LINE",
"32 4 OFFCURVE",
"110 -10 OFFCURVE",
"197 -10 CURVE SMOOTH"
);
}
);
width = 555;
}
);
leftKerningGroup = S;
note = S;
rightKerningGroup = S;
unicode = 0053;
},
{
glyphname = Sacute;
lastChange = "2015-11-25 11:50:15 +0000";
layers = (
{
layerId = "D9861EBB-D268-4716-B046-FAB51EB1D86F";
name = "Bold Italic";
paths = (
{
closed = 1;
nodes = (
"407 -10 OFFCURVE",
"488 68 OFFCURVE",
"513 185 CURVE SMOOTH",
"517 205 OFFCURVE",
"520 224 OFFCURVE",
"520 241 CURVE SMOOTH",
"520 310 OFFCURVE",
"481 360 OFFCURVE",
"365 395 CURVE SMOOTH",
"288 419 OFFCURVE",
"257 426 OFFCURVE",
"257 452 CURVE SMOOTH",
"257 455 OFFCURVE",
"257 458 OFFCURVE",
"258 461 CURVE SMOOTH",
"267 500 OFFCURVE",
"315 504 OFFCURVE",
"374 504 CURVE SMOOTH",
"424 504 OFFCURVE",
"480 494 OFFCURVE",
"537 469 CURVE",
"570 625 LINE",
"527 640 OFFCURVE",
"447 654 OFFCURVE",
"376 654 CURVE SMOOTH",
"188 654 OFFCURVE",
"93 587 OFFCURVE",
"66 460 CURVE SMOOTH",
"62 443 OFFCURVE",
"61 428 OFFCURVE",
"61 413 CURVE SMOOTH",
"61 339 OFFCURVE",
"108 297 OFFCURVE",
"199 265 CURVE SMOOTH",
"280 237 OFFCURVE",
"322 228 OFFCURVE",
"322 195 CURVE SMOOTH",
"322 192 OFFCURVE",
"322 189 OFFCURVE",
"321 185 CURVE SMOOTH",
"312 145 OFFCURVE",
"276 138 OFFCURVE",
"210 138 CURVE SMOOTH",
"146 138 OFFCURVE",
"71 157 OFFCURVE",
"17 185 CURVE",
"-16 30 LINE",
"32 4 OFFCURVE",
"110 -10 OFFCURVE",
"197 -10 CURVE SMOOTH"
);
},
{
closed = 1;
nodes = (
"421 689 LINE",
"561 895 LINE",
"415 895 LINE",
"283 689 LINE"
);
}
);
width = 555;
}
);
leftKerningGroup = S;
note = Sacute;
rightKerningGroup = S;
unicode = 015A;
},
{
glyphname = Scaron;
lastChange = "2015-11-25 11:50:16 +0000";
layers = (
{
layerId = "D9861EBB-D268-4716-B046-FAB51EB1D86F";
name = "Bold Italic";
paths = (
{
closed = 1;
nodes = (
"407 -10 OFFCURVE",
"488 68 OFFCURVE",
"513 185 CURVE SMOOTH",
"517 205 OFFCURVE",
"520 224 OFFCURVE",
"520 241 CURVE SMOOTH",
"520 310 OFFCURVE",
"481 360 OFFCURVE",
"365 395 CURVE SMOOTH",
"288 419 OFFCURVE",
"257 426 OFFCURVE",
"257 452 CURVE SMOOTH",
"257 455 OFFCURVE",
"257 458 OFFCURVE",
"258 461 CURVE SMOOTH",
"267 500 OFFCURVE",
"315 504 OFFCURVE",
"374 504 CURVE SMOOTH",
"424 504 OFFCURVE",
"480 494 OFFCURVE",
"537 469 CURVE",
"570 625 LINE",
"527 640 OFFCURVE",
"447 654 OFFCURVE",
"376 654 CURVE SMOOTH",
"188 654 OFFCURVE",
"93 587 OFFCURVE",
"66 460 CURVE SMOOTH",
"62 443 OFFCURVE",
"61 428 OFFCURVE",
"61 413 CURVE SMOOTH",
"61 339 OFFCURVE",
"108 297 OFFCURVE",
"199 265 CURVE SMOOTH",
"280 237 OFFCURVE",
"322 228 OFFCURVE",
"322 195 CURVE SMOOTH",
"322 192 OFFCURVE",
"322 189 OFFCURVE",
"321 185 CURVE SMOOTH",
"312 145 OFFCURVE",
"276 138 OFFCURVE",
"210 138 CURVE SMOOTH",
"146 138 OFFCURVE",
"71 157 OFFCURVE",
"17 185 CURVE",
"-16 30 LINE",
"32 4 OFFCURVE",
"110 -10 OFFCURVE",
"197 -10 CURVE SMOOTH"
);
},
{
closed = 1;
nodes = (
"416 688 LINE",
"613 888 LINE",
"472 888 LINE",
"373 779 LINE",
"324 888 LINE",
"190 888 LINE",
"302 688 LINE"
);
}
);
width = 555;
}
);
leftKerningGroup = S;
note = Scaron;
rightKerningGroup = S;
unicode = 0160;
},
{
glyphname = Scedilla;
lastChange = "2015-11-25 11:50:18 +0000";
layers = (
{
layerId = "D9861EBB-D268-4716-B046-FAB51EB1D86F";
name = "Bold Italic";
paths = (
{
closed = 1;
nodes = (
"260 -240 OFFCURVE",
"321 -201 OFFCURVE",
"335 -135 CURVE SMOOTH",
"337 -127 OFFCURVE",
"338 -119 OFFCURVE",
"338 -111 CURVE SMOOTH",
"338 -69 OFFCURVE",
"310 -41 OFFCURVE",
"243 -41 CURVE",
"263 -7 LINE",
"424 8 OFFCURVE",
"491 81 OFFCURVE",
"513 185 CURVE SMOOTH",
"517 205 OFFCURVE",
"520 224 OFFCURVE",
"520 241 CURVE SMOOTH",
"520 310 OFFCURVE",
"481 360 OFFCURVE",
"365 395 CURVE SMOOTH",
"288 419 OFFCURVE",
"257 426 OFFCURVE",
"257 452 CURVE SMOOTH",
"257 455 OFFCURVE",
"257 458 OFFCURVE",
"258 461 CURVE SMOOTH",
"267 500 OFFCURVE",
"315 504 OFFCURVE",
"374 504 CURVE SMOOTH",
"424 504 OFFCURVE",
"480 494 OFFCURVE",
"537 469 CURVE",
"570 625 LINE",
"527 640 OFFCURVE",
"447 654 OFFCURVE",
"376 654 CURVE SMOOTH",
"188 654 OFFCURVE",
"93 587 OFFCURVE",
"66 460 CURVE SMOOTH",
"62 443 OFFCURVE",
"61 428 OFFCURVE",
"61 413 CURVE SMOOTH",
"61 339 OFFCURVE",
"108 297 OFFCURVE",
"199 265 CURVE SMOOTH",
"280 237 OFFCURVE",
"322 228 OFFCURVE",
"322 195 CURVE SMOOTH",
"322 192 OFFCURVE",
"322 189 OFFCURVE",
"321 185 CURVE SMOOTH",
"312 145 OFFCURVE",
"276 138 OFFCURVE",
"210 138 CURVE SMOOTH",
"146 138 OFFCURVE",
"71 157 OFFCURVE",
"17 185 CURVE",
"-16 30 LINE",
"25 8 OFFCURVE",
"88 -5 OFFCURVE",
"159 -9 CURVE",
"114 -101 LINE",
"177 -101 LINE SMOOTH",
"205 -101 OFFCURVE",
"225 -104 OFFCURVE",
"225 -124 CURVE SMOOTH",
"225 -156 OFFCURVE",
"201 -166 OFFCURVE",
"145 -166 CURVE SMOOTH",
"125 -166 OFFCURVE",
"105 -163 OFFCURVE",
"88 -158 CURVE",
"72 -232 LINE",
"86 -236 OFFCURVE",
"128 -240 OFFCURVE",
"152 -240 CURVE SMOOTH"
);
}
);
width = 555;
}
);
leftKerningGroup = S;
note = Scedilla;
rightKerningGroup = S;
unicode = 015E;
},
{
glyphname = Scircumflex;
lastChange = "2015-11-25 11:50:16 +0000";
layers = (
{
layerId = "D9861EBB-D268-4716-B046-FAB51EB1D86F";
name = "Bold Italic";
paths = (
{
closed = 1;
nodes = (
"407 -10 OFFCURVE",
"488 68 OFFCURVE",
"513 185 CURVE SMOOTH",
"517 205 OFFCURVE",
"520 224 OFFCURVE",
"520 241 CURVE SMOOTH",
"520 310 OFFCURVE",
"481 360 OFFCURVE",
"365 395 CURVE SMOOTH",
"288 419 OFFCURVE",
"257 426 OFFCURVE",
"257 452 CURVE SMOOTH",
"257 455 OFFCURVE",
"257 458 OFFCURVE",
"258 461 CURVE SMOOTH",
"267 500 OFFCURVE",
"315 504 OFFCURVE",
"374 504 CURVE SMOOTH",
"424 504 OFFCURVE",
"480 494 OFFCURVE",
"537 469 CURVE",
"570 625 LINE",
"527 640 OFFCURVE",
"447 654 OFFCURVE",
"376 654 CURVE SMOOTH",
"188 654 OFFCURVE",
"93 587 OFFCURVE",
"66 460 CURVE SMOOTH",
"62 443 OFFCURVE",
"61 428 OFFCURVE",
"61 413 CURVE SMOOTH",
"61 339 OFFCURVE",
"108 297 OFFCURVE",
"199 265 CURVE SMOOTH",
"280 237 OFFCURVE",
"322 228 OFFCURVE",
"322 195 CURVE SMOOTH",
"322 192 OFFCURVE",
"322 189 OFFCURVE",
"321 185 CURVE SMOOTH",
"312 145 OFFCURVE",
"276 138 OFFCURVE",
"210 138 CURVE SMOOTH",
"146 138 OFFCURVE",
"71 157 OFFCURVE",
"17 185 CURVE",
"-16 30 LINE",
"32 4 OFFCURVE",
"110 -10 OFFCURVE",
"197 -10 CURVE SMOOTH"
);
},
{
closed = 1;
nodes = (
"288 688 LINE",
"381 796 LINE",
"435 688 LINE",
"566 688 LINE",
"453 888 LINE",
"339 888 LINE",
"143 688 LINE"
);
}
);
width = 555;
}
);
leftKerningGroup = S;
note = Scircumflex;
rightKerningGroup = S;
unicode = 015C;
},
{
glyphname = Scommaaccent;
lastChange = "2015-11-25 11:50:16 +0000";
layers = (
{
layerId = "D9861EBB-D268-4716-B046-FAB51EB1D86F";
name = "Bold Italic";
paths = (
{
closed = 1;
nodes = (
"407 -10 OFFCURVE",
"488 68 OFFCURVE",
"513 185 CURVE SMOOTH",
"517 205 OFFCURVE",
"520 224 OFFCURVE",
"520 241 CURVE SMOOTH",
"520 310 OFFCURVE",
"481 360 OFFCURVE",
"365 395 CURVE SMOOTH",
"288 419 OFFCURVE",
"257 426 OFFCURVE",
"257 452 CURVE SMOOTH",
"257 455 OFFCURVE",
"257 458 OFFCURVE",
"258 461 CURVE SMOOTH",
"267 500 OFFCURVE",
"315 504 OFFCURVE",
"374 504 CURVE SMOOTH",
"424 504 OFFCURVE",
"480 494 OFFCURVE",
"537 469 CURVE",
"570 625 LINE",
"527 640 OFFCURVE",
"447 654 OFFCURVE",
"376 654 CURVE SMOOTH",
"188 654 OFFCURVE",
"93 587 OFFCURVE",
"66 460 CURVE SMOOTH",
"62 443 OFFCURVE",
"61 428 OFFCURVE",
"61 413 CURVE SMOOTH",
"61 339 OFFCURVE",
"108 297 OFFCURVE",
"199 265 CURVE SMOOTH",
"280 237 OFFCURVE",
"322 228 OFFCURVE",
"322 195 CURVE SMOOTH",
"322 192 OFFCURVE",
"322 189 OFFCURVE",
"321 185 CURVE SMOOTH",
"312 145 OFFCURVE",
"276 138 OFFCURVE",
"210 138 CURVE SMOOTH",
"146 138 OFFCURVE",
"71 157 OFFCURVE",
"17 185 CURVE",
"-16 30 LINE",
"32 4 OFFCURVE",
"110 -10 OFFCURVE",
"197 -10 CURVE SMOOTH"
);
},
{
closed = 1;
nodes = (
"207 -234 LINE",
"294 -42 LINE",
"146 -42 LINE",
"73 -234 LINE"
);
}
);
width = 555;
}
);
leftKerningGroup = S;
note = Scommaaccent;
rightKerningGroup = S;
unicode = 0218;
},
{
glyphname = Sdotaccent;
lastChange = "2015-11-25 11:50:16 +0000";
layers = (
{
layerId = "D9861EBB-D268-4716-B046-FAB51EB1D86F";
name = "Bold Italic";
paths = (
{
closed = 1;
nodes = (
"407 -10 OFFCURVE",
"488 68 OFFCURVE",
"513 185 CURVE SMOOTH",
"517 205 OFFCURVE",
"520 224 OFFCURVE",
"520 241 CURVE SMOOTH",
"520 310 OFFCURVE",
"481 360 OFFCURVE",
"365 395 CURVE SMOOTH",
"288 419 OFFCURVE",
"257 426 OFFCURVE",
"257 452 CURVE SMOOTH",
"257 455 OFFCURVE",
"257 458 OFFCURVE",
"258 461 CURVE SMOOTH",
"267 500 OFFCURVE",
"315 504 OFFCURVE",
"374 504 CURVE SMOOTH",
"424 504 OFFCURVE",
"480 494 OFFCURVE",
"537 469 CURVE",
"570 625 LINE",
"527 640 OFFCURVE",
"447 654 OFFCURVE",
"376 654 CURVE SMOOTH",
"188 654 OFFCURVE",
"93 587 OFFCURVE",
"66 460 CURVE SMOOTH",
"62 443 OFFCURVE",
"61 428 OFFCURVE",
"61 413 CURVE SMOOTH",
"61 339 OFFCURVE",
"108 297 OFFCURVE",
"199 265 CURVE SMOOTH",
"280 237 OFFCURVE",
"322 228 OFFCURVE",
"322 195 CURVE SMOOTH",
"322 192 OFFCURVE",
"322 189 OFFCURVE",
"321 185 CURVE SMOOTH",
"312 145 OFFCURVE",
"276 138 OFFCURVE",
"210 138 CURVE SMOOTH",
"146 138 OFFCURVE",
"71 157 OFFCURVE",
"17 185 CURVE",
"-16 30 LINE",
"32 4 OFFCURVE",
"110 -10 OFFCURVE",
"197 -10 CURVE SMOOTH"
);
},
{
closed = 1;
nodes = (
"432 715 LINE",
"458 835 LINE",
"328 835 LINE",
"302 715 LINE"
);
}
);
width = 555;
}
);
leftKerningGroup = S;
note = Sdotaccent;
rightKerningGroup = S;
unicode = 1E60;
},
{
glyphname = Sdotbelow;
lastChange = "2015-11-25 11:50:17 +0000";
layers = (
{
layerId = "D9861EBB-D268-4716-B046-FAB51EB1D86F";
name = "Bold Italic";
paths = (
{
closed = 1;
nodes = (
"407 -10 OFFCURVE",
"488 68 OFFCURVE",
"513 185 CURVE SMOOTH",
"517 205 OFFCURVE",
"520 224 OFFCURVE",
"520 241 CURVE SMOOTH",
"520 310 OFFCURVE",
"481 360 OFFCURVE",
"365 395 CURVE SMOOTH",
"288 419 OFFCURVE",
"257 426 OFFCURVE",
"257 452 CURVE SMOOTH",
"257 455 OFFCURVE",
"257 458 OFFCURVE",
"258 461 CURVE SMOOTH",
"267 500 OFFCURVE",
"315 504 OFFCURVE",
"374 504 CURVE SMOOTH",
"424 504 OFFCURVE",
"480 494 OFFCURVE",
"537 469 CURVE",
"570 625 LINE",
"527 640 OFFCURVE",
"447 654 OFFCURVE",
"376 654 CURVE SMOOTH",
"188 654 OFFCURVE",
"93 587 OFFCURVE",
"66 460 CURVE SMOOTH",
"62 443 OFFCURVE",
"61 428 OFFCURVE",
"61 413 CURVE SMOOTH",
"61 339 OFFCURVE",
"108 297 OFFCURVE",
"199 265 CURVE SMOOTH",
"280 237 OFFCURVE",
"322 228 OFFCURVE",
"322 195 CURVE SMOOTH",
"322 192 OFFCURVE",
"322 189 OFFCURVE",
"321 185 CURVE SMOOTH",
"312 145 OFFCURVE",
"276 138 OFFCURVE",
"210 138 CURVE SMOOTH",
"146 138 OFFCURVE",
"71 157 OFFCURVE",
"17 185 CURVE",
"-16 30 LINE",
"32 4 OFFCURVE",
"110 -10 OFFCURVE",
"197 -10 CURVE SMOOTH"
);
},
{
closed = 1;
nodes = (
"243 -176 LINE",
"268 -56 LINE",
"138 -56 LINE",
"113 -176 LINE"
);
}
);
width = 555;
}
);
leftKerningGroup = S;
note = Sdotbelow;
rightKerningGroup = S;
unicode = 1E62;
},
{
glyphname = Germandbls;
lastChange = "2015-11-25 11:50:18 +0000";
layers = (
{
layerId = "D9861EBB-D268-4716-B046-FAB51EB1D86F";
name = "Bold Italic";
paths = (
{
closed = 1;
nodes = (
"486 -10 OFFCURVE",
"578 58 OFFCURVE",
"596 175 CURVE SMOOTH",
"598 186 OFFCURVE",
"598 196 OFFCURVE",
"598 206 CURVE SMOOTH",
"598 274 OFFCURVE",
"559 322 OFFCURVE",
"489 322 CURVE SMOOTH",
"471 322 LINE",
"626 421 LINE",
"630 438 OFFCURVE",
"631 454 OFFCURVE",
"631 470 CURVE SMOOTH",
"631 575 OFFCURVE",
"554 654 OFFCURVE",
"402 654 CURVE SMOOTH",
"213 654 OFFCURVE",
"102 559 OFFCURVE",
"70 409 CURVE SMOOTH",
"-16 0 LINE",
"161 0 LINE",
"246 401 LINE SMOOTH",
"258 459 OFFCURVE",
"296 494 OFFCURVE",
"380 494 CURVE SMOOTH",
"431 494 OFFCURVE",
"457 480 OFFCURVE",
"457 455 CURVE SMOOTH",
"457 453 OFFCURVE",
"457 450 OFFCURVE",
"456 447 CURVE",
"298 346 LINE",
"274 235 LINE",
"346 235 LINE SMOOTH",
"387 235 OFFCURVE",
"407 224 OFFCURVE",
"407 198 CURVE SMOOTH",
"407 194 OFFCURVE",
"407 190 OFFCURVE",
"406 185 CURVE SMOOTH",
"398 146 OFFCURVE",
"374 129 OFFCURVE",
"324 129 CURVE SMOOTH",
"296 129 OFFCURVE",
"262 135 OFFCURVE",
"240 145 CURVE",
"212 12 LINE",
"243 -2 OFFCURVE",
"291 -10 OFFCURVE",
"344 -10 CURVE SMOOTH"
);
}
);
width = 640;
}
);
note = uni1E9E;
unicode = 1E9E;
},
{
glyphname = Schwa;
lastChange = "2015-11-25 11:50:16 +0000";
layers = (
{
layerId = "D9861EBB-D268-4716-B046-FAB51EB1D86F";
name = "Bold Italic";
paths = (
{
closed = 1;
nodes = (
"520 -10 OFFCURVE",
"632 116 OFFCURVE",
"674 313 CURVE SMOOTH",
"680 344 OFFCURVE",
"684 372 OFFCURVE",
"684 399 CURVE SMOOTH",
"684 560 OFFCURVE",
"573 654 OFFCURVE",
"396 654 CURVE SMOOTH",
"299 654 OFFCURVE",
"199 633 OFFCURVE",
"132 609 CURVE",
"105 481 LINE",
"157 502 OFFCURVE",
"263 522 OFFCURVE",
"327 522 CURVE SMOOTH",
"469 522 OFFCURVE",
"516 501 OFFCURVE",
"516 421 CURVE SMOOTH",
"516 413 OFFCURVE",
"516 405 OFFCURVE",
"515 397 CURVE",
"53 397 LINE",
"27 277 LINE SMOOTH",
"22 252 OFFCURVE",
"19 229 OFFCURVE",
"19 207 CURVE SMOOTH",
"19 70 OFFCURVE",
"119 -10 OFFCURVE",
"279 -10 CURVE SMOOTH"
);
},
{
closed = 1;
nodes = (
"216 114 OFFCURVE",
"181 148 OFFCURVE",
"181 201 CURVE SMOOTH",
"181 211 OFFCURVE",
"183 222 OFFCURVE",
"185 234 CURVE SMOOTH",
"192 267 LINE",
"487 267 LINE",
"466 166 OFFCURVE",
"413 114 OFFCURVE",
"306 114 CURVE SMOOTH"
);
}
);
width = 689;
}
);
note = uni018F;
unicode = 018F;
},
{
glyphname = T;
lastChange = "2015-11-25 11:50:18 +0000";
layers = (
{
layerId = "D9861EBB-D268-4716-B046-FAB51EB1D86F";
name = "Bold Italic";
paths = (
{
closed = 1;
nodes = (
"318 0 LINE",
"425 504 LINE",
"606 504 LINE",
"635 644 LINE",
"85 644 LINE",
"56 504 LINE",
"237 504 LINE",
"130 0 LINE"
);
}
);
width = 560;
}
);
leftKerningGroup = T;
note = T;
rightKerningGroup = T;
unicode = 0054;
},
{
glyphname = Tbar;
lastChange = "2015-11-25 11:50:17 +0000";
layers = (
{
layerId = "D9861EBB-D268-4716-B046-FAB51EB1D86F";
name = "Bold Italic";
paths = (
{
closed = 1;
nodes = (
"318 0 LINE",
"374 266 LINE",
"471 266 LINE",
"498 392 LINE",
"401 392 LINE",
"425 504 LINE",
"606 504 LINE",
"635 644 LINE",
"85 644 LINE",
"56 504 LINE",
"237 504 LINE",
"213 392 LINE",
"116 392 LINE",
"89 266 LINE",
"186 266 LINE",
"130 0 LINE"
);
}
);
width = 560;
}
);
leftKerningGroup = T;
note = Tbar;
rightKerningGroup = T;
unicode = 0166;
},
{
glyphname = Tcaron;
lastChange = "2015-11-25 11:50:15 +0000";
layers = (
{
layerId = "D9861EBB-D268-4716-B046-FAB51EB1D86F";
name = "Bold Italic";
paths = (
{
closed = 1;
nodes = (
"318 0 LINE",
"425 504 LINE",
"606 504 LINE",
"635 644 LINE",
"85 644 LINE",
"56 504 LINE",
"237 504 LINE",
"130 0 LINE"
);
},
{
closed = 1;
nodes = (
"428 689 LINE",
"625 889 LINE",
"484 889 LINE",
"385 780 LINE",
"336 889 LINE",
"202 889 LINE",
"314 689 LINE"
);
}
);
width = 560;
}
);
leftKerningGroup = T;
note = Tcaron;
rightKerningGroup = T;
unicode = 0164;
},
{
glyphname = Tcedilla;
lastChange = "2015-11-25 11:50:16 +0000";
layers = (
{
layerId = "D9861EBB-D268-4716-B046-FAB51EB1D86F";
name = "Bold Italic";
paths = (
{
closed = 1;
nodes = (
"270 -240 OFFCURVE",
"331 -201 OFFCURVE",
"345 -135 CURVE SMOOTH",
"347 -127 OFFCURVE",
"348 -119 OFFCURVE",
"348 -111 CURVE SMOOTH",
"348 -69 OFFCURVE",
"320 -41 OFFCURVE",
"253 -41 CURVE",
"277 0 LINE",
"318 0 LINE",
"425 504 LINE",
"606 504 LINE",
"635 644 LINE",
"85 644 LINE",
"56 504 LINE",
"237 504 LINE",
"130 0 LINE",
"174 0 LINE",
"124 -101 LINE",
"187 -101 LINE SMOOTH",
"215 -101 OFFCURVE",
"235 -104 OFFCURVE",
"235 -124 CURVE SMOOTH",
"235 -156 OFFCURVE",
"211 -166 OFFCURVE",
"155 -166 CURVE SMOOTH",
"135 -166 OFFCURVE",
"115 -163 OFFCURVE",
"98 -158 CURVE",
"82 -232 LINE",
"96 -236 OFFCURVE",
"138 -240 OFFCURVE",
"162 -240 CURVE SMOOTH"
);
}
);
width = 560;
}
);
leftKerningGroup = T;
note = Tcedilla;
rightKerningGroup = T;
unicode = 0162;
},
{
glyphname = Tcommaaccent;
lastChange = "2015-11-25 11:50:16 +0000";
layers = (
{
layerId = "D9861EBB-D268-4716-B046-FAB51EB1D86F";
name = "Bold Italic";
paths = (
{
closed = 1;
nodes = (
"318 0 LINE",
"425 504 LINE",
"606 504 LINE",
"635 644 LINE",
"85 644 LINE",
"56 504 LINE",
"237 504 LINE",
"130 0 LINE"
);
},
{
closed = 1;
nodes = (
"191 -267 LINE",
"296 -42 LINE",
"143 -42 LINE",
"62 -267 LINE"
);
}
);
width = 560;
}
);
leftKerningGroup = T;
note = Tcommaaccent;
rightKerningGroup = T;
unicode = 021A;
},
{
glyphname = Tdotbelow;
lastChange = "2015-11-25 11:50:18 +0000";
layers = (
{
layerId = "D9861EBB-D268-4716-B046-FAB51EB1D86F";
name = "Bold Italic";
paths = (
{
closed = 1;
nodes = (
"318 0 LINE",
"425 504 LINE",
"606 504 LINE",
"635 644 LINE",
"85 644 LINE",
"56 504 LINE",
"237 504 LINE",
"130 0 LINE"
);
},
{
closed = 1;
nodes = (
"252 -176 LINE",
"277 -56 LINE",
"147 -56 LINE",
"122 -176 LINE"
);
}
);
width = 560;
}
);
leftKerningGroup = T;
note = Tdotbelow;
rightKerningGroup = T;
unicode = 1E6C;
},
{
glyphname = Tlinebelow;
lastChange = "2015-11-25 11:50:18 +0000";
layers = (
{
layerId = "D9861EBB-D268-4716-B046-FAB51EB1D86F";
name = "Bold Italic";
paths = (
{
closed = 1;
nodes = (
"318 0 LINE",
"425 504 LINE",
"606 504 LINE",
"635 644 LINE",
"85 644 LINE",
"56 504 LINE",
"237 504 LINE",
"130 0 LINE"
);
},
{
closed = 1;
nodes = (
"348 -176 LINE",
"372 -64 LINE",
"45 -64 LINE",
"21 -176 LINE"
);
}
);
width = 560;
}
);
leftKerningGroup = T;
note = Tlinebelow;
rightKerningGroup = T;
unicode = 1E6E;
},
{
glyphname = U;
lastChange = "2015-11-25 11:50:18 +0000";
layers = (
{
layerId = "D9861EBB-D268-4716-B046-FAB51EB1D86F";
name = "Bold Italic";
paths = (
{
closed = 1;
nodes = (
"493 -10 OFFCURVE",
"607 67 OFFCURVE",
"645 248 CURVE SMOOTH",
"729 644 LINE",
"541 644 LINE",
"461 268 LINE SMOOTH",
"443 183 OFFCURVE",
"405 150 OFFCURVE",
"320 150 CURVE SMOOTH",
"251 150 OFFCURVE",
"222 169 OFFCURVE",
"222 219 CURVE SMOOTH",
"222 233 OFFCURVE",
"224 249 OFFCURVE",
"228 268 CURVE SMOOTH",
"308 644 LINE",
"120 644 LINE",
"37 254 LINE SMOOTH",
"33 235 OFFCURVE",
"31 217 OFFCURVE",
"31 200 CURVE SMOOTH",
"31 80 OFFCURVE",
"122 -10 OFFCURVE",
"286 -10 CURVE SMOOTH"
);
}
);
width = 689;
}
);
leftKerningGroup = U;
note = U;
rightKerningGroup = U;
unicode = 0055;
},
{
glyphname = Uacute;
lastChange = "2015-11-25 11:50:17 +0000";
layers = (
{
layerId = "D9861EBB-D268-4716-B046-FAB51EB1D86F";
name = "Bold Italic";
paths = (
{
closed = 1;
nodes = (
"493 -10 OFFCURVE",
"607 67 OFFCURVE",
"645 248 CURVE SMOOTH",
"729 644 LINE",
"541 644 LINE",
"461 268 LINE SMOOTH",
"443 183 OFFCURVE",
"405 150 OFFCURVE",
"320 150 CURVE SMOOTH",
"251 150 OFFCURVE",
"222 169 OFFCURVE",
"222 219 CURVE SMOOTH",
"222 233 OFFCURVE",
"224 249 OFFCURVE",
"228 268 CURVE SMOOTH",
"308 644 LINE",
"120 644 LINE",
"37 254 LINE SMOOTH",
"33 235 OFFCURVE",
"31 217 OFFCURVE",
"31 200 CURVE SMOOTH",
"31 80 OFFCURVE",
"122 -10 OFFCURVE",
"286 -10 CURVE SMOOTH"
);
},
{
closed = 1;
nodes = (
"502 688 LINE",
"642 894 LINE",
"496 894 LINE",
"364 688 LINE"
);
}
);
width = 689;
}
);
leftKerningGroup = U;
note = Uacute;
rightKerningGroup = U;
unicode = 00DA;
},
{
glyphname = Ubreve;
lastChange = "2015-11-25 11:50:16 +0000";
layers = (
{
layerId = "D9861EBB-D268-4716-B046-FAB51EB1D86F";
name = "Bold Italic";
paths = (
{
closed = 1;
nodes = (
"493 -10 OFFCURVE",
"607 67 OFFCURVE",
"645 248 CURVE SMOOTH",
"729 644 LINE",
"541 644 LINE",
"461 268 LINE SMOOTH",
"443 183 OFFCURVE",
"405 150 OFFCURVE",
"320 150 CURVE SMOOTH",
"251 150 OFFCURVE",
"222 169 OFFCURVE",
"222 219 CURVE SMOOTH",
"222 233 OFFCURVE",
"224 249 OFFCURVE",
"228 268 CURVE SMOOTH",
"308 644 LINE",
"120 644 LINE",
"37 254 LINE SMOOTH",
"33 235 OFFCURVE",
"31 217 OFFCURVE",
"31 200 CURVE SMOOTH",
"31 80 OFFCURVE",
"122 -10 OFFCURVE",
"286 -10 CURVE SMOOTH"
);
},
{
closed = 1;
nodes = (
"547 688 OFFCURVE",
"637 754 OFFCURVE",
"663 875 CURVE",
"536 875 LINE",
"526 826 OFFCURVE",
"501 791 OFFCURVE",
"450 791 CURVE SMOOTH",
"411 791 OFFCURVE",
"397 811 OFFCURVE",
"397 843 CURVE SMOOTH",
"397 852 OFFCURVE",
"399 863 OFFCURVE",
"401 875 CURVE",
"285 875 LINE",
"281 857 OFFCURVE",
"279 839 OFFCURVE",
"279 823 CURVE SMOOTH",
"279 735 OFFCURVE",
"338 688 OFFCURVE",
"433 688 CURVE SMOOTH"
);
}
);
width = 689;
}
);
leftKerningGroup = U;
note = Ubreve;
rightKerningGroup = U;
unicode = 016C;
},
{
glyphname = Ucaron;
lastChange = "2015-11-25 11:50:18 +0000";
layers = (
{
layerId = "D9861EBB-D268-4716-B046-FAB51EB1D86F";
name = "Bold Italic";
paths = (
{
closed = 1;
nodes = (
"493 -10 OFFCURVE",
"607 67 OFFCURVE",
"645 248 CURVE SMOOTH",
"729 644 LINE",
"541 644 LINE",
"461 268 LINE SMOOTH",
"443 183 OFFCURVE",
"405 150 OFFCURVE",
"320 150 CURVE SMOOTH",
"251 150 OFFCURVE",
"222 169 OFFCURVE",
"222 219 CURVE SMOOTH",
"222 233 OFFCURVE",
"224 249 OFFCURVE",
"228 268 CURVE SMOOTH",
"308 644 LINE",
"120 644 LINE",
"37 254 LINE SMOOTH",
"33 235 OFFCURVE",
"31 217 OFFCURVE",
"31 200 CURVE SMOOTH",
"31 80 OFFCURVE",
"122 -10 OFFCURVE",
"286 -10 CURVE SMOOTH"
);
},
{
closed = 1;
nodes = (
"491 688 LINE",
"688 888 LINE",
"547 888 LINE",
"448 779 LINE",
"399 888 LINE",
"265 888 LINE",
"377 688 LINE"
);
}
);
width = 689;
}
);
leftKerningGroup = U;
note = Ucaron;
rightKerningGroup = U;
unicode = 01D3;
},
{
glyphname = Ucircumflex;
lastChange = "2015-11-25 11:50:16 +0000";
layers = (
{
layerId = "D9861EBB-D268-4716-B046-FAB51EB1D86F";
name = "Bold Italic";
paths = (
{
closed = 1;
nodes = (
"493 -10 OFFCURVE",
"607 67 OFFCURVE",
"645 248 CURVE SMOOTH",
"729 644 LINE",
"541 644 LINE",
"461 268 LINE SMOOTH",
"443 183 OFFCURVE",
"405 150 OFFCURVE",
"320 150 CURVE SMOOTH",
"251 150 OFFCURVE",
"222 169 OFFCURVE",
"222 219 CURVE SMOOTH",
"222 233 OFFCURVE",
"224 249 OFFCURVE",
"228 268 CURVE SMOOTH",
"308 644 LINE",
"120 644 LINE",
"37 254 LINE SMOOTH",
"33 235 OFFCURVE",
"31 217 OFFCURVE",
"31 200 CURVE SMOOTH",
"31 80 OFFCURVE",
"122 -10 OFFCURVE",
"286 -10 CURVE SMOOTH"
);
},
{
closed = 1;
nodes = (
"369 688 LINE",
"462 796 LINE",
"516 688 LINE",
"647 688 LINE",
"534 888 LINE",
"420 888 LINE",
"224 688 LINE"
);
}
);
width = 689;
}
);
leftKerningGroup = U;
note = Ucircumflex;
rightKerningGroup = U;
unicode = 00DB;
},
{
glyphname = Udieresis;
lastChange = "2015-11-25 11:50:17 +0000";
layers = (
{
layerId = "D9861EBB-D268-4716-B046-FAB51EB1D86F";
name = "Bold Italic";
paths = (
{
closed = 1;
nodes = (
"493 -10 OFFCURVE",
"607 67 OFFCURVE",
"645 248 CURVE SMOOTH",
"729 644 LINE",
"541 644 LINE",
"461 268 LINE SMOOTH",
"443 183 OFFCURVE",
"405 150 OFFCURVE",
"320 150 CURVE SMOOTH",
"251 150 OFFCURVE",
"222 169 OFFCURVE",
"222 219 CURVE SMOOTH",
"222 233 OFFCURVE",
"224 249 OFFCURVE",
"228 268 CURVE SMOOTH",
"308 644 LINE",
"120 644 LINE",
"37 254 LINE SMOOTH",
"33 235 OFFCURVE",
"31 217 OFFCURVE",
"31 200 CURVE SMOOTH",
"31 80 OFFCURVE",
"122 -10 OFFCURVE",
"286 -10 CURVE SMOOTH"
);
},
{
closed = 1;
nodes = (
"397 715 LINE",
"423 835 LINE",
"293 835 LINE",
"267 715 LINE"
);
},
{
closed = 1;
nodes = (
"613 715 LINE",
"639 835 LINE",
"508 835 LINE",
"482 715 LINE"
);
}
);
width = 689;
}
);
leftKerningGroup = U;
note = Udieresis;
rightKerningGroup = U;
unicode = 00DC;
},
{
glyphname = Udieresisacute;
lastChange = "2015-11-25 11:50:18 +0000";
layers = (
{
layerId = "D9861EBB-D268-4716-B046-FAB51EB1D86F";
name = "Bold Italic";
paths = (
{
closed = 1;
nodes = (
"493 -10 OFFCURVE",
"607 67 OFFCURVE",
"645 248 CURVE SMOOTH",
"729 644 LINE",
"541 644 LINE",
"461 268 LINE SMOOTH",
"443 183 OFFCURVE",
"405 150 OFFCURVE",
"320 150 CURVE SMOOTH",
"251 150 OFFCURVE",
"222 169 OFFCURVE",
"222 219 CURVE SMOOTH",
"222 233 OFFCURVE",
"224 249 OFFCURVE",
"228 268 CURVE SMOOTH",
"308 644 LINE",
"120 644 LINE",
"37 254 LINE SMOOTH",
"33 235 OFFCURVE",
"31 217 OFFCURVE",
"31 200 CURVE SMOOTH",
"31 80 OFFCURVE",
"122 -10 OFFCURVE",
"286 -10 CURVE SMOOTH"
);
},
{
closed = 1;
nodes = (
"390 692 LINE",
"414 805 LINE",
"287 805 LINE",
"263 692 LINE"
);
},
{
closed = 1;
nodes = (
"605 692 LINE",
"629 805 LINE",
"502 805 LINE",
"478 692 LINE"
);
},
{
closed = 1;
nodes = (
"523 831 LINE",
"622 968 LINE",
"482 968 LINE",
"396 831 LINE"
);
}
);
width = 689;
}
);
leftKerningGroup = U;
note = Udieresisacute;
rightKerningGroup = U;
unicode = 01D7;
},
{
glyphname = Udieresiscaron;
lastChange = "2015-11-25 11:50:17 +0000";
layers = (
{
layerId = "D9861EBB-D268-4716-B046-FAB51EB1D86F";
name = "Bold Italic";
paths = (
{
closed = 1;
nodes = (
"493 -10 OFFCURVE",
"607 67 OFFCURVE",
"645 248 CURVE SMOOTH",
"729 644 LINE",
"541 644 LINE",
"461 268 LINE SMOOTH",
"443 183 OFFCURVE",
"405 150 OFFCURVE",
"320 150 CURVE SMOOTH",
"251 150 OFFCURVE",
"222 169 OFFCURVE",
"222 219 CURVE SMOOTH",
"222 233 OFFCURVE",
"224 249 OFFCURVE",
"228 268 CURVE SMOOTH",
"308 644 LINE",
"120 644 LINE",
"37 254 LINE SMOOTH",
"33 235 OFFCURVE",
"31 217 OFFCURVE",
"31 200 CURVE SMOOTH",
"31 80 OFFCURVE",
"122 -10 OFFCURVE",
"286 -10 CURVE SMOOTH"
);
},
{
closed = 1;
nodes = (
"389 692 LINE",
"413 805 LINE",
"286 805 LINE",
"262 692 LINE"
);
},
{
closed = 1;
nodes = (
"603 692 LINE",
"627 805 LINE",
"501 805 LINE",
"477 692 LINE"
);
},
{
closed = 1;
nodes = (
"529 829 LINE",
"682 962 LINE",
"544 962 LINE",
"475 889 LINE",
"437 962 LINE",
"302 962 LINE",
"400 829 LINE"
);
}
);
width = 689;
}
);
leftKerningGroup = U;
note = Udieresiscaron;
rightKerningGroup = U;
unicode = 01D9;
},
{
glyphname = Udieresisgrave;
lastChange = "2015-11-25 11:50:16 +0000";
layers = (
{
layerId = "D9861EBB-D268-4716-B046-FAB51EB1D86F";
name = "Bold Italic";
paths = (
{
closed = 1;
nodes = (
"493 -10 OFFCURVE",
"607 67 OFFCURVE",
"645 248 CURVE SMOOTH",
"729 644 LINE",
"541 644 LINE",
"461 268 LINE SMOOTH",
"443 183 OFFCURVE",
"405 150 OFFCURVE",
"320 150 CURVE SMOOTH",
"251 150 OFFCURVE",
"222 169 OFFCURVE",
"222 219 CURVE SMOOTH",
"222 233 OFFCURVE",
"224 249 OFFCURVE",
"228 268 CURVE SMOOTH",
"308 644 LINE",
"120 644 LINE",
"37 254 LINE SMOOTH",
"33 235 OFFCURVE",
"31 217 OFFCURVE",
"31 200 CURVE SMOOTH",
"31 80 OFFCURVE",
"122 -10 OFFCURVE",
"286 -10 CURVE SMOOTH"
);
},
{
closed = 1;
nodes = (
"395 710 LINE",
"419 823 LINE",
"292 823 LINE",
"268 710 LINE"
);
},
{
closed = 1;
nodes = (
"610 710 LINE",
"634 823 LINE",
"507 823 LINE",
"483 710 LINE"
);
},
{
closed = 1;
nodes = (
"535 849 LINE",
"507 986 LINE",
"367 986 LINE",
"408 849 LINE"
);
}
);
width = 689;
}
);
leftKerningGroup = U;
note = Udieresisgrave;
rightKerningGroup = U;
unicode = 01DB;
},
{
glyphname = Udieresismacron;
lastChange = "2015-11-25 11:50:18 +0000";
layers = (
{
layerId = "D9861EBB-D268-4716-B046-FAB51EB1D86F";
name = "Bold Italic";
paths = (
{
closed = 1;
nodes = (
"493 -10 OFFCURVE",
"607 67 OFFCURVE",
"645 248 CURVE SMOOTH",
"729 644 LINE",
"541 644 LINE",
"461 268 LINE SMOOTH",
"443 183 OFFCURVE",
"405 150 OFFCURVE",
"320 150 CURVE SMOOTH",
"251 150 OFFCURVE",
"222 169 OFFCURVE",
"222 219 CURVE SMOOTH",
"222 233 OFFCURVE",
"224 249 OFFCURVE",
"228 268 CURVE SMOOTH",
"308 644 LINE",
"120 644 LINE",
"37 254 LINE SMOOTH",
"33 235 OFFCURVE",
"31 217 OFFCURVE",
"31 200 CURVE SMOOTH",
"31 80 OFFCURVE",
"122 -10 OFFCURVE",
"286 -10 CURVE SMOOTH"
);
},
{
closed = 1;
nodes = (
"394 699 LINE",
"420 819 LINE",
"290 819 LINE",
"264 699 LINE"
);
},
{
closed = 1;
nodes = (
"610 699 LINE",
"636 819 LINE",
"505 819 LINE",
"479 699 LINE"
);
},
{
closed = 1;
nodes = (
"637 873 LINE",
"661 985 LINE",
"334 985 LINE",
"310 873 LINE"
);
}
);
width = 689;
}
);
leftKerningGroup = U;
note = Udieresismacron;
rightKerningGroup = U;
unicode = 01D5;
},
{
glyphname = Udotbelow;
lastChange = "2015-11-25 11:50:16 +0000";
layers = (
{
layerId = "D9861EBB-D268-4716-B046-FAB51EB1D86F";
name = "Bold Italic";
paths = (
{
closed = 1;
nodes = (
"493 -10 OFFCURVE",
"607 67 OFFCURVE",
"645 248 CURVE SMOOTH",
"729 644 LINE",
"541 644 LINE",
"461 268 LINE SMOOTH",
"443 183 OFFCURVE",
"405 150 OFFCURVE",
"320 150 CURVE SMOOTH",
"251 150 OFFCURVE",
"222 169 OFFCURVE",
"222 219 CURVE SMOOTH",
"222 233 OFFCURVE",
"224 249 OFFCURVE",
"228 268 CURVE SMOOTH",
"308 644 LINE",
"120 644 LINE",
"37 254 LINE SMOOTH",
"33 235 OFFCURVE",
"31 217 OFFCURVE",
"31 200 CURVE SMOOTH",
"31 80 OFFCURVE",
"122 -10 OFFCURVE",
"286 -10 CURVE SMOOTH"
);
},
{
closed = 1;
nodes = (
"316 -176 LINE",
"341 -56 LINE",
"211 -56 LINE",
"186 -176 LINE"
);
}
);
width = 689;
}
);
leftKerningGroup = U;
note = Udotbelow;
rightKerningGroup = U;
unicode = 1EE4;
},
{
glyphname = Ugrave;
lastChange = "2015-11-25 11:50:16 +0000";
layers = (
{
layerId = "D9861EBB-D268-4716-B046-FAB51EB1D86F";
name = "Bold Italic";
paths = (
{
closed = 1;
nodes = (
"493 -10 OFFCURVE",
"607 67 OFFCURVE",
"645 248 CURVE SMOOTH",
"729 644 LINE",
"541 644 LINE",
"461 268 LINE SMOOTH",
"443 183 OFFCURVE",
"405 150 OFFCURVE",
"320 150 CURVE SMOOTH",
"251 150 OFFCURVE",
"222 169 OFFCURVE",
"222 219 CURVE SMOOTH",
"222 233 OFFCURVE",
"224 249 OFFCURVE",
"228 268 CURVE SMOOTH",
"308 644 LINE",
"120 644 LINE",
"37 254 LINE SMOOTH",
"33 235 OFFCURVE",
"31 217 OFFCURVE",
"31 200 CURVE SMOOTH",
"31 80 OFFCURVE",
"122 -10 OFFCURVE",
"286 -10 CURVE SMOOTH"
);
},
{
closed = 1;
nodes = (
"510 688 LINE",
"466 894 LINE",
"319 894 LINE",
"372 688 LINE"
);
}
);
width = 689;
}
);
leftKerningGroup = U;
note = Ugrave;
rightKerningGroup = U;
unicode = 00D9;
},
{
glyphname = Uhookabove;
lastChange = "2015-11-25 11:50:16 +0000";
layers = (
{
layerId = "D9861EBB-D268-4716-B046-FAB51EB1D86F";
name = "Bold Italic";
paths = (
{
closed = 1;
nodes = (
"493 -10 OFFCURVE",
"607 67 OFFCURVE",
"645 248 CURVE SMOOTH",
"729 644 LINE",
"541 644 LINE",
"461 268 LINE SMOOTH",
"443 183 OFFCURVE",
"405 150 OFFCURVE",
"320 150 CURVE SMOOTH",
"251 150 OFFCURVE",
"222 169 OFFCURVE",
"222 219 CURVE SMOOTH",
"222 233 OFFCURVE",
"224 249 OFFCURVE",
"228 268 CURVE SMOOTH",
"308 644 LINE",
"120 644 LINE",
"37 254 LINE SMOOTH",
"33 235 OFFCURVE",
"31 217 OFFCURVE",
"31 200 CURVE SMOOTH",
"31 80 OFFCURVE",
"122 -10 OFFCURVE",
"286 -10 CURVE SMOOTH"
);
},
{
closed = 1;
nodes = (
"503 688 LINE",
"512 729 LINE",
"571 745 OFFCURVE",
"605 771 OFFCURVE",
"617 829 CURVE SMOOTH",
"619 836 OFFCURVE",
"619 843 OFFCURVE",
"619 850 CURVE SMOOTH",
"619 898 OFFCURVE",
"578 930 OFFCURVE",
"498 930 CURVE SMOOTH",
"450 930 OFFCURVE",
"410 925 OFFCURVE",
"380 916 CURVE",
"363 838 LINE",
"380 842 OFFCURVE",
"405 846 OFFCURVE",
"424 846 CURVE SMOOTH",
"463 846 OFFCURVE",
"482 836 OFFCURVE",
"477 813 CURVE SMOOTH",
"472 788 OFFCURVE",
"449 773 OFFCURVE",
"380 769 CURVE",
"362 688 LINE"
);
}
);
width = 689;
}
);
leftKerningGroup = U;
note = Uhookabove;
rightKerningGroup = U;
unicode = 1EE6;
},
{
glyphname = Uhorn;
lastChange = "2015-11-25 11:54:13 +0000";
layers = (
{
layerId = "D9861EBB-D268-4716-B046-FAB51EB1D86F";
name = "Bold Italic";
paths = (
{
closed = 1;
nodes = (
"493 -10 OFFCURVE",
"607 67 OFFCURVE",
"645 248 CURVE SMOOTH",
"691 468 LINE",
"850 471 OFFCURVE",
"921 525 OFFCURVE",
"956 688 CURVE",
"823 688 LINE",
"808 617 OFFCURVE",
"780 593 OFFCURVE",
"717 590 CURVE",
"729 644 LINE",
"541 644 LINE",
"461 268 LINE SMOOTH",
"443 183 OFFCURVE",
"405 150 OFFCURVE",
"320 150 CURVE SMOOTH",
"251 150 OFFCURVE",
"222 169 OFFCURVE",
"222 219 CURVE SMOOTH",
"222 233 OFFCURVE",
"224 249 OFFCURVE",
"228 268 CURVE SMOOTH",
"308 644 LINE",
"120 644 LINE",
"37 254 LINE SMOOTH",
"33 235 OFFCURVE",
"31 217 OFFCURVE",
"31 200 CURVE SMOOTH",
"31 80 OFFCURVE",
"122 -10 OFFCURVE",
"286 -10 CURVE SMOOTH"
);
}
);
width = 862;
}
);
note = Uhorn;
unicode = 01AF;
},
{
glyphname = Uhornacute;
lastChange = "2015-11-25 11:54:13 +0000";
layers = (
{
layerId = "D9861EBB-D268-4716-B046-FAB51EB1D86F";
name = "Bold Italic";
paths = (
{
closed = 1;
nodes = (
"493 -10 OFFCURVE",
"607 67 OFFCURVE",
"645 248 CURVE SMOOTH",
"691 468 LINE",
"850 471 OFFCURVE",
"921 525 OFFCURVE",
"956 688 CURVE",
"823 688 LINE",
"808 617 OFFCURVE",
"780 593 OFFCURVE",
"717 590 CURVE",
"729 644 LINE",
"541 644 LINE",
"461 268 LINE SMOOTH",
"443 183 OFFCURVE",
"405 150 OFFCURVE",
"320 150 CURVE SMOOTH",
"251 150 OFFCURVE",
"222 169 OFFCURVE",
"222 219 CURVE SMOOTH",
"222 233 OFFCURVE",
"224 249 OFFCURVE",
"228 268 CURVE SMOOTH",
"308 644 LINE",
"120 644 LINE",
"37 254 LINE SMOOTH",
"33 235 OFFCURVE",
"31 217 OFFCURVE",
"31 200 CURVE SMOOTH",
"31 80 OFFCURVE",
"122 -10 OFFCURVE",
"286 -10 CURVE SMOOTH"
);
},
{
closed = 1;
nodes = (
"494 688 LINE",
"634 894 LINE",
"488 894 LINE",
"356 688 LINE"
);
}
);
width = 862;
}
);
leftKerningGroup = U;
note = Uhornacute;
rightKerningGroup = U;
unicode = 1EE8;
},
{
glyphname = Uhorndotbelow;
lastChange = "2015-11-25 11:54:13 +0000";
layers = (
{
layerId = "D9861EBB-D268-4716-B046-FAB51EB1D86F";
name = "Bold Italic";
paths = (
{
closed = 1;
nodes = (
"493 -10 OFFCURVE",
"607 67 OFFCURVE",
"645 248 CURVE SMOOTH",
"691 468 LINE",
"850 471 OFFCURVE",
"921 525 OFFCURVE",
"956 688 CURVE",
"823 688 LINE",
"808 617 OFFCURVE",
"780 593 OFFCURVE",
"717 590 CURVE",
"729 644 LINE",
"541 644 LINE",
"461 268 LINE SMOOTH",
"443 183 OFFCURVE",
"405 150 OFFCURVE",
"320 150 CURVE SMOOTH",
"251 150 OFFCURVE",
"222 169 OFFCURVE",
"222 219 CURVE SMOOTH",
"222 233 OFFCURVE",
"224 249 OFFCURVE",
"228 268 CURVE SMOOTH",
"308 644 LINE",
"120 644 LINE",
"37 254 LINE SMOOTH",
"33 235 OFFCURVE",
"31 217 OFFCURVE",
"31 200 CURVE SMOOTH",
"31 80 OFFCURVE",
"122 -10 OFFCURVE",
"286 -10 CURVE SMOOTH"
);
},
{
closed = 1;
nodes = (
"321 -176 LINE",
"346 -56 LINE",
"216 -56 LINE",
"191 -176 LINE"
);
}
);
width = 862;
}
);
leftKerningGroup = U;
note = Uhorndotbelow;
rightKerningGroup = U;
unicode = 1EF0;
},
{
glyphname = Uhorngrave;
lastChange = "2015-11-25 11:54:13 +0000";
layers = (
{
layerId = "D9861EBB-D268-4716-B046-FAB51EB1D86F";
name = "Bold Italic";
paths = (
{
closed = 1;
nodes = (
"493 -10 OFFCURVE",
"607 67 OFFCURVE",
"645 248 CURVE SMOOTH",
"691 468 LINE",
"850 471 OFFCURVE",
"921 525 OFFCURVE",
"956 688 CURVE",
"823 688 LINE",
"808 617 OFFCURVE",
"780 593 OFFCURVE",
"717 590 CURVE",
"729 644 LINE",
"541 644 LINE",
"461 268 LINE SMOOTH",
"443 183 OFFCURVE",
"405 150 OFFCURVE",
"320 150 CURVE SMOOTH",
"251 150 OFFCURVE",
"222 169 OFFCURVE",
"222 219 CURVE SMOOTH",
"222 233 OFFCURVE",
"224 249 OFFCURVE",
"228 268 CURVE SMOOTH",
"308 644 LINE",
"120 644 LINE",
"37 254 LINE SMOOTH",
"33 235 OFFCURVE",
"31 217 OFFCURVE",
"31 200 CURVE SMOOTH",
"31 80 OFFCURVE",
"122 -10 OFFCURVE",
"286 -10 CURVE SMOOTH"
);
},
{
closed = 1;
nodes = (
"509 688 LINE",
"465 894 LINE",
"318 894 LINE",
"371 688 LINE"
);
}
);
width = 862;
}
);
leftKerningGroup = U;
note = Uhorngrave;
rightKerningGroup = U;
unicode = 1EEA;
},
{
glyphname = Uhornhookabove;
lastChange = "2015-11-25 11:54:13 +0000";
layers = (
{
layerId = "D9861EBB-D268-4716-B046-FAB51EB1D86F";
name = "Bold Italic";
paths = (
{
closed = 1;
nodes = (
"493 -10 OFFCURVE",
"607 67 OFFCURVE",
"645 248 CURVE SMOOTH",
"691 468 LINE",
"850 471 OFFCURVE",
"921 525 OFFCURVE",
"956 688 CURVE",
"823 688 LINE",
"808 617 OFFCURVE",
"780 593 OFFCURVE",
"717 590 CURVE",
"729 644 LINE",
"541 644 LINE",
"461 268 LINE SMOOTH",
"443 183 OFFCURVE",
"405 150 OFFCURVE",
"320 150 CURVE SMOOTH",
"251 150 OFFCURVE",
"222 169 OFFCURVE",
"222 219 CURVE SMOOTH",
"222 233 OFFCURVE",
"224 249 OFFCURVE",
"228 268 CURVE SMOOTH",
"308 644 LINE",
"120 644 LINE",
"37 254 LINE SMOOTH",
"33 235 OFFCURVE",
"31 217 OFFCURVE",
"31 200 CURVE SMOOTH",
"31 80 OFFCURVE",
"122 -10 OFFCURVE",
"286 -10 CURVE SMOOTH"
);
},
{
closed = 1;
nodes = (
"474 687 LINE",
"483 728 LINE",
"542 744 OFFCURVE",
"576 770 OFFCURVE",
"588 828 CURVE SMOOTH",
"590 835 OFFCURVE",
"590 842 OFFCURVE",
"590 849 CURVE SMOOTH",
"590 897 OFFCURVE",
"549 929 OFFCURVE",
"469 929 CURVE SMOOTH",
"421 929 OFFCURVE",
"381 924 OFFCURVE",
"351 915 CURVE",
"334 837 LINE",
"351 841 OFFCURVE",
"376 845 OFFCURVE",
"395 845 CURVE SMOOTH",
"434 845 OFFCURVE",
"453 835 OFFCURVE",
"448 812 CURVE SMOOTH",
"443 787 OFFCURVE",
"420 772 OFFCURVE",
"351 768 CURVE",
"333 687 LINE"
);
}
);
width = 862;
}
);
leftKerningGroup = U;
note = Uhornhookabove;
rightKerningGroup = U;
unicode = 1EEC;
},
{
glyphname = Uhorntilde;
lastChange = "2015-11-25 11:54:13 +0000";
layers = (
{
layerId = "D9861EBB-D268-4716-B046-FAB51EB1D86F";
name = "Bold Italic";
paths = (
{
closed = 1;
nodes = (
"493 -10 OFFCURVE",
"607 67 OFFCURVE",
"645 248 CURVE SMOOTH",
"691 468 LINE",
"850 471 OFFCURVE",
"921 525 OFFCURVE",
"956 688 CURVE",
"823 688 LINE",
"808 617 OFFCURVE",
"780 593 OFFCURVE",
"717 590 CURVE",
"729 644 LINE",
"541 644 LINE",
"461 268 LINE SMOOTH",
"443 183 OFFCURVE",
"405 150 OFFCURVE",
"320 150 CURVE SMOOTH",
"251 150 OFFCURVE",
"222 169 OFFCURVE",
"222 219 CURVE SMOOTH",
"222 233 OFFCURVE",
"224 249 OFFCURVE",
"228 268 CURVE SMOOTH",
"308 644 LINE",
"120 644 LINE",
"37 254 LINE SMOOTH",
"33 235 OFFCURVE",
"31 217 OFFCURVE",
"31 200 CURVE SMOOTH",
"31 80 OFFCURVE",
"122 -10 OFFCURVE",
"286 -10 CURVE SMOOTH"
);
},
{
closed = 1;
nodes = (
"575 692 OFFCURVE",
"613 707 OFFCURVE",
"630 725 CURVE",
"655 844 LINE",
"635 821 OFFCURVE",
"599 804 OFFCURVE",
"557 804 CURVE SMOOTH",
"494 804 OFFCURVE",
"452 846 OFFCURVE",
"385 846 CURVE SMOOTH",
"346 846 OFFCURVE",
"306 831 OFFCURVE",
"283 813 CURVE",
"258 695 LINE",
"287 719 OFFCURVE",
"322 734 OFFCURVE",
"364 734 CURVE SMOOTH",
"419 734 OFFCURVE",
"470 692 OFFCURVE",
"536 692 CURVE SMOOTH"
);
}
);
width = 862;
}
);
leftKerningGroup = U;
note = Uhorntilde;
rightKerningGroup = U;
unicode = 1EEE;
},
{
glyphname = Uhungarumlaut;
lastChange = "2015-11-25 11:50:15 +0000";
layers = (
{
layerId = "D9861EBB-D268-4716-B046-FAB51EB1D86F";
name = "Bold Italic";
paths = (
{
closed = 1;
nodes = (
"493 -10 OFFCURVE",
"607 67 OFFCURVE",
"645 248 CURVE SMOOTH",
"729 644 LINE",
"541 644 LINE",
"461 268 LINE SMOOTH",
"443 183 OFFCURVE",
"405 150 OFFCURVE",
"320 150 CURVE SMOOTH",
"251 150 OFFCURVE",
"222 169 OFFCURVE",
"222 219 CURVE SMOOTH",
"222 233 OFFCURVE",
"224 249 OFFCURVE",
"228 268 CURVE SMOOTH",
"308 644 LINE",
"120 644 LINE",
"37 254 LINE SMOOTH",
"33 235 OFFCURVE",
"31 217 OFFCURVE",
"31 200 CURVE SMOOTH",
"31 80 OFFCURVE",
"122 -10 OFFCURVE",
"286 -10 CURVE SMOOTH"
);
},
{
closed = 1;
nodes = (
"366 688 LINE",
"506 872 LINE",
"349 872 LINE",
"224 688 LINE"
);
},
{
closed = 1;
nodes = (
"599 688 LINE",
"740 872 LINE",
"582 872 LINE",
"457 688 LINE"
);
}
);
width = 689;
}
);
leftKerningGroup = U;
note = Uhungarumlaut;
rightKerningGroup = U;
unicode = 0170;
},
{
glyphname = Umacron;
lastChange = "2015-11-25 11:50:18 +0000";
layers = (
{
layerId = "D9861EBB-D268-4716-B046-FAB51EB1D86F";
name = "Bold Italic";
paths = (
{
closed = 1;
nodes = (
"493 -10 OFFCURVE",
"607 67 OFFCURVE",
"645 248 CURVE SMOOTH",
"729 644 LINE",
"541 644 LINE",
"461 268 LINE SMOOTH",
"443 183 OFFCURVE",
"405 150 OFFCURVE",
"320 150 CURVE SMOOTH",
"251 150 OFFCURVE",
"222 169 OFFCURVE",
"222 219 CURVE SMOOTH",
"222 233 OFFCURVE",
"224 249 OFFCURVE",
"228 268 CURVE SMOOTH",
"308 644 LINE",
"120 644 LINE",
"37 254 LINE SMOOTH",
"33 235 OFFCURVE",
"31 217 OFFCURVE",
"31 200 CURVE SMOOTH",
"31 80 OFFCURVE",
"122 -10 OFFCURVE",
"286 -10 CURVE SMOOTH"
);
},
{
closed = 1;
nodes = (
"605 724 LINE",
"629 836 LINE",
"302 836 LINE",
"278 724 LINE"
);
}
);
width = 689;
}
);
leftKerningGroup = U;
note = Umacron;
rightKerningGroup = U;
unicode = 016A;
},
{
glyphname = Uogonek;
lastChange = "2015-11-25 11:50:17 +0000";
layers = (
{
layerId = "D9861EBB-D268-4716-B046-FAB51EB1D86F";
name = "Bold Italic";
paths = (
{
closed = 1;
nodes = (
"298 -220 OFFCURVE",
"339 -212 OFFCURVE",
"361 -204 CURVE",
"379 -118 LINE",
"366 -125 OFFCURVE",
"344 -129 OFFCURVE",
"327 -129 CURVE SMOOTH",
"305 -129 OFFCURVE",
"292 -119 OFFCURVE",
"292 -101 CURVE SMOOTH",
"292 -97 OFFCURVE",
"293 -93 OFFCURVE",
"294 -89 CURVE",
"300 -57 OFFCURVE",
"325 -31 OFFCURVE",
"360 -6 CURVE",
"521 11 OFFCURVE",
"612 90 OFFCURVE",
"645 248 CURVE SMOOTH",
"729 644 LINE",
"541 644 LINE",
"461 268 LINE SMOOTH",
"443 183 OFFCURVE",
"405 150 OFFCURVE",
"320 150 CURVE SMOOTH",
"251 150 OFFCURVE",
"222 169 OFFCURVE",
"222 219 CURVE SMOOTH",
"222 233 OFFCURVE",
"224 249 OFFCURVE",
"228 268 CURVE SMOOTH",
"308 644 LINE",
"120 644 LINE",
"37 254 LINE SMOOTH",
"33 235 OFFCURVE",
"31 217 OFFCURVE",
"31 199 CURVE SMOOTH",
"31 93 OFFCURVE",
"103 10 OFFCURVE",
"234 -6 CURVE",
"190 -34 OFFCURVE",
"155 -76 OFFCURVE",
"145 -123 CURVE SMOOTH",
"143 -131 OFFCURVE",
"143 -138 OFFCURVE",
"143 -144 CURVE SMOOTH",
"143 -196 OFFCURVE",
"190 -220 OFFCURVE",
"257 -220 CURVE SMOOTH"
);
}
);
width = 689;
}
);
leftKerningGroup = U;
note = Uogonek;
rightKerningGroup = U;
unicode = 0172;
},
{
glyphname = Uring;
lastChange = "2015-11-25 11:50:18 +0000";
layers = (
{
layerId = "D9861EBB-D268-4716-B046-FAB51EB1D86F";
name = "Bold Italic";
paths = (
{
closed = 1;
nodes = (
"493 -10 OFFCURVE",
"607 67 OFFCURVE",
"645 248 CURVE SMOOTH",
"729 644 LINE",
"541 644 LINE",
"461 268 LINE SMOOTH",
"443 183 OFFCURVE",
"405 150 OFFCURVE",
"320 150 CURVE SMOOTH",
"251 150 OFFCURVE",
"222 169 OFFCURVE",
"222 219 CURVE SMOOTH",
"222 233 OFFCURVE",
"224 249 OFFCURVE",
"228 268 CURVE SMOOTH",
"308 644 LINE",
"120 644 LINE",
"37 254 LINE SMOOTH",
"33 235 OFFCURVE",
"31 217 OFFCURVE",
"31 200 CURVE SMOOTH",
"31 80 OFFCURVE",
"122 -10 OFFCURVE",
"286 -10 CURVE SMOOTH"
);
},
{
closed = 1;
nodes = (
"525 688 OFFCURVE",
"584 745 OFFCURVE",
"600 819 CURVE SMOOTH",
"602 830 OFFCURVE",
"604 841 OFFCURVE",
"604 851 CURVE SMOOTH",
"604 909 OFFCURVE",
"565 951 OFFCURVE",
"489 951 CURVE SMOOTH",
"397 951 OFFCURVE",
"339 893 OFFCURVE",
"323 819 CURVE SMOOTH",
"321 808 OFFCURVE",
"319 798 OFFCURVE",
"319 788 CURVE SMOOTH",
"319 729 OFFCURVE",
"359 688 OFFCURVE",
"433 688 CURVE SMOOTH"
);
},
{
closed = 1;
nodes = (
"415 765 OFFCURVE",
"403 781 OFFCURVE",
"403 803 CURVE SMOOTH",
"403 838 OFFCURVE",
"429 873 OFFCURVE",
"472 873 CURVE SMOOTH",
"506 873 OFFCURVE",
"519 856 OFFCURVE",
"519 834 CURVE SMOOTH",
"519 797 OFFCURVE",
"492 765 OFFCURVE",
"449 765 CURVE SMOOTH"
);
}
);
width = 689;
}
);
leftKerningGroup = U;
note = Uring;
rightKerningGroup = U;
unicode = 016E;
},
{
glyphname = Utilde;
lastChange = "2015-11-25 11:50:18 +0000";
layers = (
{
layerId = "D9861EBB-D268-4716-B046-FAB51EB1D86F";
name = "Bold Italic";
paths = (
{
closed = 1;
nodes = (
"493 -10 OFFCURVE",
"607 67 OFFCURVE",
"645 248 CURVE SMOOTH",
"729 644 LINE",
"541 644 LINE",
"461 268 LINE SMOOTH",
"443 183 OFFCURVE",
"405 150 OFFCURVE",
"320 150 CURVE SMOOTH",
"251 150 OFFCURVE",
"222 169 OFFCURVE",
"222 219 CURVE SMOOTH",
"222 233 OFFCURVE",
"224 249 OFFCURVE",
"228 268 CURVE SMOOTH",
"308 644 LINE",
"120 644 LINE",
"37 254 LINE SMOOTH",
"33 235 OFFCURVE",
"31 217 OFFCURVE",
"31 200 CURVE SMOOTH",
"31 80 OFFCURVE",
"122 -10 OFFCURVE",
"286 -10 CURVE SMOOTH"
);
},
{
closed = 1;
nodes = (
"571 696 OFFCURVE",
"609 711 OFFCURVE",
"626 729 CURVE",
"651 848 LINE",
"631 825 OFFCURVE",
"595 808 OFFCURVE",
"553 808 CURVE SMOOTH",
"490 808 OFFCURVE",
"448 850 OFFCURVE",
"381 850 CURVE SMOOTH",
"342 850 OFFCURVE",
"302 835 OFFCURVE",
"279 817 CURVE",
"254 699 LINE",
"283 723 OFFCURVE",
"318 738 OFFCURVE",
"360 738 CURVE SMOOTH",
"415 738 OFFCURVE",
"466 696 OFFCURVE",
"532 696 CURVE SMOOTH"
);
}
);
width = 689;
}
);
leftKerningGroup = U;
note = Utilde;
rightKerningGroup = U;
unicode = 0168;
},
{
glyphname = V;
lastChange = "2015-11-25 11:50:19 +0000";
layers = (
{
layerId = "D9861EBB-D268-4716-B046-FAB51EB1D86F";
name = "Bold Italic";
paths = (
{
closed = 1;
nodes = (
"415 0 LINE",
"798 644 LINE",
"595 644 LINE",
"355 218 LINE",
"295 644 LINE",
"105 644 LINE",
"216 0 LINE"
);
}
);
width = 743;
}
);
note = V;
unicode = 0056;
},
{
glyphname = W;
lastChange = "2015-11-25 11:50:17 +0000";
layers = (
{
layerId = "D9861EBB-D268-4716-B046-FAB51EB1D86F";
name = "Bold Italic";
paths = (
{
closed = 1;
nodes = (
"294 0 LINE",
"469 333 LINE",
"496 0 LINE",
"661 0 LINE",
"946 644 LINE",
"762 644 LINE",
"613 302 LINE",
"587 644 LINE",
"433 644 LINE",
"413 547 LINE",
"290 303 LINE",
"289 644 LINE",
"105 644 LINE",
"119 0 LINE"
);
}
);
width = 891;
}
);
leftKerningGroup = W;
note = W;
rightKerningGroup = W;
unicode = 0057;
},
{
glyphname = Wacute;
lastChange = "2015-11-25 11:50:18 +0000";
layers = (
{
layerId = "D9861EBB-D268-4716-B046-FAB51EB1D86F";
name = "Bold Italic";
paths = (
{
closed = 1;
nodes = (
"294 0 LINE",
"469 333 LINE",
"496 0 LINE",
"661 0 LINE",
"946 644 LINE",
"762 644 LINE",
"613 302 LINE",
"587 644 LINE",
"433 644 LINE",
"413 547 LINE",
"290 303 LINE",
"289 644 LINE",
"105 644 LINE",
"119 0 LINE"
);
},
{
closed = 1;
nodes = (
"584 688 LINE",
"724 894 LINE",
"578 894 LINE",
"446 688 LINE"
);
}
);
width = 891;
}
);
leftKerningGroup = W;
note = Wacute;
rightKerningGroup = W;
unicode = 1E82;
},
{
glyphname = Wcircumflex;
lastChange = "2015-11-25 11:50:17 +0000";
layers = (
{
layerId = "D9861EBB-D268-4716-B046-FAB51EB1D86F";
name = "Bold Italic";
paths = (
{
closed = 1;
nodes = (
"294 0 LINE",
"469 333 LINE",
"496 0 LINE",
"661 0 LINE",
"946 644 LINE",
"762 644 LINE",
"613 302 LINE",
"587 644 LINE",
"433 644 LINE",
"413 547 LINE",
"290 303 LINE",
"289 644 LINE",
"105 644 LINE",
"119 0 LINE"
);
},
{
closed = 1;
nodes = (
"473 688 LINE",
"566 796 LINE",
"620 688 LINE",
"751 688 LINE",
"638 888 LINE",
"524 888 LINE",
"328 688 LINE"
);
}
);
width = 891;
}
);
leftKerningGroup = W;
note = Wcircumflex;
rightKerningGroup = W;
unicode = 0174;
},
{
glyphname = Wdieresis;
lastChange = "2015-11-25 11:50:17 +0000";
layers = (
{
layerId = "D9861EBB-D268-4716-B046-FAB51EB1D86F";
name = "Bold Italic";
paths = (
{
closed = 1;
nodes = (
"294 0 LINE",
"469 333 LINE",
"496 0 LINE",
"661 0 LINE",
"946 644 LINE",
"762 644 LINE",
"613 302 LINE",
"587 644 LINE",
"433 644 LINE",
"413 547 LINE",
"290 303 LINE",
"289 644 LINE",
"105 644 LINE",
"119 0 LINE"
);
},
{
closed = 1;
nodes = (
"503 715 LINE",
"529 835 LINE",
"399 835 LINE",
"373 715 LINE"
);
},
{
closed = 1;
nodes = (
"719 715 LINE",
"745 835 LINE",
"614 835 LINE",
"588 715 LINE"
);
}
);
width = 891;
}
);
leftKerningGroup = W;
note = Wdieresis;
rightKerningGroup = W;
unicode = 1E84;
},
{
glyphname = Wgrave;
lastChange = "2015-11-25 11:50:15 +0000";
layers = (
{
layerId = "D9861EBB-D268-4716-B046-FAB51EB1D86F";
name = "Bold Italic";
paths = (
{
closed = 1;
nodes = (
"294 0 LINE",
"469 333 LINE",
"496 0 LINE",
"661 0 LINE",
"946 644 LINE",
"762 644 LINE",
"613 302 LINE",
"587 644 LINE",
"433 644 LINE",
"413 547 LINE",
"290 303 LINE",
"289 644 LINE",
"105 644 LINE",
"119 0 LINE"
);
},
{
closed = 1;
nodes = (
"591 688 LINE",
"547 894 LINE",
"400 894 LINE",
"453 688 LINE"
);
}
);
width = 891;
}
);
leftKerningGroup = W;
note = Wgrave;
rightKerningGroup = W;
unicode = 1E80;
},
{
glyphname = X;
lastChange = "2015-11-25 11:50:15 +0000";
layers = (
{
layerId = "D9861EBB-D268-4716-B046-FAB51EB1D86F";
name = "Bold Italic";
paths = (
{
closed = 1;
nodes = (
"196 0 LINE",
"357 175 LINE",
"445 0 LINE",
"672 0 LINE",
"503 326 LINE",
"799 644 LINE",
"575 644 LINE",
"420 475 LINE",
"338 644 LINE",
"114 644 LINE",
"276 326 LINE",
"-31 0 LINE"
);
}
);
width = 753;
}
);
note = X;
unicode = 0058;
},
{
glyphname = Y;
lastChange = "2015-11-25 11:50:16 +0000";
layers = (
{
layerId = "D9861EBB-D268-4716-B046-FAB51EB1D86F";
name = "Bold Italic";
paths = (
{
closed = 1;
nodes = (
"389 0 LINE",
"439 236 LINE",
"757 644 LINE",
"555 644 LINE",
"374 401 LINE",
"295 644 LINE",
"105 644 LINE",
"251 236 LINE",
"201 0 LINE"
);
}
);
width = 702;
}
);
leftKerningGroup = Y;
note = Y;
rightKerningGroup = Y;
unicode = 0059;
},
{
glyphname = Yacute;
lastChange = "2015-11-25 11:50:17 +0000";
layers = (
{
layerId = "D9861EBB-D268-4716-B046-FAB51EB1D86F";
name = "Bold Italic";
paths = (
{
closed = 1;
nodes = (
"389 0 LINE",
"439 236 LINE",
"757 644 LINE",
"555 644 LINE",
"374 401 LINE",
"295 644 LINE",
"105 644 LINE",
"251 236 LINE",
"201 0 LINE"
);
},
{
closed = 1;
nodes = (
"506 688 LINE",
"646 894 LINE",
"500 894 LINE",
"368 688 LINE"
);
}
);
width = 702;
}
);
leftKerningGroup = Y;
note = Yacute;
rightKerningGroup = Y;
unicode = 00DD;
},
{
glyphname = Ycircumflex;
lastChange = "2015-11-25 11:50:18 +0000";
layers = (
{
layerId = "D9861EBB-D268-4716-B046-FAB51EB1D86F";
name = "Bold Italic";
paths = (
{
closed = 1;
nodes = (
"389 0 LINE",
"439 236 LINE",
"757 644 LINE",
"555 644 LINE",
"374 401 LINE",
"295 644 LINE",
"105 644 LINE",
"251 236 LINE",
"201 0 LINE"
);
},
{
closed = 1;
nodes = (
"375 688 LINE",
"468 796 LINE",
"522 688 LINE",
"653 688 LINE",
"540 888 LINE",
"426 888 LINE",
"230 688 LINE"
);
}
);
width = 702;
}
);
leftKerningGroup = Y;
note = Ycircumflex;
rightKerningGroup = Y;
unicode = 0176;
},
{
glyphname = Ydieresis;
lastChange = "2015-11-25 11:50:17 +0000";
layers = (
{
layerId = "D9861EBB-D268-4716-B046-FAB51EB1D86F";
name = "Bold Italic";
paths = (
{
closed = 1;
nodes = (
"389 0 LINE",
"439 236 LINE",
"757 644 LINE",
"555 644 LINE",
"374 401 LINE",
"295 644 LINE",
"105 644 LINE",
"251 236 LINE",
"201 0 LINE"
);
},
{
closed = 1;
nodes = (
"405 715 LINE",
"431 835 LINE",
"301 835 LINE",
"275 715 LINE"
);
},
{
closed = 1;
nodes = (
"621 715 LINE",
"647 835 LINE",
"516 835 LINE",
"490 715 LINE"
);
}
);
width = 702;
}
);
leftKerningGroup = Y;
note = Ydieresis;
rightKerningGroup = Y;
unicode = 0178;
},
{
glyphname = Ydotaccent;
lastChange = "2015-11-25 11:50:16 +0000";
layers = (
{
layerId = "D9861EBB-D268-4716-B046-FAB51EB1D86F";
name = "Bold Italic";
paths = (
{
closed = 1;
nodes = (
"389 0 LINE",
"439 236 LINE",
"757 644 LINE",
"555 644 LINE",
"374 401 LINE",
"295 644 LINE",
"105 644 LINE",
"251 236 LINE",
"201 0 LINE"
);
},
{
closed = 1;
nodes = (
"511 715 LINE",
"537 835 LINE",
"407 835 LINE",
"381 715 LINE"
);
}
);
width = 702;
}
);
leftKerningGroup = Y;
note = Ydotaccent;
rightKerningGroup = Y;
unicode = 1E8E;
},
{
glyphname = Ydotbelow;
lastChange = "2015-11-25 11:50:16 +0000";
layers = (
{
layerId = "D9861EBB-D268-4716-B046-FAB51EB1D86F";
name = "Bold Italic";
paths = (
{
closed = 1;
nodes = (
"389 0 LINE",
"439 236 LINE",
"757 644 LINE",
"555 644 LINE",
"374 401 LINE",
"295 644 LINE",
"105 644 LINE",
"251 236 LINE",
"201 0 LINE"
);
},
{
closed = 1;
nodes = (
"323 -175 LINE",
"348 -55 LINE",
"218 -55 LINE",
"193 -175 LINE"
);
}
);
width = 702;
}
);
leftKerningGroup = Y;
note = Ydotbelow;
rightKerningGroup = Y;
unicode = 1EF4;
},
{
glyphname = Ygrave;
lastChange = "2015-11-25 11:50:18 +0000";
layers = (
{
layerId = "D9861EBB-D268-4716-B046-FAB51EB1D86F";
name = "Bold Italic";
paths = (
{
closed = 1;
nodes = (
"389 0 LINE",
"439 236 LINE",
"757 644 LINE",
"555 644 LINE",
"374 401 LINE",
"295 644 LINE",
"105 644 LINE",
"251 236 LINE",
"201 0 LINE"
);
},
{
closed = 1;
nodes = (
"503 688 LINE",
"459 894 LINE",
"312 894 LINE",
"365 688 LINE"
);
}
);
width = 702;
}
);
leftKerningGroup = Y;
note = Ygrave;
rightKerningGroup = Y;
unicode = 1EF2;
},
{
glyphname = Yhookabove;
lastChange = "2015-11-25 11:50:18 +0000";
layers = (
{
layerId = "D9861EBB-D268-4716-B046-FAB51EB1D86F";
name = "Bold Italic";
paths = (
{
closed = 1;
nodes = (
"389 0 LINE",
"439 236 LINE",
"757 644 LINE",
"555 644 LINE",
"374 401 LINE",
"295 644 LINE",
"105 644 LINE",
"251 236 LINE",
"201 0 LINE"
);
},
{
closed = 1;
nodes = (
"506 688 LINE",
"515 729 LINE",
"574 745 OFFCURVE",
"608 771 OFFCURVE",
"620 829 CURVE SMOOTH",
"622 836 OFFCURVE",
"622 843 OFFCURVE",
"622 850 CURVE SMOOTH",
"622 898 OFFCURVE",
"581 930 OFFCURVE",
"501 930 CURVE SMOOTH",
"453 930 OFFCURVE",
"413 925 OFFCURVE",
"383 916 CURVE",
"366 838 LINE",
"383 842 OFFCURVE",
"408 846 OFFCURVE",
"427 846 CURVE SMOOTH",
"466 846 OFFCURVE",
"485 836 OFFCURVE",
"480 813 CURVE SMOOTH",
"475 788 OFFCURVE",
"452 773 OFFCURVE",
"383 769 CURVE",
"365 688 LINE"
);
}
);
width = 702;
}
);
leftKerningGroup = Y;
note = Yhookabove;
rightKerningGroup = Y;
unicode = 1EF6;
},
{
glyphname = Ytilde;
lastChange = "2015-11-25 11:50:16 +0000";
layers = (
{
layerId = "D9861EBB-D268-4716-B046-FAB51EB1D86F";
name = "Bold Italic";
paths = (
{
closed = 1;
nodes = (
"389 0 LINE",
"439 236 LINE",
"757 644 LINE",
"555 644 LINE",
"374 401 LINE",
"295 644 LINE",
"105 644 LINE",
"251 236 LINE",
"201 0 LINE"
);
},
{
closed = 1;
nodes = (
"578 696 OFFCURVE",
"616 711 OFFCURVE",
"633 729 CURVE",
"658 848 LINE",
"638 825 OFFCURVE",
"602 808 OFFCURVE",
"560 808 CURVE SMOOTH",
"497 808 OFFCURVE",
"455 850 OFFCURVE",
"388 850 CURVE SMOOTH",
"349 850 OFFCURVE",
"309 835 OFFCURVE",
"286 817 CURVE",
"261 699 LINE",
"290 723 OFFCURVE",
"325 738 OFFCURVE",
"367 738 CURVE SMOOTH",
"422 738 OFFCURVE",
"473 696 OFFCURVE",
"539 696 CURVE SMOOTH"
);
}
);
width = 702;
}
);
leftKerningGroup = Y;
note = Ytilde;
rightKerningGroup = Y;
unicode = 1EF8;
},
{
glyphname = Z;
lastChange = "2015-11-25 11:50:16 +0000";
layers = (
{
layerId = "D9861EBB-D268-4716-B046-FAB51EB1D86F";
name = "Bold Italic";
paths = (
{
closed = 1;
nodes = (
"502 0 LINE",
"532 144 LINE",
"249 144 LINE",
"612 546 LINE",
"632 644 LINE",
"120 644 LINE",
"90 500 LINE",
"355 500 LINE",
"-12 94 LINE",
"-31 0 LINE"
);
}
);
width = 578;
}
);
note = Z;
unicode = 005A;
},
{
glyphname = Zacute;
lastChange = "2015-11-25 11:50:17 +0000";
layers = (
{
layerId = "D9861EBB-D268-4716-B046-FAB51EB1D86F";
name = "Bold Italic";
paths = (
{
closed = 1;
nodes = (
"502 0 LINE",
"532 144 LINE",
"249 144 LINE",
"612 546 LINE",
"632 644 LINE",
"120 644 LINE",
"90 500 LINE",
"355 500 LINE",
"-12 94 LINE",
"-31 0 LINE"
);
},
{
closed = 1;
nodes = (
"437 688 LINE",
"577 894 LINE",
"431 894 LINE",
"299 688 LINE"
);
}
);
width = 578;
}
);
note = Zacute;
unicode = 0179;
},
{
glyphname = Zcaron;
lastChange = "2015-11-25 11:55:26 +0000";
layers = (
{
layerId = "D9861EBB-D268-4716-B046-FAB51EB1D86F";
name = "Bold Italic";
paths = (
{
closed = 1;
nodes = (
"502 0 LINE",
"532 144 LINE",
"249 144 LINE",
"612 546 LINE",
"632 644 LINE",
"120 644 LINE",
"90 500 LINE",
"355 500 LINE",
"-12 94 LINE",
"-31 0 LINE"
);
},
{
closed = 1;
nodes = (
"450 688 LINE",
"647 888 LINE",
"506 888 LINE",
"407 779 LINE",
"358 888 LINE",
"224 888 LINE",
"336 688 LINE"
);
}
);
width = 578;
}
);
note = Zcaron;
unicode = 017D;
},
{
glyphname = Zdotaccent;
lastChange = "2015-11-25 11:55:32 +0000";
layers = (
{
layerId = "D9861EBB-D268-4716-B046-FAB51EB1D86F";
name = "Bold Italic";
paths = (
{
closed = 1;
nodes = (
"502 0 LINE",
"532 144 LINE",
"249 144 LINE",
"612 546 LINE",
"632 644 LINE",
"120 644 LINE",
"90 500 LINE",
"355 500 LINE",
"-12 94 LINE",
"-31 0 LINE"
);
},
{
closed = 1;
nodes = (
"454 715 LINE",
"480 835 LINE",
"350 835 LINE",
"324 715 LINE"
);
}
);
width = 578;
}
);
note = Zdotaccent;
unicode = 017B;
},
{
glyphname = Zdotbelow;
lastChange = "2015-11-25 11:50:15 +0000";
layers = (
{
layerId = "D9861EBB-D268-4716-B046-FAB51EB1D86F";
name = "Bold Italic";
paths = (
{
closed = 1;
nodes = (
"502 0 LINE",
"532 144 LINE",
"249 144 LINE",
"612 546 LINE",
"632 644 LINE",
"120 644 LINE",
"90 500 LINE",
"355 500 LINE",
"-12 94 LINE",
"-31 0 LINE"
);
},
{
closed = 1;
nodes = (
"259 -176 LINE",
"284 -56 LINE",
"154 -56 LINE",
"129 -176 LINE"
);
}
);
width = 578;
}
);
note = Zdotbelow;
unicode = 1E92;
},
{
glyphname = a;
lastChange = "2015-11-25 11:50:18 +0000";
layers = (
{
layerId = "D9861EBB-D268-4716-B046-FAB51EB1D86F";
name = "Bold Italic";
paths = (
{
closed = 1;
nodes = (
"249 -10 OFFCURVE",
"297 7 OFFCURVE",
"341 37 CURVE",
"343 0 LINE",
"506 0 LINE",
"606 474 LINE",
"418 474 LINE",
"413 451 LINE",
"391 469 OFFCURVE",
"354 484 OFFCURVE",
"303 484 CURVE SMOOTH",
"167 484 OFFCURVE",
"50 382 OFFCURVE",
"15 220 CURVE SMOOTH",
"9 193 OFFCURVE",
"7 169 OFFCURVE",
"7 147 CURVE SMOOTH",
"7 37 OFFCURVE",
"76 -10 OFFCURVE",
"187 -10 CURVE SMOOTH"
);
},
{
closed = 1;
nodes = (
"221 126 OFFCURVE",
"201 139 OFFCURVE",
"201 176 CURVE SMOOTH",
"201 187 OFFCURVE",
"203 202 OFFCURVE",
"207 219 CURVE SMOOTH",
"225 303 OFFCURVE",
"263 348 OFFCURVE",
"322 348 CURVE SMOOTH",
"352 348 OFFCURVE",
"371 340 OFFCURVE",
"386 323 CURVE",
"350 155 LINE",
"329 136 OFFCURVE",
"299 126 OFFCURVE",
"270 126 CURVE SMOOTH"
);
}
);
width = 607;
}
);
leftKerningGroup = a;
note = a;
unicode = 0061;
},
{
glyphname = aacute;
lastChange = "2015-11-25 11:56:02 +0000";
layers = (
{
layerId = "D9861EBB-D268-4716-B046-FAB51EB1D86F";
name = "Bold Italic";
paths = (
{
closed = 1;
nodes = (
"249 -10 OFFCURVE",
"297 7 OFFCURVE",
"341 37 CURVE",
"343 0 LINE",
"506 0 LINE",
"606 474 LINE",
"418 474 LINE",
"413 451 LINE",
"391 469 OFFCURVE",
"354 484 OFFCURVE",
"303 484 CURVE SMOOTH",
"167 484 OFFCURVE",
"50 382 OFFCURVE",
"15 220 CURVE SMOOTH",
"9 193 OFFCURVE",
"7 169 OFFCURVE",
"7 147 CURVE SMOOTH",
"7 37 OFFCURVE",
"76 -10 OFFCURVE",
"187 -10 CURVE SMOOTH"
);
},
{
closed = 1;
nodes = (
"221 126 OFFCURVE",
"201 139 OFFCURVE",
"201 176 CURVE SMOOTH",
"201 187 OFFCURVE",
"203 202 OFFCURVE",
"207 219 CURVE SMOOTH",
"225 303 OFFCURVE",
"263 348 OFFCURVE",
"322 348 CURVE SMOOTH",
"352 348 OFFCURVE",
"371 340 OFFCURVE",
"386 323 CURVE",
"350 155 LINE",
"329 136 OFFCURVE",
"299 126 OFFCURVE",
"270 126 CURVE SMOOTH"
);
},
{
closed = 1;
nodes = (
"408 522 LINE",
"548 728 LINE",
"402 728 LINE",
"270 522 LINE"
);
}
);
width = 607;
}
);
leftKerningGroup = a;
note = aacute;
unicode = 00E1;
},
{
glyphname = abreve;
lastChange = "2015-11-25 11:56:02 +0000";
layers = (
{
layerId = "D9861EBB-D268-4716-B046-FAB51EB1D86F";
name = "Bold Italic";
paths = (
{
closed = 1;
nodes = (
"249 -10 OFFCURVE",
"297 7 OFFCURVE",
"341 37 CURVE",
"343 0 LINE",
"506 0 LINE",
"606 474 LINE",
"418 474 LINE",
"413 451 LINE",
"391 469 OFFCURVE",
"354 484 OFFCURVE",
"303 484 CURVE SMOOTH",
"167 484 OFFCURVE",
"50 382 OFFCURVE",
"15 220 CURVE SMOOTH",
"9 193 OFFCURVE",
"7 169 OFFCURVE",
"7 147 CURVE SMOOTH",
"7 37 OFFCURVE",
"76 -10 OFFCURVE",
"187 -10 CURVE SMOOTH"
);
},
{
closed = 1;
nodes = (
"221 126 OFFCURVE",
"201 139 OFFCURVE",
"201 176 CURVE SMOOTH",
"201 187 OFFCURVE",
"203 202 OFFCURVE",
"207 219 CURVE SMOOTH",
"225 303 OFFCURVE",
"263 348 OFFCURVE",
"322 348 CURVE SMOOTH",
"352 348 OFFCURVE",
"371 340 OFFCURVE",
"386 323 CURVE",
"350 155 LINE",
"329 136 OFFCURVE",
"299 126 OFFCURVE",
"270 126 CURVE SMOOTH"
);
},
{
closed = 1;
nodes = (
"473 523 OFFCURVE",
"563 589 OFFCURVE",
"589 710 CURVE",
"462 710 LINE",
"452 661 OFFCURVE",
"427 626 OFFCURVE",
"376 626 CURVE SMOOTH",
"337 626 OFFCURVE",
"323 646 OFFCURVE",
"323 678 CURVE SMOOTH",
"323 687 OFFCURVE",
"325 698 OFFCURVE",
"327 710 CURVE",
"211 710 LINE",
"207 692 OFFCURVE",
"205 674 OFFCURVE",
"205 658 CURVE SMOOTH",
"205 570 OFFCURVE",
"264 523 OFFCURVE",
"359 523 CURVE SMOOTH"
);
}
);
width = 607;
}
);
leftKerningGroup = a;
note = abreve;
unicode = 0103;
},
{
glyphname = abreveacute;
lastChange = "2015-11-25 11:56:02 +0000";
layers = (
{
layerId = "D9861EBB-D268-4716-B046-FAB51EB1D86F";
name = "Bold Italic";
paths = (
{
closed = 1;
nodes = (
"249 -10 OFFCURVE",
"297 7 OFFCURVE",
"341 37 CURVE",
"343 0 LINE",
"506 0 LINE",
"606 474 LINE",
"418 474 LINE",
"413 451 LINE",
"391 469 OFFCURVE",
"354 484 OFFCURVE",
"303 484 CURVE SMOOTH",
"167 484 OFFCURVE",
"50 382 OFFCURVE",
"15 220 CURVE SMOOTH",
"9 193 OFFCURVE",
"7 169 OFFCURVE",
"7 147 CURVE SMOOTH",
"7 37 OFFCURVE",
"76 -10 OFFCURVE",
"187 -10 CURVE SMOOTH"
);
},
{
closed = 1;
nodes = (
"221 126 OFFCURVE",
"201 139 OFFCURVE",
"201 176 CURVE SMOOTH",
"201 187 OFFCURVE",
"203 202 OFFCURVE",
"207 219 CURVE SMOOTH",
"225 303 OFFCURVE",
"263 348 OFFCURVE",
"322 348 CURVE SMOOTH",
"352 348 OFFCURVE",
"371 340 OFFCURVE",
"386 323 CURVE",
"350 155 LINE",
"329 136 OFFCURVE",
"299 126 OFFCURVE",
"270 126 CURVE SMOOTH"
);
},
{
closed = 1;
nodes = (
"457 522 OFFCURVE",
"530 574 OFFCURVE",
"556 694 CURVE",
"451 694 LINE",
"441 646 OFFCURVE",
"408 614 OFFCURVE",
"358 614 CURVE SMOOTH",
"311 614 OFFCURVE",
"295 634 OFFCURVE",
"295 665 CURVE SMOOTH",
"295 674 OFFCURVE",
"296 684 OFFCURVE",
"298 694 CURVE",
"193 694 LINE",
"189 678 OFFCURVE",
"188 663 OFFCURVE",
"188 649 CURVE SMOOTH",
"188 561 OFFCURVE",
"255 522 OFFCURVE",
"338 522 CURVE SMOOTH"
);
},
{
closed = 1;
nodes = (
"427 690 LINE",
"543 847 LINE",
"418 847 LINE",
"319 690 LINE"
);
}
);
width = 607;
}
);
leftKerningGroup = a;
note = abreveacute;
unicode = 1EAF;
},
{
glyphname = abrevedotbelow;
lastChange = "2015-11-25 11:56:13 +0000";
layers = (
{
layerId = "D9861EBB-D268-4716-B046-FAB51EB1D86F";
name = "Bold Italic";
paths = (
{
closed = 1;
nodes = (
"249 -10 OFFCURVE",
"297 7 OFFCURVE",
"341 37 CURVE",
"343 0 LINE",
"506 0 LINE",
"606 474 LINE",
"418 474 LINE",
"413 451 LINE",
"391 469 OFFCURVE",
"354 484 OFFCURVE",
"303 484 CURVE SMOOTH",
"167 484 OFFCURVE",
"50 382 OFFCURVE",
"15 220 CURVE SMOOTH",
"9 193 OFFCURVE",
"7 169 OFFCURVE",
"7 147 CURVE SMOOTH",
"7 37 OFFCURVE",
"76 -10 OFFCURVE",
"187 -10 CURVE SMOOTH"
);
},
{
closed = 1;
nodes = (
"221 126 OFFCURVE",
"201 139 OFFCURVE",
"201 176 CURVE SMOOTH",
"201 187 OFFCURVE",
"203 202 OFFCURVE",
"207 219 CURVE SMOOTH",
"225 303 OFFCURVE",
"263 348 OFFCURVE",
"322 348 CURVE SMOOTH",
"352 348 OFFCURVE",
"371 340 OFFCURVE",
"386 323 CURVE",
"350 155 LINE",
"329 136 OFFCURVE",
"299 126 OFFCURVE",
"270 126 CURVE SMOOTH"
);
},
{
closed = 1;
nodes = (
"277 -176 LINE",
"302 -56 LINE",
"172 -56 LINE",
"147 -176 LINE"
);
},
{
closed = 1;
nodes = (
"467 522 OFFCURVE",
"557 588 OFFCURVE",
"583 709 CURVE",
"456 709 LINE",
"446 660 OFFCURVE",
"421 625 OFFCURVE",
"370 625 CURVE SMOOTH",
"331 625 OFFCURVE",
"317 645 OFFCURVE",
"317 677 CURVE SMOOTH",
"317 686 OFFCURVE",
"319 697 OFFCURVE",
"321 709 CURVE",
"205 709 LINE",
"201 691 OFFCURVE",
"199 673 OFFCURVE",
"199 657 CURVE SMOOTH",
"199 569 OFFCURVE",
"258 522 OFFCURVE",
"353 522 CURVE SMOOTH"
);
}
);
width = 607;
}
);
leftKerningGroup = a;
note = abrevedotbelow;
unicode = 1EB7;
},
{
glyphname = abrevegrave;
lastChange = "2015-11-25 11:56:02 +0000";
layers = (
{
layerId = "D9861EBB-D268-4716-B046-FAB51EB1D86F";
name = "Bold Italic";
paths = (
{
closed = 1;
nodes = (
"249 -10 OFFCURVE",
"297 7 OFFCURVE",
"341 37 CURVE",
"343 0 LINE",
"506 0 LINE",
"606 474 LINE",
"418 474 LINE",
"413 451 LINE",
"391 469 OFFCURVE",
"354 484 OFFCURVE",
"303 484 CURVE SMOOTH",
"167 484 OFFCURVE",
"50 382 OFFCURVE",
"15 220 CURVE SMOOTH",
"9 193 OFFCURVE",
"7 169 OFFCURVE",
"7 147 CURVE SMOOTH",
"7 37 OFFCURVE",
"76 -10 OFFCURVE",
"187 -10 CURVE SMOOTH"
);
},
{
closed = 1;
nodes = (
"221 126 OFFCURVE",
"201 139 OFFCURVE",
"201 176 CURVE SMOOTH",
"201 187 OFFCURVE",
"203 202 OFFCURVE",
"207 219 CURVE SMOOTH",
"225 303 OFFCURVE",
"263 348 OFFCURVE",
"322 348 CURVE SMOOTH",
"352 348 OFFCURVE",
"371 340 OFFCURVE",
"386 323 CURVE",
"350 155 LINE",
"329 136 OFFCURVE",
"299 126 OFFCURVE",
"270 126 CURVE SMOOTH"
);
},
{
closed = 1;
nodes = (
"466 522 OFFCURVE",
"539 574 OFFCURVE",
"565 694 CURVE",
"460 694 LINE",
"450 646 OFFCURVE",
"417 614 OFFCURVE",
"367 614 CURVE SMOOTH",
"320 614 OFFCURVE",
"304 634 OFFCURVE",
"304 665 CURVE SMOOTH",
"304 674 OFFCURVE",
"305 684 OFFCURVE",
"307 694 CURVE",
"202 694 LINE",
"198 678 OFFCURVE",
"197 663 OFFCURVE",
"197 649 CURVE SMOOTH",
"197 561 OFFCURVE",
"264 522 OFFCURVE",
"347 522 CURVE SMOOTH"
);
},
{
closed = 1;
nodes = (
"437 690 LINE",
"404 847 LINE",
"279 847 LINE",
"329 690 LINE"
);
}
);
width = 607;
}
);
leftKerningGroup = a;
note = abrevegrave;
unicode = 1EB1;
},
{
glyphname = abrevehookabove;
lastChange = "2015-11-25 11:56:02 +0000";
layers = (
{
layerId = "D9861EBB-D268-4716-B046-FAB51EB1D86F";
name = "Bold Italic";
paths = (
{
closed = 1;
nodes = (
"249 -10 OFFCURVE",
"297 7 OFFCURVE",
"341 37 CURVE",
"343 0 LINE",
"506 0 LINE",
"606 474 LINE",
"418 474 LINE",
"413 451 LINE",
"391 469 OFFCURVE",
"354 484 OFFCURVE",
"303 484 CURVE SMOOTH",
"167 484 OFFCURVE",
"50 382 OFFCURVE",
"15 220 CURVE SMOOTH",
"9 193 OFFCURVE",
"7 169 OFFCURVE",
"7 147 CURVE SMOOTH",
"7 37 OFFCURVE",
"76 -10 OFFCURVE",
"187 -10 CURVE SMOOTH"
);
},
{
closed = 1;
nodes = (
"221 126 OFFCURVE",
"201 139 OFFCURVE",
"201 176 CURVE SMOOTH",
"201 187 OFFCURVE",
"203 202 OFFCURVE",
"207 219 CURVE SMOOTH",
"225 303 OFFCURVE",
"263 348 OFFCURVE",
"322 348 CURVE SMOOTH",
"352 348 OFFCURVE",
"371 340 OFFCURVE",
"386 323 CURVE",
"350 155 LINE",
"329 136 OFFCURVE",
"299 126 OFFCURVE",
"270 126 CURVE SMOOTH"
);
},
{
closed = 1;
nodes = (
"465 522 OFFCURVE",
"538 574 OFFCURVE",
"564 694 CURVE",
"459 694 LINE",
"449 646 OFFCURVE",
"416 614 OFFCURVE",
"366 614 CURVE SMOOTH",
"319 614 OFFCURVE",
"303 634 OFFCURVE",
"303 665 CURVE SMOOTH",
"303 674 OFFCURVE",
"304 684 OFFCURVE",
"306 694 CURVE",
"201 694 LINE",
"197 678 OFFCURVE",
"196 663 OFFCURVE",
"196 649 CURVE SMOOTH",
"196 561 OFFCURVE",
"263 522 OFFCURVE",
"346 522 CURVE SMOOTH"
);
},
{
closed = 1;
nodes = (
"442 695 LINE",
"448 725 LINE",
"504 738 OFFCURVE",
"531 762 OFFCURVE",
"541 807 CURVE SMOOTH",
"542 813 OFFCURVE",
"543 818 OFFCURVE",
"543 823 CURVE SMOOTH",
"543 864 OFFCURVE",
"508 893 OFFCURVE",
"442 893 CURVE SMOOTH",
"402 893 OFFCURVE",
"363 888 OFFCURVE",
"337 880 CURVE",
"323 813 LINE",
"337 818 OFFCURVE",
"357 822 OFFCURVE",
"376 822 CURVE SMOOTH",
"407 822 OFFCURVE",
"422 816 OFFCURVE",
"417 794 CURVE",
"413 773 OFFCURVE",
"391 759 OFFCURVE",
"334 757 CURVE",
"321 695 LINE"
);
}
);
width = 607;
}
);
leftKerningGroup = a;
note = abrevehookabove;
unicode = 1EB3;
},
{
glyphname = abrevetilde;
lastChange = "2015-11-25 11:56:02 +0000";
layers = (
{
layerId = "D9861EBB-D268-4716-B046-FAB51EB1D86F";
name = "Bold Italic";
paths = (
{
closed = 1;
nodes = (
"249 -10 OFFCURVE",
"297 7 OFFCURVE",
"341 37 CURVE",
"343 0 LINE",
"506 0 LINE",
"606 474 LINE",
"418 474 LINE",
"413 451 LINE",
"391 469 OFFCURVE",
"354 484 OFFCURVE",
"303 484 CURVE SMOOTH",
"167 484 OFFCURVE",
"50 382 OFFCURVE",
"15 220 CURVE SMOOTH",
"9 193 OFFCURVE",
"7 169 OFFCURVE",
"7 147 CURVE SMOOTH",
"7 37 OFFCURVE",
"76 -10 OFFCURVE",
"187 -10 CURVE SMOOTH"
);
},
{
closed = 1;
nodes = (
"221 126 OFFCURVE",
"201 139 OFFCURVE",
"201 176 CURVE SMOOTH",
"201 187 OFFCURVE",
"203 202 OFFCURVE",
"207 219 CURVE SMOOTH",
"225 303 OFFCURVE",
"263 348 OFFCURVE",
"322 348 CURVE SMOOTH",
"352 348 OFFCURVE",
"371 340 OFFCURVE",
"386 323 CURVE",
"350 155 LINE",
"329 136 OFFCURVE",
"299 126 OFFCURVE",
"270 126 CURVE SMOOTH"
);
},
{
closed = 1;
nodes = (
"468 522 OFFCURVE",
"541 574 OFFCURVE",
"567 694 CURVE",
"462 694 LINE",
"452 646 OFFCURVE",
"419 614 OFFCURVE",
"369 614 CURVE SMOOTH",
"322 614 OFFCURVE",
"306 634 OFFCURVE",
"306 665 CURVE SMOOTH",
"306 674 OFFCURVE",
"307 684 OFFCURVE",
"309 694 CURVE",
"204 694 LINE",
"200 678 OFFCURVE",
"199 663 OFFCURVE",
"199 649 CURVE SMOOTH",
"199 561 OFFCURVE",
"266 522 OFFCURVE",
"349 522 CURVE SMOOTH"
);
},
{
closed = 1;
nodes = (
"523 712 OFFCURVE",
"560 727 OFFCURVE",
"575 744 CURVE",
"597 847 LINE",
"576 824 OFFCURVE",
"542 808 OFFCURVE",
"501 808 CURVE SMOOTH",
"441 808 OFFCURVE",
"399 849 OFFCURVE",
"334 849 CURVE SMOOTH",
"296 849 OFFCURVE",
"257 835 OFFCURVE",
"235 817 CURVE",
"213 715 LINE",
"241 739 OFFCURVE",
"275 753 OFFCURVE",
"316 753 CURVE SMOOTH",
"370 753 OFFCURVE",
"421 712 OFFCURVE",
"484 712 CURVE SMOOTH"
);
}
);
width = 607;
}
);
leftKerningGroup = a;
note = abrevetilde;
unicode = 1EB5;
},
{
glyphname = acaron;
lastChange = "2015-11-25 11:56:02 +0000";
layers = (
{
layerId = "D9861EBB-D268-4716-B046-FAB51EB1D86F";
name = "Bold Italic";
paths = (
{
closed = 1;
nodes = (
"249 -10 OFFCURVE",
"297 7 OFFCURVE",
"341 37 CURVE",
"343 0 LINE",
"506 0 LINE",
"606 474 LINE",
"418 474 LINE",
"413 451 LINE",
"391 469 OFFCURVE",
"354 484 OFFCURVE",
"303 484 CURVE SMOOTH",
"167 484 OFFCURVE",
"50 382 OFFCURVE",
"15 220 CURVE SMOOTH",
"9 193 OFFCURVE",
"7 169 OFFCURVE",
"7 147 CURVE SMOOTH",
"7 37 OFFCURVE",
"76 -10 OFFCURVE",
"187 -10 CURVE SMOOTH"
);
},
{
closed = 1;
nodes = (
"221 126 OFFCURVE",
"201 139 OFFCURVE",
"201 176 CURVE SMOOTH",
"201 187 OFFCURVE",
"203 202 OFFCURVE",
"207 219 CURVE SMOOTH",
"225 303 OFFCURVE",
"263 348 OFFCURVE",
"322 348 CURVE SMOOTH",
"352 348 OFFCURVE",
"371 340 OFFCURVE",
"386 323 CURVE",
"350 155 LINE",
"329 136 OFFCURVE",
"299 126 OFFCURVE",
"270 126 CURVE SMOOTH"
);
},
{
closed = 1;
nodes = (
"400 522 LINE",
"597 722 LINE",
"456 722 LINE",
"357 613 LINE",
"308 722 LINE",
"174 722 LINE",
"286 522 LINE"
);
}
);
width = 607;
}
);
leftKerningGroup = a;
note = acaron;
unicode = 01CE;
},
{
glyphname = acircumflex;
lastChange = "2015-11-25 11:56:02 +0000";
layers = (
{
layerId = "D9861EBB-D268-4716-B046-FAB51EB1D86F";
name = "Bold Italic";
paths = (
{
closed = 1;
nodes = (
"249 -10 OFFCURVE",
"297 7 OFFCURVE",
"341 37 CURVE",
"343 0 LINE",
"506 0 LINE",
"606 474 LINE",
"418 474 LINE",
"413 451 LINE",
"391 469 OFFCURVE",
"354 484 OFFCURVE",
"303 484 CURVE SMOOTH",
"167 484 OFFCURVE",
"50 382 OFFCURVE",
"15 220 CURVE SMOOTH",
"9 193 OFFCURVE",
"7 169 OFFCURVE",
"7 147 CURVE SMOOTH",
"7 37 OFFCURVE",
"76 -10 OFFCURVE",
"187 -10 CURVE SMOOTH"
);
},
{
closed = 1;
nodes = (
"221 126 OFFCURVE",
"201 139 OFFCURVE",
"201 176 CURVE SMOOTH",
"201 187 OFFCURVE",
"203 202 OFFCURVE",
"207 219 CURVE SMOOTH",
"225 303 OFFCURVE",
"263 348 OFFCURVE",
"322 348 CURVE SMOOTH",
"352 348 OFFCURVE",
"371 340 OFFCURVE",
"386 323 CURVE",
"350 155 LINE",
"329 136 OFFCURVE",
"299 126 OFFCURVE",
"270 126 CURVE SMOOTH"
);
},
{
closed = 1;
nodes = (
"279 522 LINE",
"372 630 LINE",
"426 522 LINE",
"557 522 LINE",
"444 722 LINE",
"330 722 LINE",
"134 522 LINE"
);
}
);
width = 607;
}
);
leftKerningGroup = a;
note = acircumflex;
unicode = 00E2;
},
{
glyphname = acircumflexacute;
lastChange = "2015-11-25 11:56:02 +0000";
layers = (
{
layerId = "D9861EBB-D268-4716-B046-FAB51EB1D86F";
name = "Bold Italic";
paths = (
{
closed = 1;
nodes = (
"249 -10 OFFCURVE",
"297 7 OFFCURVE",
"341 37 CURVE",
"343 0 LINE",
"506 0 LINE",
"606 474 LINE",
"418 474 LINE",
"413 451 LINE",
"391 469 OFFCURVE",
"354 484 OFFCURVE",
"303 484 CURVE SMOOTH",
"167 484 OFFCURVE",
"50 382 OFFCURVE",
"15 220 CURVE SMOOTH",
"9 193 OFFCURVE",
"7 169 OFFCURVE",
"7 147 CURVE SMOOTH",
"7 37 OFFCURVE",
"76 -10 OFFCURVE",
"187 -10 CURVE SMOOTH"
);
},
{
closed = 1;
nodes = (
"221 126 OFFCURVE",
"201 139 OFFCURVE",
"201 176 CURVE SMOOTH",
"201 187 OFFCURVE",
"203 202 OFFCURVE",
"207 219 CURVE SMOOTH",
"225 303 OFFCURVE",
"263 348 OFFCURVE",
"322 348 CURVE SMOOTH",
"352 348 OFFCURVE",
"371 340 OFFCURVE",
"386 323 CURVE",
"350 155 LINE",
"329 136 OFFCURVE",
"299 126 OFFCURVE",
"270 126 CURVE SMOOTH"
);
},
{
closed = 1;
nodes = (
"284 522 LINE",
"363 601 LINE",
"408 522 LINE",
"554 522 LINE",
"445 674 LINE",
"307 674 LINE",
"132 522 LINE"
);
},
{
closed = 1;
nodes = (
"623 647 LINE",
"734 803 LINE",
"595 803 LINE",
"492 647 LINE"
);
}
);
width = 607;
}
);
leftKerningGroup = a;
note = acircumflexacute;
unicode = 1EA5;
},
{
glyphname = acircumflexdotbelow;
lastChange = "2015-11-25 11:56:22 +0000";
layers = (
{
layerId = "D9861EBB-D268-4716-B046-FAB51EB1D86F";
name = "Bold Italic";
paths = (
{
closed = 1;
nodes = (
"249 -10 OFFCURVE",
"297 7 OFFCURVE",
"341 37 CURVE",
"343 0 LINE",
"506 0 LINE",
"606 474 LINE",
"418 474 LINE",
"413 451 LINE",
"391 469 OFFCURVE",
"354 484 OFFCURVE",
"303 484 CURVE SMOOTH",
"167 484 OFFCURVE",
"50 382 OFFCURVE",
"15 220 CURVE SMOOTH",
"9 193 OFFCURVE",
"7 169 OFFCURVE",
"7 147 CURVE SMOOTH",
"7 37 OFFCURVE",
"76 -10 OFFCURVE",
"187 -10 CURVE SMOOTH"
);
},
{
closed = 1;
nodes = (
"221 126 OFFCURVE",
"201 139 OFFCURVE",
"201 176 CURVE SMOOTH",
"201 187 OFFCURVE",
"203 202 OFFCURVE",
"207 219 CURVE SMOOTH",
"225 303 OFFCURVE",
"263 348 OFFCURVE",
"322 348 CURVE SMOOTH",
"352 348 OFFCURVE",
"371 340 OFFCURVE",
"386 323 CURVE",
"350 155 LINE",
"329 136 OFFCURVE",
"299 126 OFFCURVE",
"270 126 CURVE SMOOTH"
);
},
{
closed = 1;
nodes = (
"268 -176 LINE",
"293 -56 LINE",
"163 -56 LINE",
"138 -176 LINE"
);
},
{
closed = 1;
nodes = (
"284 522 LINE",
"377 630 LINE",
"431 522 LINE",
"562 522 LINE",
"449 722 LINE",
"335 722 LINE",
"139 522 LINE"
);
}
);
width = 607;
}
);
leftKerningGroup = a;
note = acircumflexdotbelow;
unicode = 1EAD;
},
{
glyphname = acircumflexgrave;
lastChange = "2015-11-25 11:56:43 +0000";
layers = (
{
layerId = "D9861EBB-D268-4716-B046-FAB51EB1D86F";
name = "Bold Italic";
paths = (
{
closed = 1;
nodes = (
"249 -10 OFFCURVE",
"297 7 OFFCURVE",
"341 37 CURVE",
"343 0 LINE",
"506 0 LINE",
"606 474 LINE",
"418 474 LINE",
"413 451 LINE",
"391 469 OFFCURVE",
"354 484 OFFCURVE",
"303 484 CURVE SMOOTH",
"167 484 OFFCURVE",
"50 382 OFFCURVE",
"15 220 CURVE SMOOTH",
"9 193 OFFCURVE",
"7 169 OFFCURVE",
"7 147 CURVE SMOOTH",
"7 37 OFFCURVE",
"76 -10 OFFCURVE",
"187 -10 CURVE SMOOTH"
);
},
{
closed = 1;
nodes = (
"221 126 OFFCURVE",
"201 139 OFFCURVE",
"201 176 CURVE SMOOTH",
"201 187 OFFCURVE",
"203 202 OFFCURVE",
"207 219 CURVE SMOOTH",
"225 303 OFFCURVE",
"263 348 OFFCURVE",
"322 348 CURVE SMOOTH",
"352 348 OFFCURVE",
"371 340 OFFCURVE",
"386 323 CURVE",
"350 155 LINE",
"329 136 OFFCURVE",
"299 126 OFFCURVE",
"270 126 CURVE SMOOTH"
);
},
{
closed = 1;
nodes = (
"268 647 LINE",
"230 803 LINE",
"91 803 LINE",
"136 647 LINE"
);
},
{
closed = 1;
nodes = (
"304 522 LINE",
"383 601 LINE",
"428 522 LINE",
"573 522 LINE",
"465 674 LINE",
"327 674 LINE",
"152 522 LINE"
);
}
);
width = 607;
}
);
leftKerningGroup = a;
note = acircumflexgrave;
unicode = 1EA7;
},
